<?xml version="1.0" encoding="iso-8859-1"?>
<!-- Generator: Adobe Illustrator 19.0.0, SVG Export Plug-In . SVG Version: 6.00 Build 0)  -->
<svg version="1.1" id="Capa_1" xmlns="http://www.w3.org/2000/svg" xmlns:xlink="http://www.w3.org/1999/xlink" x="0px" y="0px"
	 viewBox="0 0 198.64 198.64" style="enable-background:new 0 0 198.64 198.64;" xml:space="preserve">
<g>
	<g>
		<path d="M151.62,44.336c-6.807-6.799-15.512-10.698-23.885-10.698c-6.105,0-11.395,2.065-15.294,5.971
			c-9.481,9.501-7.336,27.076,4.784,39.181c2.554,2.549,5.373,4.689,8.341,6.369c0.099,0.056,0.199,0.105,0.299,0.16
			c0.397,0.22,0.795,0.438,1.197,0.641c4.522,2.288,9.337,3.521,14.047,3.521h0.001c2.625,0,5.099-0.384,7.377-1.129
			c0.041-0.014,0.084-0.025,0.125-0.039c0.078-0.026,0.153-0.056,0.23-0.083c2.879-0.998,5.437-2.582,7.576-4.723
			C165.897,74.014,163.743,56.442,151.62,44.336z M151.642,78.736c-2.611,2.613-6.253,3.994-10.533,3.994
			c-6.502,0-13.646-3.258-19.112-8.716c-9.487-9.474-11.63-22.768-4.776-29.635c2.604-2.61,6.242-3.99,10.516-3.99
			c6.5,0,13.646,3.261,19.115,8.724C156.342,58.589,158.49,71.879,151.642,78.736z"/>
	</g>
</g>
<g>
	<g>
		<path d="M171.02,24.904C155.397,9.31,134.981,0,116.405,0c-12.607,0-23.441,4.148-31.349,11.99
			C72.38,22.566,61.017,37.249,53.054,53.348c-7.622,15.409-11.696,31-11.472,43.901c0.233,13.047,5.09,23.625,9.69,30.765
			c-6.417,6.734-20.587,21.611-24.304,25.542c-2.17-0.786-4.465-1.14-6.835-1.053c-10.005,0.388-17.836,8.847-17.454,18.856
			c0.289,7.576,5.625,13.767,13.353,15.598c2.918,7.3,8.861,11.682,15.776,11.682c0.355,0,0.713-0.012,1.073-0.035
			c9.996-0.643,17.605-9.299,16.962-19.296c-0.151-2.338-0.731-4.567-1.729-6.649c2.997-3.176,15.191-15.973,22.072-23.193
			l1.669-1.751c1.431,0.749,2.828,1.368,4.168,1.831c4.582,1.604,10.39,2.393,16.915,2.393c9.158,0,19.729-1.555,30.306-4.6
			c15.486-4.458,38.241-14.061,58.699-34.495c0.003-0.003,0.005-0.006,0.008-0.009c0.694-0.601,1.365-1.216,1.996-1.841
			C204.121,90.784,198.322,52.165,171.02,24.904z M121.377,140.852c-20.131,5.795-35.477,5-43.138,2.319
			c-1.618-0.56-3.375-1.418-5.222-2.548c-0.006-0.004-0.012-0.008-0.018-0.012c-0.004-0.002-0.007-0.004-0.011-0.006l-0.004-0.002
			c-1.328-0.814-3.087-0.623-4.204,0.551c0,0-25.571,26.838-26.327,27.674c-1.762,1.957-2.026,4.135-0.727,6.168
			c0.806,1.457,1.27,3.055,1.379,4.746c0.404,6.281-4.378,11.721-10.661,12.125c-5.31,0.354-8.796-3.793-10.297-7.811
			c-0.879-2.441-2.722-3.289-4.116-3.57c-4.138-0.832-8.405-4.056-8.609-9.383c-0.24-6.293,4.682-11.611,10.962-11.855
			c1.752-0.062,3.425,0.25,4.98,0.934c2.013,1.073,4.108,0.643,5.743-1.177c0.639-0.703,14.851-15.634,24.118-25.356
			c0.736,0.943,1.527,1.836,2.794,3.111c0.66,0.664,1.527,0.996,2.394,0.996c0.86,0,1.721-0.327,2.379-0.98
			c1.322-1.314,1.328-3.451,0.014-4.773c-1.865-1.876-4.445-5.539-4.445-5.539c-0.003-0.004-0.006-0.008-0.009-0.014l-0.011-0.016
			c-4.442-6.291-9.785-16.482-10.013-29.302c-0.3-17.249,8.522-42.949,25.606-64.16c-4.217,20.265,4.296,45.682,23.89,65.244
			c16.133,16.108,35.278,24.979,53.908,24.981h0.001c2.747,0,5.436-0.209,8.046-0.603
			C145.671,132.4,131.794,137.854,121.377,140.852z M179.181,106.215c-0.572,0.568-1.192,1.137-1.839,1.688
			c-6.495,5.51-15.587,8.543-25.604,8.543h-0.002c-16.83,0-34.281-8.172-49.14-23.006C77.93,68.814,72.142,34.476,89.694,16.893
			c6.623-6.634,15.86-10.141,26.71-10.141c16.828-0.001,35.462,8.571,49.847,22.929C190.92,54.312,196.715,88.649,179.181,106.215z"
			/>
	</g>
</g>
<g>
</g>
<g>
</g>
<g>
</g>
<g>
</g>
<g>
</g>
<g>
</g>
<g>
</g>
<g>
</g>
<g>
</g>
<g>
</g>
<g>
</g>
<g>
</g>
<g>
</g>
<g>
</g>
<g>
</g>
</svg>
