<?xml version="1.0" encoding="iso-8859-1"?>
<!-- Generator: Adobe Illustrator 19.0.0, SVG Export Plug-In . SVG Version: 6.00 Build 0)  -->
<svg version="1.1" id="Capa_1" xmlns="http://www.w3.org/2000/svg" xmlns:xlink="http://www.w3.org/1999/xlink" x="0px" y="0px"
	 viewBox="0 0 212.4 212.4" style="enable-background:new 0 0 212.4 212.4;" xml:space="preserve">
<g>
	<g>
		<path d="M211.319,72.913l-17.681-16.405l-8.415-31.015c-0.385-1.417-1.642-2.423-3.108-2.488
			c-1.461-0.083-2.807,0.826-3.315,2.203l-7.71,20.9c-5.171-5.597-11.158-9.933-17.526-12.589
			c-11.463-4.782-23.812-4.129-35.711,1.887C76.615,56.259,15.176,94.014,14.48,94.58c-9.46,7.704-14.602,19.479-14.478,33.155
			c0.121,13.392,5.304,27.051,14.596,38.46c11.834,14.529,28.66,23.205,45.009,23.205c7.023,0,13.587-1.623,19.32-4.73
			c0.018-0.009,0.035-0.019,0.053-0.028c2.017-1.097,67.824-46.951,94.923-66.232c8.759-6.232,13.79-16.417,14.168-28.677
			c0.11-3.593-0.173-7.274-0.815-10.968h21.77c1.388,0,2.635-0.85,3.142-2.142C212.673,75.328,212.338,73.858,211.319,72.913z
			 M81.45,175.161c-7.537,6.769-15.946,7.489-21.844,7.489c-14.341-0.001-29.21-7.746-39.775-20.719
			c-8.328-10.226-12.973-22.392-13.081-34.258c-0.104-11.583,4.154-21.477,11.992-27.859c0.605-0.493,1.231-0.956,1.87-1.399
			c0.313-0.195,1.252-0.78,2.74-1.699c4.78-2.615,10.297-3.979,16.227-3.979c14.34,0,29.21,7.745,39.776,20.718
			c8.328,10.225,12.973,22.392,13.08,34.258C92.536,158.943,88.988,168.393,81.45,175.161z M169.989,112.908
			c-20.916,14.883-52.798,37.074-73.629,51.527c1.909-5.102,2.878-10.759,2.824-16.784c-0.121-13.393-5.304-27.052-14.596-38.46
			c-11.495-14.114-27.699-22.7-43.601-23.182c19.685-11.78,50.663-29.791,79.911-44.58c23.169-11.715,42.531,2.581,52.071,18.38
			C183.408,77.095,185.91,101.579,169.989,112.908z M185.674,72.012c-1.579-5.378-3.904-10.688-6.926-15.691
			c-0.857-1.422-1.766-2.794-2.712-4.122l5.439-14.743l5.902,21.751c0.164,0.61,0.498,1.161,0.962,1.59l12.086,11.214
			L185.674,72.012z"/>
	</g>
</g>
<g>
	<g>
		<path d="M34.555,101.761c-5.756,0-10.438,4.682-10.438,10.438c0,5.756,4.683,10.438,10.438,10.438
			c5.756,0,10.438-4.682,10.438-10.438C44.993,106.443,40.31,101.761,34.555,101.761z M34.555,115.887
			c-2.034,0-3.688-1.653-3.688-3.688c0-2.033,1.655-3.688,3.688-3.688c2.034,0,3.688,1.655,3.688,3.688
			C38.243,114.232,36.588,115.887,34.555,115.887z"/>
	</g>
</g>
<g>
	<g>
		<path d="M59.427,112.979c-5.756,0-10.438,4.683-10.438,10.438c0,5.755,4.682,10.438,10.438,10.438s10.438-4.683,10.438-10.438
			C69.865,117.662,65.182,112.979,59.427,112.979z M59.427,127.104c-2.034,0-3.688-1.655-3.688-3.688
			c-0.001-2.033,1.654-3.688,3.688-3.688s3.688,1.654,3.688,3.688C63.115,125.449,61.46,127.104,59.427,127.104z"/>
	</g>
</g>
<g>
	<g>
		<path d="M34.555,130.704c-5.756,0-10.438,4.682-10.438,10.438c0,5.757,4.682,10.438,10.438,10.438
			c5.756,0,10.438-4.681,10.438-10.438C44.993,135.387,40.31,130.704,34.555,130.704z M34.555,144.831
			c-2.034,0-3.688-1.655-3.688-3.688c0-2.032,1.654-3.688,3.688-3.688s3.688,1.654,3.688,3.688
			C38.243,143.177,36.589,144.831,34.555,144.831z"/>
	</g>
</g>
<g>
	<g>
		<path d="M52.363,154.796c-5.755,0-10.438,4.682-10.438,10.438c0,5.755,4.683,10.438,10.438,10.438
			c5.756,0,10.438-4.682,10.438-10.438C62.802,159.48,58.119,154.796,52.363,154.796z M52.363,168.922
			c-2.033,0-3.688-1.655-3.688-3.688c0-2.033,1.655-3.688,3.688-3.688c2.034,0,3.688,1.655,3.688,3.688
			C56.051,167.267,54.397,168.922,52.363,168.922z"/>
	</g>
</g>
<g>
	<g>
		<path d="M74.065,137.768c-5.755,0-10.438,4.683-10.438,10.438s4.683,10.438,10.438,10.438c5.755-0.001,10.438-4.683,10.438-10.438
			S79.82,137.768,74.065,137.768z M74.065,151.894c-2.034-0.001-3.688-1.654-3.688-3.688c0-2.033,1.655-3.688,3.688-3.688
			c2.033,0,3.688,1.654,3.688,3.688C77.752,150.24,76.099,151.894,74.065,151.894z"/>
	</g>
</g>
<g>
</g>
<g>
</g>
<g>
</g>
<g>
</g>
<g>
</g>
<g>
</g>
<g>
</g>
<g>
</g>
<g>
</g>
<g>
</g>
<g>
</g>
<g>
</g>
<g>
</g>
<g>
</g>
<g>
</g>
</svg>
