<?xml version="1.0" encoding="iso-8859-1"?>
<!-- Generator: Adobe Illustrator 19.0.0, SVG Export Plug-In . SVG Version: 6.00 Build 0)  -->
<svg version="1.1" id="Capa_1" xmlns="http://www.w3.org/2000/svg" xmlns:xlink="http://www.w3.org/1999/xlink" x="0px" y="0px"
	 viewBox="0 0 218.269 218.269" style="enable-background:new 0 0 218.269 218.269;" xml:space="preserve">
<g>
	<g>
		<path d="M129.908,64.095c-0.139-1.023-0.088-6.624-0.01-7.568c0.116-1.312,0.266-5.845-2.699-9.091
			c-2.81-3.068-6.393-3.314-25.256-3.314c-1.864,0-3.375,1.511-3.375,3.375c0,1.864,1.511,3.375,3.375,3.375
			c10.533,0,19.329,0.084,20.276,1.119c0.816,0.895,1.068,2.67,0.957,3.933c-0.083,0.913-0.212,7.316,0.051,9.131
			c0.678,4.743,0.825,9.52,0.338,10.871c-0.447,1.229-0.951,2.624-5.138,2.331c-1.519-0.103-5.42-0.165-10.436-0.165
			c-3.781,0-6.486,0.134-8.461,0.233c-1.003,0.05-1.796,0.089-2.338,0.089c-0.628,0-1.162-0.044-1.632-0.135
			c-3.089-0.6-4.654-2.305-4.654-5.066c0-1.133,0.182-2.53,0.376-4.008c0.207-1.587,0.443-3.385,0.492-5.21
			c0.051-1.863-1.419-3.415-3.282-3.465c-1.848-0.056-3.415,1.418-3.465,3.282c-0.041,1.479-0.243,3.024-0.438,4.52
			c-0.223,1.702-0.433,3.311-0.433,4.883c0,6,3.877,10.48,10.118,11.692c0.899,0.174,1.853,0.259,2.918,0.259
			c0.71,0,1.576-0.043,2.673-0.098c1.905-0.095,4.513-0.225,8.126-0.225c5.744,0,8.964,0.08,9.973,0.149
			c6.229,0.432,10.14-1.779,11.948-6.769C131.216,74.616,130.345,67.145,129.908,64.095z"/>
	</g>
</g>
<g>
	<g>
		<path d="M76.72,151.873c-0.137-1.021-0.086-6.623-0.006-7.568c0.116-1.312,0.265-5.845-2.699-9.091
			c-2.014-2.199-4.995-3.312-8.861-3.312c-0.058,0-0.116,0.002-0.174,0.004c-0.069,0.004-6.932,0.356-10.851,0.356
			c-1.335,0-3.063-0.106-4.735-0.208c-4.365-0.268-7.154-0.389-9.08,0.172c-1.789,0.521-2.815,2.393-2.296,4.182
			c0.52,1.789,2.393,2.816,4.182,2.3c0.942-0.274,4.597-0.05,6.781,0.085c1.773,0.107,3.606,0.221,5.147,0.221
			c3.886,0,10.227-0.314,11.106-0.359c1.292,0.008,2.969,0.213,3.798,1.118c0.817,0.896,1.069,2.671,0.957,3.935
			c-0.083,0.914-0.211,7.316,0.051,9.13c0.678,4.743,0.825,9.521,0.337,10.871c-0.446,1.229-0.948,2.624-5.138,2.331
			c-1.522-0.104-5.423-0.165-10.436-0.165c-3.781,0-6.486,0.135-8.462,0.233c-1.003,0.049-1.796,0.088-2.338,0.088
			c-0.627,0-1.161-0.043-1.632-0.136c-3.089-0.6-4.655-2.304-4.655-5.065c0-1.133,0.183-2.529,0.376-4.008
			c0.208-1.588,0.443-3.387,0.492-5.209c0.006-0.214,0.01-0.428,0.011-0.642c0.009-1.864-1.495-3.382-3.359-3.392
			c-0.006,0-0.011,0-0.016,0c-1.856,0-3.366,1.502-3.375,3.359c-0.001,0.161-0.003,0.323-0.008,0.488
			c-0.04,1.479-0.242,3.023-0.438,4.52c-0.223,1.702-0.433,3.311-0.433,4.883c0,6,3.877,10.479,10.118,11.691
			c0.899,0.174,1.854,0.26,2.918,0.26c0.71,0,1.576-0.043,2.673-0.099c1.905-0.095,4.513-0.226,8.126-0.226
			c5.74,0,8.963,0.082,9.973,0.149c6.233,0.433,10.14-1.778,11.949-6.769C78.026,162.391,77.155,154.923,76.72,151.873z"/>
	</g>
</g>
<g>
	<g>
		<path d="M217.204,163.687c-0.518-3.959-1.053-8.053-1.164-12.105c-0.123-4.535,0.279-9.143,0.67-13.598
			c0.324-3.707,0.63-7.207,0.63-10.524c0-8.995-4.81-14.085-8.843-16.771c-4.305-2.866-9.082-3.907-11.242-3.907l-0.658,0.011
			c-14.541,0.276-26.033,0.427-32.357,0.427c-3.014,0-6.688-0.08-10.373-0.192c2.742-2.256,4.803-5.354,6.25-9.35
			c3.017-8.35,0.56-27.845-0.267-33.628c-0.454-3.133-0.259-18.369-0.057-20.593c0.247-2.819,0.581-12.54-5.55-19.253
			c-4.116-4.495-10.442-6.775-18.801-6.775c-0.059,0-0.117,0.002-0.175,0.004c-0.178,0.009-17.878,0.918-28.051,0.918
			c-2.051,0-11.676,0.039-14.254,0.039c-6.104,0-13.712-0.053-18.407-0.465c-0.663-0.058-1.333-0.088-1.991-0.088
			c-8.919,0-18.449,5.451-18.449,20.751c0,3.317,0.306,6.817,0.63,10.523c0.39,4.456,0.792,9.064,0.668,13.599
			c-0.111,4.054-0.646,8.148-1.164,12.108c-0.546,4.184-1.063,8.137-1.063,11.821c0,8.162,3.255,14.867,9.089,19.356
			c-2.95,0.079-5.812,0.131-8.243,0.131c-4.586,0-10.202-0.126-15.633-0.249c-5.205-0.117-10.12-0.228-13.983-0.228
			c-1.344,0-2.467,0.013-3.434,0.041c-12.742,0.36-20.05,7.896-20.05,20.675c0,3.318,0.306,6.818,0.63,10.524
			c0.389,4.456,0.792,9.063,0.669,13.599c-0.111,4.053-0.646,8.146-1.164,12.106C0.517,166.779,0,170.732,0,174.418
			c0,12.875,8.09,22.133,21.643,24.766c1.969,0.381,4.085,0.566,6.468,0.566c1.686,0,3.846-0.107,6.581-0.244
			c4.932-0.245,11.686-0.581,21.068-0.581c14.817,0,23.095,0.204,25.897,0.394c1.184,0.082,2.339,0.125,3.434,0.125
			c11.441,0,18.381-4.445,21.839-13.99c3.015-8.349,0.559-27.844-0.267-33.627c-0.454-3.133-0.259-18.369-0.057-20.594
			c0.248-2.818,0.582-12.539-5.55-19.253c-0.231-0.252-0.471-0.495-0.716-0.733c2.593-0.06,5.447-0.098,8.604-0.098
			c3.875,0,7.296,0.014,10.296,0.038c-0.726,0.58-1.408,1.206-2.033,1.89c-6.129,6.711-5.795,16.431-5.547,19.258
			c0.201,2.217,0.396,17.455-0.06,20.591c-0.825,5.776-3.281,25.271-0.264,33.624c3.787,10.454,11.758,14.801,25.267,13.861
			c2.809-0.19,11.088-0.394,25.902-0.394c9.382,0,25.963,0.825,27.648,0.825c2.383,0,4.5-0.186,6.472-0.567
			c13.551-2.633,21.641-11.891,21.641-24.766C218.27,171.826,217.753,167.873,217.204,163.687z M100.583,183.16
			c-1.794,4.953-4.913,9.535-15.492,9.535c-0.939,0-1.937-0.037-2.971-0.108c-2.917-0.198-11.374-0.41-26.36-0.41
			c-9.55,0-16.401,0.341-21.403,0.59c-2.641,0.131-4.728,0.235-6.246,0.235c-1.947,0-3.643-0.146-5.183-0.443
			c-4.864-0.945-16.178-4.604-16.178-18.139c0-3.245,0.489-6.986,1.007-10.947c0.54-4.128,1.098-8.396,1.218-12.798
			c0.134-4.921-0.286-9.726-0.692-14.37c-0.311-3.555-0.604-6.913-0.604-9.936c0-9.115,4.413-13.672,13.491-13.929
			c0.902-0.024,1.963-0.038,3.243-0.038c3.787,0,8.666,0.11,13.831,0.228c5.469,0.123,11.124,0.251,15.785,0.251
			c9.779,0,25.787-0.794,28.131-0.914c0.107-0.002,0.215-0.004,0.326-0.006c6.267,0.037,10.84,1.576,13.587,4.576
			c3.399,3.723,4.176,9.926,3.808,14.098c-0.207,2.279-0.467,18.251,0.099,22.154C101.2,161.316,102.696,177.308,100.583,183.16z
			 M108.947,104.398c-9.551,0-16.402,0.341-21.405,0.59c-2.047,0.102-3.756,0.187-5.131,0.22c-0.053,0-0.103-0.003-0.155-0.003
			c-0.058,0-0.116,0.002-0.174,0.004c-0.009,0-0.07,0.004-0.172,0.009c-0.214,0.003-0.418,0.005-0.613,0.005
			c-1.948,0-3.644-0.145-5.183-0.443c-4.865-0.945-16.178-4.604-16.178-18.139c0-3.245,0.489-6.986,1.007-10.946
			c0.54-4.129,1.098-8.398,1.218-12.799c0.134-4.922-0.285-9.726-0.691-14.372c-0.311-3.554-0.604-6.912-0.604-9.935
			c0-12.182,7.33-14.001,11.699-14.001c0.462,0,0.934,0.021,1.402,0.062c4.955,0.435,12.755,0.49,18.996,0.49
			c2.587,0,12.211-0.039,14.254-0.039c10.079,0,26.779-0.844,28.311-0.923c6.344,0.014,10.965,1.556,13.734,4.58
			c3.398,3.722,4.175,9.925,3.809,14.097c-0.207,2.28-0.468,18.251,0.099,22.155c1.217,8.527,2.714,24.519,0.6,30.371
			c-1.794,4.953-4.913,9.535-15.491,9.535c-0.938,0-1.937-0.036-2.972-0.108C132.387,104.61,123.93,104.398,108.947,104.398z
			 M195.343,193.65c-1.541,0.297-23.284-0.383-32.834-0.383c-14.982,0-23.441,0.212-26.365,0.41
			c-1.029,0.072-2.027,0.107-2.966,0.107c-10.579,0-13.696-4.582-15.49-9.531c-2.114-5.854-0.618-21.848,0.599-30.366
			c0.566-3.906,0.308-19.88,0.102-22.153c-0.368-4.182,0.408-10.385,3.805-14.104c2.771-3.028,7.394-4.569,13.737-4.583
			c1.531,0.079,18.229,0.923,28.31,0.923c6.459,0,17.692-0.148,32.486-0.429l0.529-0.011c0.133,0,13.335,1.478,13.335,13.928
			c0,3.023-0.294,6.381-0.604,9.936c-0.406,4.646-0.826,9.449-0.691,14.37c0.119,4.399,0.678,8.669,1.219,12.797
			c0.518,3.961,1.007,7.702,1.007,10.947C211.52,189.044,200.206,192.705,195.343,193.65z"/>
	</g>
</g>
<g>
	<g>
		<path d="M186.866,157.201c-0.194-1.496-0.396-3.043-0.437-4.521c-0.027-0.978,0.014-1.421,0.092-2.304
			c0.021-0.235,0.045-0.491,0.068-0.781c0.152-1.857-1.229-3.488-3.086-3.641c-1.859-0.154-3.488,1.229-3.641,3.086
			c-0.022,0.271-0.045,0.512-0.064,0.731c-0.086,0.962-0.155,1.72-0.117,3.093c0.051,1.824,0.285,3.623,0.493,5.211
			c0.194,1.478,0.376,2.875,0.376,4.008c0,2.761-1.566,4.466-4.654,5.065c-0.47,0.091-1.004,0.136-1.632,0.136
			c-0.542,0-1.335-0.039-2.338-0.09c-1.976-0.098-4.681-0.232-8.462-0.232c-5.016,0-8.918,0.062-10.441,0.165
			c-4.184,0.293-4.687-1.103-5.131-2.328c-0.488-1.354-0.342-6.131,0.335-10.867c0.265-1.819,0.136-8.222,0.054-9.13
			c-0.112-1.271,0.139-3.046,0.953-3.938c0.832-0.908,2.508-1.115,3.801-1.123c0.879,0.045,7.219,0.36,11.105,0.36
			c1.541,0,3.374-0.112,5.146-0.221c2.14-0.132,4.354-0.267,5.836-0.191c1.857,0.097,3.447-1.337,3.541-3.198
			c0.096-1.862-1.336-3.448-3.198-3.543c-1.86-0.095-4.267,0.054-6.593,0.195c-1.67,0.102-3.398,0.208-4.733,0.208
			c-3.919,0-10.782-0.353-10.851-0.356c-0.059-0.002-0.116-0.004-0.174-0.004c-3.867,0-6.848,1.115-8.865,3.317
			c-2.959,3.242-2.811,7.774-2.694,9.093c0.079,0.938,0.13,6.541-0.011,7.568c-0.436,3.044-1.305,10.513-0.001,14.125
			c1.807,4.986,5.717,7.199,11.942,6.766c1.012-0.068,4.233-0.149,9.978-0.149c3.612,0,6.222,0.13,8.127,0.225
			c1.097,0.056,1.964,0.099,2.673,0.099c1.064,0,2.02-0.086,2.919-0.26c6.241-1.212,10.118-5.691,10.118-11.691
			C187.3,160.511,187.09,158.902,186.866,157.201z"/>
	</g>
</g>
<g>
</g>
<g>
</g>
<g>
</g>
<g>
</g>
<g>
</g>
<g>
</g>
<g>
</g>
<g>
</g>
<g>
</g>
<g>
</g>
<g>
</g>
<g>
</g>
<g>
</g>
<g>
</g>
<g>
</g>
</svg>
