<?xml version="1.0" encoding="iso-8859-1"?>
<!-- Generator: Adobe Illustrator 19.0.0, SVG Export Plug-In . SVG Version: 6.00 Build 0)  -->
<svg version="1.1" id="Capa_1" xmlns="http://www.w3.org/2000/svg" xmlns:xlink="http://www.w3.org/1999/xlink" x="0px" y="0px"
	 viewBox="0 0 218.24 218.24" style="enable-background:new 0 0 218.24 218.24;" xml:space="preserve">
<g>
	<g>
		<path d="M218.146,132.483c-0.203-0.95-1.071-3.16-4.763-3.16h-8.238c-1.863,0-3.375,1.511-3.375,3.375
			c0,1.864,1.512,3.375,3.375,3.375h0.11c-7.46,4.102-19.829,10.073-31.118,15.13h-14.065c-1.864,0-3.375,1.511-3.375,3.375
			c0,1.864,1.511,3.375,3.375,3.375h7.717l-3.776,4.949H53.71l-3.435-4.949h88.945c1.864,0,3.375-1.511,3.375-3.375
			c0-1.864-1.511-3.375-3.375-3.375H43.848c-11.226-5.057-23.526-11.031-30.931-15.13h175.466c1.864,0,3.375-1.511,3.375-3.375
			c0-1.864-1.511-3.375-3.375-3.375H4.865c-3.693,0-4.565,2.211-4.769,3.161c-0.638,2.979,1.914,5.06,7.511,8.33
			c3.334,1.948,8.01,4.409,13.898,7.312c9.958,4.912,20.132,9.484,20.233,9.53c0.05,0.022,0.102,0.039,0.152,0.06l7.278,10.485
			c0.631,0.909,1.666,1.451,2.773,1.451h113.739c1.053,0,2.045-0.491,2.684-1.328l8.274-10.847
			c1.99-0.896,11.055-4.989,19.956-9.354c5.924-2.904,10.63-5.364,13.986-7.312C216.213,137.543,218.781,135.464,218.146,132.483z"
			/>
	</g>
</g>
<g>
	<g>
		<path d="M85.009,83.03c-8.209-10.465,3.419-24.715,3.537-24.858c1.191-1.43,1-3.555-0.428-4.749
			c-1.43-1.196-3.559-1.006-4.754,0.424c-0.154,0.184-3.8,4.583-6.13,10.72c-3.261,8.591-2.41,16.417,2.463,22.63
			c8.816,11.238-1.575,27.723-1.678,27.883c-1.012,1.565-0.564,3.655,1.002,4.667c0.567,0.366,1.201,0.541,1.829,0.541
			c1.107,0,2.192-0.544,2.837-1.543C84.228,117.908,96.806,98.073,85.009,83.03z"/>
	</g>
</g>
<g>
	<g>
		<path d="M132.453,83.03c-8.192-10.444,3.372-24.658,3.537-24.857c1.191-1.43,1.001-3.556-0.428-4.75
			c-1.43-1.196-3.559-1.006-4.754,0.424c-0.153,0.184-3.8,4.583-6.13,10.72c-3.261,8.591-2.41,16.417,2.463,22.63
			c8.817,11.238-1.576,27.723-1.677,27.883c-1.012,1.565-0.564,3.655,1.002,4.667c0.566,0.366,1.201,0.541,1.829,0.541
			c1.106,0,2.191-0.544,2.837-1.543C131.673,117.908,144.251,98.073,132.453,83.03z"/>
	</g>
</g>
<g>
	<g>
		<path d="M107.748,82.777c-9.532-11.479,3.483-28.506,3.663-28.736c1.146-1.467,0.89-3.586-0.576-4.735
			c-1.467-1.149-3.588-0.893-4.738,0.574c-0.683,0.871-16.572,21.515-3.54,37.21c12.117,14.592-0.958,31.047-1.516,31.734
			c-1.181,1.442-0.969,3.569,0.472,4.75c0.627,0.514,1.384,0.764,2.137,0.764c0.977,0,1.946-0.422,2.613-1.235
			c0.176-0.215,4.344-5.357,6.65-12.785C116.065,100.166,114.279,90.643,107.748,82.777z"/>
	</g>
</g>
<g>
</g>
<g>
</g>
<g>
</g>
<g>
</g>
<g>
</g>
<g>
</g>
<g>
</g>
<g>
</g>
<g>
</g>
<g>
</g>
<g>
</g>
<g>
</g>
<g>
</g>
<g>
</g>
<g>
</g>
</svg>
