<?xml version="1.0" encoding="iso-8859-1"?>
<!-- Generator: Adobe Illustrator 19.0.0, SVG Export Plug-In . SVG Version: 6.00 Build 0)  -->
<svg version="1.1" id="Capa_1" xmlns="http://www.w3.org/2000/svg" xmlns:xlink="http://www.w3.org/1999/xlink" x="0px" y="0px"
	 viewBox="0 0 216.37 216.37" style="enable-background:new 0 0 216.37 216.37;" xml:space="preserve">
<g>
	<g>
		<path d="M144.435,55.595c-0.063-0.032-0.127-0.061-0.191-0.089c-30.925-13.188-33.07-14.178-34.224-14.709
			c-0.536-0.247-0.921-0.424-3.194-1.394c-8.279-3.53-13.385-3.803-19.694-3.803H55.741c-6.689,0-12.13,5.231-12.13,11.66v20.745
			c0,6.429,5.441,11.659,12.13,11.659h83.602c6.008,0,11.012-4.223,11.965-9.744c0.106-0.328,0.164-0.678,0.164-1.041v-1.711
			C151.471,62.994,150.619,58.703,144.435,55.595z M144.721,68.005c0,2.707-2.414,4.909-5.379,4.909H55.741
			c-2.967,0-5.38-2.202-5.38-4.909V47.261c0-2.708,2.413-4.91,5.38-4.91h31.391c5.675,0,9.928,0.227,17.046,3.263
			c2.183,0.931,2.533,1.092,3.016,1.315c1.266,0.583,3.383,1.559,34.299,14.744c3.084,1.575,3.229,2.975,3.229,5.497V68.005z"/>
	</g>
</g>
<g>
	<g>
		<path d="M186.411,51.578c-0.051-0.039-0.1-0.076-0.152-0.113c-14.576-10.184-41.792-25.286-58.646-33.438
			c-7.806-3.774-14.067-6.248-29.4-6.248H55.404V3.375C55.402,1.511,53.892,0,52.027,0h-15.3c-1.864,0-3.375,1.511-3.375,3.375
			v8.528c-8.098,0.985-14.394,7.898-14.394,16.258v80.991c0,9.033,7.349,16.383,16.383,16.383h10.668v28.587h-3.088
			c-8.064,0-14.625,6.561-14.625,14.625v32.999c0,8.064,6.561,14.625,14.625,14.625h11.625c2.659,0,5.153-0.717,7.304-1.962
			c2.151,1.245,4.644,1.962,7.304,1.962h11.625c8.064,0,14.625-6.561,14.625-14.625v-32.999c0-8.064-6.561-14.625-14.625-14.625
			h-1.787v-28.587h102.035c9.033,0,16.384-7.35,16.384-16.383V78.457l0.001-0.993C197.427,68.998,197.445,60.245,186.411,51.578z
			 M46.008,209.62H42.92c-4.341,0.001-7.875-3.531-7.875-7.875v-32.999c0-4.342,3.532-7.875,7.875-7.875h3.088V209.62z M40.103,6.75
			h8.55v5.029h-8.55V6.75z M56.649,209.327c-0.671,0.188-1.375,0.294-2.105,0.294h-1.787v-48.749h1.787
			c0.73,0,1.433,0.108,2.105,0.295c-1.346,2.212-2.122,4.808-2.122,7.58v32.999C54.528,204.518,55.304,207.115,56.649,209.327z
			 M62.419,201.745c0,1.036-0.206,2.023-0.571,2.93c-0.365-0.906-0.571-1.895-0.571-2.93v-32.999c0-1.036,0.206-2.023,0.571-2.93
			c0.365,0.907,0.571,1.895,0.571,2.93V201.745z M72.239,209.62h-3.088c-0.729,0.001-1.432-0.107-2.104-0.294
			c1.346-2.212,2.122-4.808,2.122-7.581v-32.999c0-2.773-0.776-5.369-2.122-7.581c0.671-0.187,1.375-0.294,2.104-0.294h3.088V209.62
			z M69.152,154.121c-2.659,0-5.153,0.717-7.304,1.963c-2.151-1.244-4.645-1.963-7.304-1.963h-1.787v-28.587h19.482l0.001,28.587
			H69.152z M80.776,160.871c4.342,0,7.875,3.533,7.875,7.875v32.999c0,4.344-3.533,7.875-7.875,7.875h-1.787v-48.749H80.776z
			 M190.66,77.449l-0.001,31.702c0,5.312-4.321,9.633-9.634,9.633H35.341c-5.311,0-9.633-4.321-9.633-9.633V28.16
			c0-5.312,4.321-9.633,9.633-9.633h62.87c13.93,0,19.29,2.106,26.461,5.575c16.593,8.024,43.318,22.847,57.643,32.84
			C190.687,63.557,190.675,69.69,190.66,77.449z"/>
	</g>
</g>
<g>
</g>
<g>
</g>
<g>
</g>
<g>
</g>
<g>
</g>
<g>
</g>
<g>
</g>
<g>
</g>
<g>
</g>
<g>
</g>
<g>
</g>
<g>
</g>
<g>
</g>
<g>
</g>
<g>
</g>
</svg>
