<?xml version="1.0" encoding="iso-8859-1"?>
<!-- Generator: Adobe Illustrator 19.0.0, SVG Export Plug-In . SVG Version: 6.00 Build 0)  -->
<svg version="1.1" id="Capa_1" xmlns="http://www.w3.org/2000/svg" xmlns:xlink="http://www.w3.org/1999/xlink" x="0px" y="0px"
	 viewBox="0 0 195.039 195.039" style="enable-background:new 0 0 195.039 195.039;" xml:space="preserve">
<g>
	<g>
		<path d="M164.015,109.542c-0.603-0.615-1.415-0.973-2.272-1.009c4.957-13.653,3.297-25.034,0.87-32.404
			c-2.878-8.741-7.4-13.866-7.592-14.08c-0.625-0.7-1.516-1.108-2.453-1.126c-0.196-0.003-3.258-0.042-7.776,0.954
			c-1.888-24.104-18.7-35.009-19.456-35.487c-0.744-0.471-1.645-0.632-2.506-0.448c-0.047,0.01-0.188,0.043-0.404,0.1
			C114.83,8.885,96.099,0.627,95.287,0.277c-0.988-0.428-2.121-0.357-3.05,0.189c-0.681,0.401-15.954,9.55-22.73,26.085
			c-1.487-0.383-2.428-0.51-2.597-0.531c-0.844-0.103-1.696,0.113-2.385,0.61c-0.718,0.517-16.913,12.456-17.283,36.745
			c-3.852-0.496-6.362-0.311-6.535-0.298c-0.936,0.075-1.798,0.536-2.38,1.272c-0.181,0.229-4.474,5.732-6.803,14.805
			c-1.978,7.708-2.852,19.504,3.429,33.188c-0.52,0.016-0.812,0.032-0.834,0.033c-0.908,0.056-1.755,0.474-2.35,1.161
			c-0.595,0.688-0.887,1.587-0.811,2.493c0.051,0.594,1.333,14.713,10.044,28.986c7.888,12.923,23.496,28.255,53.272,29.093
			c-0.182,5.058,0.384,11.464,2.845,18.651c0.479,1.4,1.79,2.282,3.193,2.282c0.362,0,0.73-0.059,1.093-0.183
			c1.764-0.604,2.704-2.522,2.1-4.286c-2.197-6.42-2.646-12.131-2.457-16.528c32.016-1.392,47.719-18,55.26-31.799
			c8.21-15.023,8.649-29.648,8.665-30.264C164.996,111.073,164.65,110.194,164.015,109.542z M122.922,32.954
			c3.663,2.828,14.338,12.602,15.229,30.916c-0.492,0.188-0.991,0.387-1.495,0.599c-4.116,1.733-9.046,4.522-13.832,8.979
			c-3.04-12.671-10.222-20.958-16.256-25.931C112.733,37.538,119.99,34.024,122.922,32.954z M116.943,79.985
			c-2.424,3.132-4.29,6.272-6.271,10.592c-1.699,3.696-2.979,7.471-3.828,11.271c-4.353-2.677-7.654-4.098-7.966-4.229
			c-0.904-0.382-1.931-0.352-2.812,0.085c-0.289,0.143-3.207,1.613-7.09,4.28c-0.962-4.044-2.349-7.53-4.651-11.84
			c-2.325-4.351-4.868-7.925-7.584-10.973c0.033-0.235,0.03-0.426,0.049-0.617c1.949-18.972,14.663-27.837,18.9-30.288
			c4.465,2.365,21.237,12.838,21.237,29.901C116.954,79.206,116.943,79.985,116.943,79.985z M94.194,7.245
			c4.381,2.259,16.662,9.451,22.02,21.438c-4.337,2.437-10.105,6.912-15.141,14.9c-2.304-1.414-3.894-2.108-4.128-2.208
			c-0.875-0.372-1.867-0.356-2.732,0.041c-0.22,0.102-1.682,0.794-3.791,2.19c-4.7-6.954-9.354-11.104-14.62-14.63
			C80.593,17.438,90.466,9.815,94.194,7.245z M67.392,32.981c0.939,0.224,2.024,0.249,4.349,1.404s9.043,6.927,13.337,13.38
			c-5.542,5.008-11.977,13.248-14.351,25.664c-4.909-3.952-9.831-6.34-13.926-7.779c-0.962-0.338-1.9-0.631-2.811-0.888
			C53.793,46.33,63.983,35.937,67.392,32.981z M37.99,81.124c1.357-5.456,3.566-9.431,4.775-11.333
			c2.259,0.052,6.791,0.424,12.08,2.327c10.017,3.603,17.932,10.738,23.526,21.207c2.921,5.468,3.919,8.993,4.648,13.214
			c-3.798,3.236-7.733,7.312-10.759,12.154c-11.337-4.366-22.477-5.782-29.708-6.21c-0.003-0.005-0.005-0.01-0.007-0.015
			C36.953,101.998,35.421,91.452,37.99,81.124z M150.266,139.227c-9.572,17.343-25.825,26.763-48.324,28.025
			c0.346-1.5,0.657-2.341,0.667-2.366c0.682-1.735-0.172-3.694-1.906-4.376c-1.735-0.681-3.694,0.172-4.375,1.905
			c-0.075,0.192-0.753,1.972-1.315,4.961c-21.717-0.457-37.9-9.084-48.116-25.667c-5.448-8.843-7.747-17.813-8.659-22.638
			c6.445,0.1,20.422,1.072,34.155,6.96c1.622,0.696,3.506,0.023,4.322-1.542c5.505-10.56,16.999-17.741,20.969-19.989
			c4.098,1.997,15.974,8.442,22.119,18.688c0.907,1.515,2.831,2.072,4.409,1.279c13.281-6.674,27.213-8.504,33.684-9.005
			C157.26,120.454,155.438,129.857,150.266,139.227z M154.304,109c-7.188,0.773-18.741,2.803-30.406,8.135
			c-3.176-4.466-7.146-8.172-10.982-11.115c0.686-4.277,1.956-8.417,3.892-12.626c4.943-10.785,12.411-18.385,22.191-22.588
			c5.171-2.222,9.68-2.869,11.925-3.056C154.056,72.065,163.445,87.651,154.304,109z"/>
	</g>
</g>
<g>
</g>
<g>
</g>
<g>
</g>
<g>
</g>
<g>
</g>
<g>
</g>
<g>
</g>
<g>
</g>
<g>
</g>
<g>
</g>
<g>
</g>
<g>
</g>
<g>
</g>
<g>
</g>
<g>
</g>
</svg>
