<?xml version="1.0" encoding="iso-8859-1"?>
<!-- Generator: Adobe Illustrator 19.0.0, SVG Export Plug-In . SVG Version: 6.00 Build 0)  -->
<svg version="1.1" id="Capa_1" xmlns="http://www.w3.org/2000/svg" xmlns:xlink="http://www.w3.org/1999/xlink" x="0px" y="0px"
	 viewBox="0 0 216.23 216.23" style="enable-background:new 0 0 216.23 216.23;" xml:space="preserve">
<g>
	<g>
		<path d="M215.72,24.672c-1.479-4.439-4.645-6.884-8.912-6.884c-1.49,0-2.919,0.295-4.164,0.641
			c0.073-2.701-0.185-6.199-2.519-8.677c-1.644-1.745-3.941-2.631-6.825-2.631c-2.733,0-5.015,1.042-6.598,3.011
			c-1.968,2.45-2.723,6.23-2.262,11.277c-1.78-0.457-3.581-0.692-5.36-0.692c-7.968,0-15.291,3.996-19.588,10.691
			c-11.331,17.678-30.479,28.338-51.378,28.675c-20.899-0.337-40.047-10.997-51.377-28.675c-4.298-6.695-11.62-10.691-19.588-10.691
			c-1.779,0-3.58,0.235-5.36,0.692c0.461-5.047-0.294-8.828-2.262-11.277c-1.583-1.97-3.864-3.011-6.598-3.011
			c-2.884,0-5.181,0.885-6.825,2.631c-2.335,2.479-2.593,5.977-2.519,8.677c-1.245-0.345-2.673-0.641-4.164-0.641
			c-4.267,0-7.432,2.445-8.912,6.884c-0.869,2.608-0.624,5.155,0.708,7.364c2.626,4.354,8.995,6.306,13.24,7.213
			c-1.229,5.904-0.136,12.124,3.148,17.257c15.166,23.665,38.368,40.131,64.826,46.792v23.87c0,11.463,8.807,19.182,22.743,20.323
			v28.528c-2.439,0.037-3.768,0.076-3.793,0.076c-1.633,0.049-2.997,1.258-3.239,2.875c-1.034,6.905-2.299,16.77-3.384,26.388
			c-0.209,1.852,1.123,3.522,2.975,3.731c1.852,0.207,3.523-1.123,3.732-2.975c0.936-8.298,2.006-16.771,2.941-23.331
			c0.991-0.017,2.238-0.035,3.707-0.049c1.469,0.014,2.716,0.032,3.707,0.049c0.936,6.56,2.005,15.034,2.94,23.331
			c0.209,1.852,1.88,3.182,3.732,2.975c1.852-0.209,3.184-1.88,2.975-3.731c-1.085-9.618-2.35-19.483-3.384-26.388
			c-0.242-1.617-1.606-2.828-3.239-2.875c-0.024,0-1.354-0.039-3.793-0.076V147.49c13.937-1.142,22.743-8.86,22.743-20.323v-23.87
			c26.459-6.661,49.661-23.128,64.826-46.792c3.284-5.134,4.376-11.354,3.147-17.257c4.246-0.907,10.614-2.859,13.24-7.213
			C216.344,29.827,216.589,27.28,215.72,24.672z M136.552,60.272L136.552,60.272c2.899-1.368,5.695-2.943,8.375-4.705v9.547
			c0,2.109-1.878,3.825-4.187,3.825c-2.31,0-4.188-1.716-4.188-3.825V60.272z M103.936,66.648c1.385,0.103,2.779,0.168,4.179,0.191
			c1.399-0.023,2.794-0.088,4.179-0.191v5.89c0,2.107-1.874,3.821-4.179,3.825c-2.305-0.004-4.179-1.718-4.179-3.825V66.648z
			 M71.303,55.567c2.68,1.762,5.476,3.336,8.374,4.705v4.842c0,2.109-1.878,3.825-4.187,3.825c-2.309,0-4.187-1.716-4.187-3.825
			V55.567z M108.115,140.883c-9.054-0.176-18.443-3.675-18.909-12.987h37.818C126.558,137.208,117.169,140.707,108.115,140.883z
			 M89.183,121.145v-16.377c2.477,0.459,4.977,0.833,7.498,1.12v15.147L89.183,121.145z M103.431,120.936v-14.49
			c1.555,0.08,3.118,0.121,4.684,0.136c1.566-0.015,3.129-0.056,4.684-0.136v14.49H103.431z M127.047,121.145l-7.498-0.11v-15.147
			c2.521-0.286,5.021-0.661,7.498-1.12V121.145z M209.232,28.55c-0.541,0.897-2.76,3.144-11.637,4.609
			c-0.504,0.083-0.757,0.125-1.014,0.194c-0.929,0.252-1.706,0.889-2.135,1.75c-0.431,0.861-0.473,1.864-0.115,2.758
			c2.003,5.021,1.496,10.49-1.392,15.006c-18.669,29.13-50.32,46.634-84.824,46.972c-34.503-0.339-66.154-17.843-84.823-46.972
			c-2.888-4.516-3.395-9.984-1.392-15.006c0.357-0.894,0.315-1.897-0.115-2.758c-0.43-0.861-1.207-1.498-2.135-1.75
			c-0.257-0.069-0.51-0.111-1.014-0.194C9.759,31.694,7.541,29.447,7,28.55c-0.223-0.369-0.387-0.836-0.084-1.743
			c0.756-2.269,1.728-2.269,2.508-2.269c1.212,0,2.694,0.479,3.884,0.864c1.199,0.388,2.145,0.694,3.143,0.694h0.001
			c1.091,0,2.089-0.398,2.81-1.119c1.375-1.375,1.269-3.159,1.145-5.223c-0.093-1.552-0.265-4.442,0.612-5.373
			c0.396-0.421,1.258-0.51,1.912-0.51c0.943,0,1.198,0.318,1.336,0.49c0.328,0.409,1.873,2.874,0.014,11.294
			c-0.075,0.34-0.112,0.511-0.138,0.724c-0.148,1.264,0.427,2.503,1.487,3.206s2.425,0.75,3.532,0.121
			c2.578-1.464,5.34-2.239,7.988-2.239c5.659,0,10.858,2.836,13.907,7.585c3.775,5.89,8.339,11.072,13.498,15.457v14.605
			c0,5.831,4.906,10.575,10.937,10.575c6.03,0,10.937-4.743,10.937-10.575v-2.09c3.485,1.211,7.081,2.145,10.759,2.786v6.727
			c0,5.829,4.902,10.571,10.929,10.575c6.026-0.004,10.929-4.746,10.929-10.575V65.81c3.678-0.642,7.273-1.575,10.759-2.786v2.09
			c0,5.831,4.906,10.575,10.938,10.575c6.032,0,10.937-4.743,10.937-10.575V50.509c5.159-4.386,9.724-9.567,13.498-15.457
			c3.049-4.749,8.248-7.585,13.907-7.585c2.648,0,5.41,0.774,7.988,2.239c1.106,0.628,2.472,0.582,3.531-0.121
			c1.061-0.703,1.636-1.942,1.487-3.206c-0.024-0.214-0.062-0.384-0.137-0.724c-1.858-8.42-0.314-10.885,0.014-11.294
			c0.137-0.171,0.394-0.49,1.336-0.49c0.653,0,1.516,0.089,1.912,0.51c0.877,0.931,0.704,3.821,0.612,5.373
			c-0.123,2.064-0.23,3.848,1.145,5.223c0.722,0.721,1.72,1.119,2.811,1.119h0.001c0.998,0,1.943-0.306,3.143-0.694
			c1.191-0.385,2.673-0.864,3.884-0.864c0.78,0,1.753,0,2.509,2.269C209.618,27.714,209.454,28.181,209.232,28.55z"/>
	</g>
</g>
<g>
</g>
<g>
</g>
<g>
</g>
<g>
</g>
<g>
</g>
<g>
</g>
<g>
</g>
<g>
</g>
<g>
</g>
<g>
</g>
<g>
</g>
<g>
</g>
<g>
</g>
<g>
</g>
<g>
</g>
</svg>
