<?xml version="1.0" encoding="iso-8859-1"?>
<!-- Generator: Adobe Illustrator 19.0.0, SVG Export Plug-In . SVG Version: 6.00 Build 0)  -->
<svg version="1.1" id="Capa_1" xmlns="http://www.w3.org/2000/svg" xmlns:xlink="http://www.w3.org/1999/xlink" x="0px" y="0px"
	 viewBox="0 0 208.12 208.12" style="enable-background:new 0 0 208.12 208.12;" xml:space="preserve">
<g>
	<g>
		<path d="M174.388,3.204l-51.694-3.197c-1.418-0.09-2.743,0.725-3.307,2.032l-1.304,3.023L96.491,53.765H58.776
			c-1.557,0-2.912,1.065-3.279,2.577L44.29,102.429H33.941c-1.864,0-3.375,1.511-3.375,3.375v15.021
			c0,1.864,1.511,3.375,3.375,3.375h8.757l10.115,80.963c0.211,1.689,1.647,2.957,3.349,2.957h0.002l71.888-0.052
			c1.661-0.001,3.075-1.212,3.332-2.854l12.661-81.012h8.85c1.864,0,3.375-1.512,3.375-3.375v-15.021
			c0-1.864-1.511-3.375-3.375-3.375h-10.218l-8.699-45.917c-0.302-1.593-1.694-2.747-3.315-2.747h-15.431
			c3.626-8.459,12.591-29.379,15.821-36.933c10.042,0.54,42.253,2.894,42.608,2.92c0.922,0.063,1.826-0.244,2.51-0.863
			c0.685-0.618,1.086-1.489,1.111-2.41l0.27-9.813C177.604,4.846,176.204,3.315,174.388,3.204z M149.523,109.178v8.271h-17.466
			c-1.864,0-3.375,1.512-3.375,3.375c0,1.864,1.511,3.375,3.375,3.375h5.159l-12.053,77.118l-66.021,0.049l-9.64-77.167h57.412
			c1.864,0,3.375-1.511,3.375-3.375c0-1.863-1.511-3.375-3.375-3.375H37.316v-8.271H149.523z M127.869,60.513l7.884,41.614H51.31
			l10.119-41.614H127.869z M170.632,12.763c-9.83-0.712-36.854-2.65-41.671-2.782c-1.383-0.045-2.654,0.775-3.198,2.051
			c-1.935,4.541-14.562,33.835-17.955,41.75l-3.983-0.034l20.44-45.982l0.378-0.876l46.071,2.848L170.632,12.763z"/>
	</g>
</g>
<g>
</g>
<g>
</g>
<g>
</g>
<g>
</g>
<g>
</g>
<g>
</g>
<g>
</g>
<g>
</g>
<g>
</g>
<g>
</g>
<g>
</g>
<g>
</g>
<g>
</g>
<g>
</g>
<g>
</g>
</svg>
