<?xml version="1.0" encoding="iso-8859-1"?>
<!-- Generator: Adobe Illustrator 19.0.0, SVG Export Plug-In . SVG Version: 6.00 Build 0)  -->
<svg version="1.1" id="Capa_1" xmlns="http://www.w3.org/2000/svg" xmlns:xlink="http://www.w3.org/1999/xlink" x="0px" y="0px"
	 viewBox="0 0 181.092 181.092" style="enable-background:new 0 0 181.092 181.092;" xml:space="preserve">
<g>
	<g>
		<path d="M164.074,32.552c-7.442-8.973-17.94-11.155-25.437-11.406c-11.756-0.382-20.234,4.47-24.646,7.827
			c-2.263-1.635-4.031-2.343-4.621-2.552l-0.379-9.29c-0.001-0.023-0.002-0.046-0.004-0.069C108.81,14.214,107.497,0,98.787,0
			H84.274C75.563,0,74.25,14.213,74.075,17.063c-0.001,0.023-0.003,0.047-0.003,0.07l-0.379,9.345
			c-0.834,0.313-3.019,1.261-5.658,3.409c-3.815-2.935-11.811-7.785-22.983-7.785c-1.312,0-2.651,0.067-3.978,0.2
			c-10.091,1.008-18.812,5.734-24.557,13.307c-7.156,9.433-9.485,22.726-6.735,38.445c6.438,36.794,16.62,74.859,16.919,75.973
			c0.15,0.584,2.012,7.566,6.778,14.755c6.645,10.021,15.749,15.629,26.326,16.218c1.114,0.062,2.205,0.094,3.244,0.094
			c5.907,0,10.586-0.959,15.173-3.107c0.24-0.112,0.462-0.252,0.665-0.414c3.251,1.545,7.048,2.398,11.506,2.398
			c4.468,0,8.521-0.876,12.149-2.596c0.296,0.266,0.637,0.484,1.019,0.632c4.767,1.867,10.306,2.819,17.429,2.997
			c0.259,0.006,0.519,0.01,0.773,0.01h0.001c10.475,0,19.47-5.465,26.013-15.803c4.526-7.154,6.361-14.245,6.59-15.174
			c0.562-1.952,11.308-39.5,16.932-76.049C174.113,55.666,171.683,41.728,164.074,32.552z M80.815,17.447
			c0.022-0.319,0.243-3.285,1.056-6.227c0.925-3.346,2.038-4.472,2.404-4.472h14.513c1.072,0,3.087,4.893,3.46,10.695l0.263,6.441
			c-3.643-0.799-7.35-1.203-11.07-1.203c-4.184,0-7.878,0.511-10.884,1.161L80.815,17.447z M63.049,174.338
			c-0.915,0-1.88-0.028-2.868-0.083c-20.368-1.134-26.881-25.672-26.943-25.914c-0.004-0.018-0.009-0.034-0.013-0.052
			c-0.103-0.381-10.346-38.552-16.794-75.402c-2.418-13.822-0.529-25.302,5.463-33.201c4.598-6.061,11.648-9.85,19.85-10.67
			c1.106-0.111,2.218-0.167,3.307-0.167c7.921,0,13.878,2.951,17.363,5.298c-6.118,9.22-9.217,21.74-9.217,37.281
			c0,3.037,0.121,6.216,0.361,9.451c0.725,9.803,2.934,39.632,4.739,52.468c1.992,14.17,4.789,29.811,12.651,40.118
			C68.902,173.981,66.36,174.338,63.049,174.338z M90.39,173.214c-14.538,0.001-20.917-10.477-25.282-41.521
			c-1.75-12.451-3.935-41.985-4.653-51.692c-1.581-21.336,2.826-33.079,6.801-39.173c4.192-6.426,8.649-7.982,8.86-8.053
			l0.165-0.055c0.128-0.043,0.254-0.094,0.375-0.152l0.19-0.09c0.06-0.028,6.078-2.827,14.718-2.827
			c5.203,0,10.297,1.003,15.174,2.993l0.083,0.033c0.048,0.019,0.096,0.037,0.145,0.054l0.105,0.036
			c0.008,0.003,0.04,0.013,0.048,0.016c0.188,0.062,4.646,1.619,8.838,8.045c3.976,6.094,8.382,17.836,6.801,39.174
			c-0.718,9.706-2.902,39.241-4.652,51.691c-2.105,14.968-5.421,25.523-10.14,32.271C103.553,170.276,97.969,173.214,90.39,173.214z
			 M164.622,72.956c-5.678,36.902-16.654,74.892-16.764,75.27c-0.016,0.053-0.031,0.11-0.044,0.164
			c-0.062,0.258-6.39,25.869-26.055,25.868c-0.198,0-0.401-0.003-0.604-0.008c-3.879-0.096-7.19-0.438-10.097-1.05
			c8.732-10.688,11.997-26.635,13.856-39.853c1.794-12.757,4.001-42.524,4.728-52.306l0.012-0.163
			c1.849-24.952-3.774-39.573-9.664-47.882c3.933-2.552,10.198-5.388,18.422-5.105c6.113,0.204,14.626,1.926,20.466,8.968
			C165.202,44.486,167.134,56.63,164.622,72.956z"/>
	</g>
</g>
<g>
</g>
<g>
</g>
<g>
</g>
<g>
</g>
<g>
</g>
<g>
</g>
<g>
</g>
<g>
</g>
<g>
</g>
<g>
</g>
<g>
</g>
<g>
</g>
<g>
</g>
<g>
</g>
<g>
</g>
</svg>
