<?xml version="1.0" encoding="iso-8859-1"?>
<!-- Generator: Adobe Illustrator 19.0.0, SVG Export Plug-In . SVG Version: 6.00 Build 0)  -->
<svg version="1.1" id="Capa_1" xmlns="http://www.w3.org/2000/svg" xmlns:xlink="http://www.w3.org/1999/xlink" x="0px" y="0px"
	 viewBox="0 0 166.46 166.46" style="enable-background:new 0 0 166.46 166.46;" xml:space="preserve">
<g>
	<g>
		<path d="M70.764,48.35c-5.136,0-9.16,5.041-9.16,11.475c0,6.435,4.024,11.475,9.16,11.475c5.137,0,9.16-5.041,9.16-11.475
			C79.924,53.391,75.901,48.35,70.764,48.35z M70.766,64.55c-0.959,0-2.41-1.884-2.41-4.725s1.451-4.725,2.41-4.725
			c0.959,0,2.41,1.884,2.41,4.725C73.174,62.666,71.725,64.55,70.766,64.55z"/>
	</g>
</g>
<g>
	<g>
		<path d="M58.456,78.946c-5.136,0-9.16,5.041-9.16,11.475c0,6.436,4.023,11.475,9.16,11.475c5.136,0,9.16-5.039,9.16-11.475
			C67.616,83.988,63.591,78.946,58.456,78.946z M58.456,95.147c-0.959,0-2.41-1.883-2.41-4.725c0-2.841,1.45-4.725,2.41-4.725
			s2.41,1.884,2.41,4.725C60.866,93.264,59.415,95.147,58.456,95.147z"/>
	</g>
</g>
<g>
	<g>
		<path d="M83.23,78.955c-4.995,0.19-8.864,5.155-8.864,11.466s3.87,11.275,8.864,11.467c4.994-0.191,8.864-5.156,8.864-11.467
			S88.224,79.145,83.23,78.955z M83.23,95.088c-0.935-0.324-2.114-2.104-2.114-4.666c0-2.562,1.178-4.34,2.114-4.666
			c0.935,0.325,2.114,2.104,2.114,4.666C85.344,92.984,84.165,94.764,83.23,95.088z"/>
	</g>
</g>
<g>
	<g>
		<path d="M57.621,109.413c-5.136,0-9.16,5.041-9.16,11.476c0,6.434,4.023,11.475,9.16,11.475c5.136,0,9.16-5.041,9.16-11.475
			C66.78,114.453,62.757,109.413,57.621,109.413z M57.621,125.613c-0.959,0-2.41-1.885-2.41-4.725c0-2.842,1.45-4.726,2.41-4.726
			c0.959,0,2.41,1.884,2.41,4.726C60.03,123.729,58.581,125.613,57.621,125.613z"/>
	</g>
</g>
<g>
	<g>
		<path d="M144.86,144.261h-9.138L119.243,27.992c-0.234-1.66-1.654-2.896-3.33-2.901l-8.455-0.027l-1.586-21.931
			C105.744,1.367,104.274,0,102.506,0H83.23H63.955c-1.769,0-3.239,1.367-3.366,3.132l-1.586,21.931l-8.454,0.027
			c-1.677,0.005-3.096,1.241-3.331,2.901l-16.48,116.269h-9.138c-1.864,0-3.375,1.512-3.375,3.375v15.449
			c0,1.863,1.511,3.375,3.375,3.375H83.23h61.631c1.864,0,3.375-1.512,3.375-3.375v-15.449
			C148.235,145.773,146.725,144.261,144.86,144.261z M67.095,6.749H83.23h16.135l1.323,18.292H65.771L67.095,6.749z
			 M141.485,159.709H24.974v-8.699l73.094,0.005c1.864,0,3.375-1.512,3.375-3.375c0-1.865-1.511-3.375-3.375-3.375l-60.513-0.005
			L53.488,31.832h59.481l15.934,112.429l-6.198,0.004c-1.865,0-3.375,1.512-3.375,3.375c0,1.864,1.51,3.375,3.375,3.375h18.779
			V159.709z"/>
	</g>
</g>
<g>
	<g>
		<path d="M95.694,48.35c-5.136,0-9.16,5.041-9.16,11.475c0,6.435,4.023,11.475,9.16,11.475s9.16-5.041,9.16-11.475
			C104.854,53.391,100.831,48.35,95.694,48.35z M95.693,64.55c-0.959,0-2.41-1.884-2.41-4.725s1.45-4.725,2.41-4.725
			c0.959,0,2.41,1.884,2.41,4.725C98.104,62.666,96.652,64.55,95.693,64.55z"/>
	</g>
</g>
<g>
	<g>
		<path d="M108.004,78.946c-5.137,0-9.16,5.041-9.16,11.475c0,6.435,4.023,11.475,9.16,11.475c5.136,0,9.16-5.039,9.16-11.475
			C117.165,83.988,113.142,78.946,108.004,78.946z M108.004,95.147c-0.961,0-2.41-1.883-2.41-4.725c0-2.84,1.451-4.725,2.41-4.725
			c0.959,0,2.41,1.884,2.41,4.725C110.414,93.264,108.963,95.147,108.004,95.147z"/>
	</g>
</g>
<g>
	<g>
		<path d="M83.543,109.413c-0.105,0-0.21,0.005-0.314,0.01c-0.105-0.004-0.209-0.01-0.314-0.01c-5.136,0-9.16,5.041-9.16,11.476
			c0,6.434,4.024,11.475,9.16,11.475c0.105,0,0.21-0.006,0.314-0.01c0.105,0.004,0.209,0.01,0.314,0.01
			c5.136,0,9.16-5.041,9.16-11.475C92.703,114.453,88.681,109.413,83.543,109.413z M83.543,125.613c-0.1,0-0.206-0.025-0.314-0.065
			c-0.108,0.04-0.214,0.065-0.314,0.065c-0.959,0-2.41-1.885-2.41-4.725c0-2.842,1.451-4.726,2.41-4.726
			c0.1,0,0.206,0.024,0.314,0.065c0.108-0.041,0.214-0.065,0.314-0.065c0.958,0,2.41,1.884,2.41,4.726
			C85.953,123.729,84.502,125.613,83.543,125.613z"/>
	</g>
</g>
<g>
	<g>
		<path d="M108.838,109.413c-5.135,0-9.159,5.041-9.159,11.476c0,6.434,4.024,11.475,9.159,11.475c5.137,0,9.16-5.041,9.16-11.475
			C117.999,114.453,113.976,109.413,108.838,109.413z M108.838,125.613c-0.959,0-2.409-1.885-2.409-4.725
			c0-2.842,1.45-4.726,2.409-4.726c0.959,0,2.41,1.884,2.41,4.726C111.249,123.729,109.797,125.613,108.838,125.613z"/>
	</g>
</g>
<g>
</g>
<g>
</g>
<g>
</g>
<g>
</g>
<g>
</g>
<g>
</g>
<g>
</g>
<g>
</g>
<g>
</g>
<g>
</g>
<g>
</g>
<g>
</g>
<g>
</g>
<g>
</g>
<g>
</g>
</svg>
