<?xml version="1.0" encoding="iso-8859-1"?>
<!-- Generator: Adobe Illustrator 19.0.0, SVG Export Plug-In . SVG Version: 6.00 Build 0)  -->
<svg version="1.1" id="Capa_1" xmlns="http://www.w3.org/2000/svg" xmlns:xlink="http://www.w3.org/1999/xlink" x="0px" y="0px"
	 viewBox="0 0 204.53 204.53" style="enable-background:new 0 0 204.53 204.53;" xml:space="preserve">
<g>
	<g>
		<path d="M136.233,56.623c-0.459-1.378-1.749-2.307-3.201-2.308h-0.002c-1.659,0-3.147,0.676-4.538,2.248
			c-1.26-12.146-3.512-23.767-6.5-33.176C117.065,7.868,110.869,0,103.577,0c-6.87,0-13.321,8.294-19.173,24.652
			c-3.437,9.606-6.32,21.224-8.062,32.169c-1.374-1.698-2.92-2.505-4.735-2.505h-0.002c-1.452,0-2.742,0.93-3.201,2.308
			c-8.873,26.619-13.323,49.931-13.227,69.283c0.078,15.674,3.118,28.843,9.037,39.143c7.418,12.908,17.36,17.873,22.054,19.588
			l0.247,16.567c0.027,1.845,1.53,3.325,3.374,3.325h23.831c1.817,0,3.31-1.441,3.373-3.258l0.548-16.641
			c4.741-1.75,15.029-6.209,22.642-19.595c5.926-10.422,8.979-23.668,9.07-39.37C149.466,106.309,145.052,83.08,136.233,56.623z
			 M90.759,26.925c5.698-15.927,10.738-20.176,12.818-20.176c2.791,0,7.604,4.892,11.982,18.679
			c3.905,12.298,6.507,28.617,7.16,44.843c-2.338,8.859-4.697,22.021-7.536,40.966c-4.482,29.896-11.087,41.042-13.378,43.32
			c-2.291-2.277-8.896-13.424-13.378-43.32c-0.339-2.265-0.682-4.597-1.029-6.96c-2.263-15.406-3.94-26.239-5.909-34.258
			C81.717,68.131,86.344,39.262,90.759,26.925z M134.543,161.471c-8.438,15.026-20.425,17.182-20.912,17.295
			c-1.508,0.328-2.601,1.638-2.653,3.18l-0.518,15.832H93.215l-0.234-15.694c-0.024-1.579-1.139-2.93-2.685-3.253
			c-0.118-0.025-11.889-2.631-20.23-17.145c-8.243-14.344-14.22-42.733,2.83-97.024c0.814,2.226,1.833,5.737,2.987,11.267
			c1.785,8.559,3.336,19.118,4.837,29.329c0.348,2.371,0.692,4.709,1.032,6.98c3.416,22.781,10.717,49.388,20.053,49.388
			s16.637-26.604,20.053-49.388c1.616-10.783,3.525-23.136,5.72-33.28c1.632-7.543,3.037-11.957,4.089-14.53
			C148.632,118.368,142.713,146.92,134.543,161.471z"/>
	</g>
</g>
<g>
	<g>
		<path d="M94.256,41.634c-1.864,0-3.375,1.511-3.375,3.375v1.734c0,1.864,1.511,3.375,3.375,3.375c1.864,0,3.375-1.511,3.375-3.375
			v-1.734C97.631,43.145,96.12,41.634,94.256,41.634z"/>
	</g>
</g>
<g>
	<g>
		<path d="M108.356,60.256c-1.864,0-3.375,1.511-3.375,3.375v1.735c0,1.864,1.511,3.375,3.375,3.375
			c1.864,0,3.375-1.511,3.375-3.375v-1.735C111.731,61.767,110.22,60.256,108.356,60.256z"/>
	</g>
</g>
<g>
	<g>
		<path d="M113.156,38.164c-1.864,0-3.375,1.511-3.375,3.375v1.735c0,1.864,1.511,3.375,3.375,3.375
			c1.864,0,3.375-1.511,3.375-3.375v-1.735C116.531,39.675,115.02,38.164,113.156,38.164z"/>
	</g>
</g>
<g>
	<g>
		<path d="M110.753,86.657c-1.863,0-3.375,1.511-3.375,3.375v1.735c0,1.864,1.512,3.375,3.375,3.375
			c1.864,0,3.375-1.511,3.375-3.375v-1.735C114.128,88.168,112.618,86.657,110.753,86.657z"/>
	</g>
</g>
<g>
	<g>
		<path d="M101.605,126.633c-1.863,0-3.375,1.512-3.375,3.375v1.734c0,1.863,1.511,3.375,3.375,3.375
			c1.865,0,3.375-1.512,3.375-3.375v-1.734C104.98,128.145,103.469,126.633,101.605,126.633z"/>
	</g>
</g>
<g>
	<g>
		<path d="M97.855,101.732c-1.863,0.001-3.375,1.512-3.375,3.375v1.736c0,1.863,1.511,3.375,3.375,3.375
			c1.864,0,3.375-1.512,3.375-3.375v-1.736C101.23,103.244,99.719,101.732,97.855,101.732z"/>
	</g>
</g>
<g>
	<g>
		<path d="M105.656,18.855c-1.864,0-3.375,1.511-3.375,3.375v1.735c0,1.864,1.511,3.375,3.375,3.375s3.375-1.511,3.375-3.375V22.23
			C109.031,20.366,107.52,18.855,105.656,18.855z"/>
	</g>
</g>
<g>
	<g>
		<path d="M94.256,73.466c-1.864,0-3.375,1.511-3.375,3.375v1.735c0,1.864,1.511,3.375,3.375,3.375c1.864,0,3.375-1.511,3.375-3.375
			v-1.735C97.631,74.977,96.12,73.466,94.256,73.466z"/>
	</g>
</g>
<g>
</g>
<g>
</g>
<g>
</g>
<g>
</g>
<g>
</g>
<g>
</g>
<g>
</g>
<g>
</g>
<g>
</g>
<g>
</g>
<g>
</g>
<g>
</g>
<g>
</g>
<g>
</g>
<g>
</g>
</svg>
