<?xml version="1.0" encoding="iso-8859-1"?>
<!-- Generator: Adobe Illustrator 19.0.0, SVG Export Plug-In . SVG Version: 6.00 Build 0)  -->
<svg version="1.1" id="Capa_1" xmlns="http://www.w3.org/2000/svg" xmlns:xlink="http://www.w3.org/1999/xlink" x="0px" y="0px"
	 viewBox="0 0 190.189 190.189" style="enable-background:new 0 0 190.189 190.189;" xml:space="preserve">
<g>
	<g>
		<path d="M186.891,149.823h-9.221c-0.814-24.916-10.883-45.081-28.883-58.41c0.006-1.255,0.045-2.71,0.091-4.386
			c0.37-13.376,1.059-38.277-14.238-54.004c-9.029-9.282-22.313-13.989-39.48-13.989c-0.021,0-0.042,0.001-0.064,0.001
			c-0.022,0-0.043-0.001-0.064-0.001c-17.168,0-30.451,4.707-39.48,13.989C40.253,48.75,40.942,73.65,41.312,87.026
			c0.046,1.676,0.086,3.131,0.091,4.386c-6.587,4.677-15.832,14.388-20.913,25.182c-6.351,13.492-7.809,28.333-7.969,33.23H3.3
			c-1.823,0-3.3,1.478-3.3,3.3v14.73c0,1.824,1.477,3.302,3.3,3.302h183.588c1.823,0,3.301-1.478,3.301-3.302v-14.73
			C190.192,151.299,188.713,149.823,186.891,149.823z M60.284,37.625c7.739-7.957,19.429-11.99,34.748-11.99
			c0.022,0,0.043,0.002,0.064,0.002c0.022,0,0.042-0.002,0.064-0.002c15.318,0,27.009,4.034,34.748,11.99
			c13.354,13.729,12.716,36.815,12.372,49.218c-0.002,0.087-0.005,0.166-0.008,0.251c-3.467-2.194-10.023-5.039-10.576-5.268
			c-5.586-2.32-14.354-5.963-26.901-7.035V70.31c3.084-2.738,4.881-6.677,4.881-10.852c0-8.003-6.512-14.515-14.516-14.515
			c-0.022,0-0.043,0.002-0.064,0.002c-0.022,0-0.043-0.002-0.065-0.002c-8.003,0-14.514,6.512-14.514,14.515
			c0,4.175,1.796,8.114,4.879,10.852v4.481c-12.547,1.073-21.416,4.482-26.901,7.035c-2.586,1.204-7.756,3.598-10.577,5.268
			c-0.002-0.085-0.005-0.164-0.007-0.251C47.568,74.44,46.93,51.354,60.284,37.625z M90.564,65.988
			c-2.158-1.481-3.446-3.922-3.446-6.53c0-4.364,3.55-7.914,7.913-7.914c0.021,0,0.043,0.004,0.065,0.004
			c0.022,0,0.043-0.004,0.064-0.004c4.364,0,7.913,3.55,7.913,7.914c0,2.608-1.288,5.049-3.446,6.53
			c-0.896,0.615-1.433,1.633-1.433,2.721v5.781c-0.226-0.002-2.534-0.268-6.196,0v-5.781C91.998,67.621,91.461,66.603,90.564,65.988
			z M92.675,81.085c0.796,0,4.043,0,4.84,0c9.871,0,17.506,1.737,23.442,3.7c-6.014,1.724-15.207,3.711-25.863,3.811
			c-10.655-0.101-19.849-2.088-25.862-3.811C75.17,82.822,82.805,81.085,92.675,81.085z M183.591,164.553h-0.001H6.602v-8.129h9.163
			h121.802c1.822,0,3.301-1.478,3.301-3.302c0-1.823-1.479-3.3-3.301-3.3H19.123c0.722-20.895,8.647-47.298,40.333-61.25
			c0.052-0.021,0.108-0.044,0.16-0.065c2.015,0.827,10.263,4.004,21.907,5.688c3.947,0.57,8.544,0.991,13.573,1.024
			c5.029-0.033,9.625-0.455,13.573-1.024c11.645-1.684,19.893-4.862,21.906-5.688c0.053,0.021,0.107,0.044,0.16,0.065
			c31.687,13.953,39.61,40.355,40.333,61.25l-7.1-0.001c-1.822,0-3.299,1.478-3.299,3.301c0,1.823,1.477,3.3,3.299,3.3h19.621
			V164.553z"/>
	</g>
</g>
<g>
</g>
<g>
</g>
<g>
</g>
<g>
</g>
<g>
</g>
<g>
</g>
<g>
</g>
<g>
</g>
<g>
</g>
<g>
</g>
<g>
</g>
<g>
</g>
<g>
</g>
<g>
</g>
<g>
</g>
</svg>
