<?xml version="1.0" encoding="iso-8859-1"?>
<!-- Generator: Adobe Illustrator 19.0.0, SVG Export Plug-In . SVG Version: 6.00 Build 0)  -->
<svg version="1.1" id="Capa_1" xmlns="http://www.w3.org/2000/svg" xmlns:xlink="http://www.w3.org/1999/xlink" x="0px" y="0px"
	 viewBox="0 0 204.649 204.649" style="enable-background:new 0 0 204.649 204.649;" xml:space="preserve">
<g>
	<g>
		<path d="M194.066,108.881c-6.663-14.4-18.784-28.336-34.13-39.237c-18.26-12.973-35.462-20.279-63.662-23.803
			c-2.742-0.344-6.268-0.873-9.689-0.873c-13.546,0-23.821,9.581-27.907,14.093c-4.669-2.408-9.18-3.626-13.441-3.626
			c-11.526,0-18.016,8.562-20.702,13.238c-3.493-1.117-9.62-2.039-13.936,4.729c-3.756,5.891-1.116,12.884,1.156,17.013
			c-6.116,3.14-9.562,7.079-10.258,11.741c-1.082,7.238,4.92,13.232,7.546,15.471c-6.014,14-8.235,28.376-9.032,38.114
			c-0.077,0.939,0.243,1.869,0.882,2.562c0.639,0.693,1.539,1.088,2.482,1.088c0,0,189.208,0.284,190.125,0.284
			c4.19,0,5.61,0.258,8.808-3.978C208.836,147.045,200.282,122.315,194.066,108.881z M7.085,152.643
			c1.024-9.324,3.385-21.774,8.757-33.717c0.509-1.134,1.042-2.253,1.582-3.325c0.612-1.21,1.184-2.285,1.75-3.287
			c8.666-15.361,29.196-31.775,60.823-31.775c15.176,0,31.571,8.129,46.164,22.89c13.062,13.21,23.747,30.55,30.394,49.215
			L7.085,152.643z M170.693,152.741c-1.306-0.037-3.512-0.08-6.997-0.094c-6.899-20.445-18.463-39.53-32.735-53.967
			C115.09,82.628,96.99,73.786,79.996,73.786c-15.155,0-29.506,3.611-41.501,10.441c-10.823,6.164-19.539,14.728-25.202,24.766
			c-0.4,0.709-0.802,1.453-1.216,2.244c-2.111-2.145-4.326-5.279-3.907-8.082c0.556-3.72,5.624-6.479,9.777-8.14
			c0.987-0.394,1.73-1.23,2.006-2.256c0.276-1.026,0.053-2.122-0.602-2.959c-1.602-2.046-5.604-8.783-3.063-12.768
			c1.915-3.004,3.979-2.847,7.608-1.406c0.541,0.216,1.009,0.401,1.481,0.519c1.639,0.41,3.324-0.454,3.951-2.02
			c0.048-0.119,4.906-11.938,15.905-11.938c3.784,0,7.987,1.37,12.491,4.072c1.484,0.889,3.399,0.515,4.436-0.869
			c0.103-0.137,10.417-13.67,24.422-13.67c8.238,0,14.358,2.981,18.189,8.859c3.074,4.716,3.565,9.617,3.586,9.847
			c0,0.005,0.001,0.01,0.001,0.016l0.003,0.049c0,1.172,0.611,2.259,1.609,2.873c0.998,0.614,2.247,0.665,3.293,0.136
			c2.891-1.46,11.434-4.483,16.175-0.974c5.663,4.191,7.326,12.821,7.442,14.361c-0.066,0.921,0.249,1.844,0.894,2.538
			c0.842,0.906,2.113,1.28,3.31,0.973c0.068-0.018,7.06-1.668,10.402,2.406c2.813,3.429,0.914,9.783-0.052,11.933
			c-0.516,1.131-0.369,2.451,0.382,3.44c0.751,0.989,1.982,1.485,3.211,1.295c0.083-0.015,8.541-1.188,11.485,3.647
			c2.484,4.082-4.421,9.32-4.483,9.367c-1.184,0.858-1.68,2.381-1.228,3.773c0.373,1.148,1.32,1.99,2.464,2.25
			c0.476,0.12,9.257,2.434,12.505,8.928C178.286,142.461,173.609,149.42,170.693,152.741z M197.816,150.734
			c-1.713,2.27-2.99,2.295-7.745,2.137c-1.048-0.035-10.967-0.071-10.967-0.071c3.101-4.767,6.021-11.755,2.709-18.378
			c-2.669-5.338-7.601-8.635-11.607-10.508c3.049-3.785,5.254-9.086,2.077-14.301c-3.184-5.231-8.933-6.668-13.143-6.961
			c0.878-4.018,1.173-9.737-2.432-14.127c-3.936-4.797-9.812-5.386-13.602-5.18c-0.5-2.153-1.188-4.101-1.201-4.137
			c-1.312-3.641-3.843-8.697-8.449-12.105c-6.111-4.523-14.273-2.913-19.13-1.29c-0.622-2.387-1.729-5.492-3.687-8.59
			c-0.46-0.728-0.981-1.474-1.566-2.22c40.098,8.364,68.127,33.507,78.866,56.715C200.2,138.213,199.227,148.865,197.816,150.734z"
			/>
	</g>
</g>
<g>
	<g>
		<path d="M111.012,105.546c-5.791,0-10.502,4.713-10.502,10.507c0,5.791,4.711,10.502,10.502,10.502s10.502-4.711,10.502-10.502
			C121.514,110.259,116.803,105.546,111.012,105.546z M111.012,119.805c-2.068,0-3.752-1.683-3.752-3.752
			c0-2.071,1.683-3.757,3.752-3.757c2.068,0,3.752,1.686,3.752,3.757C114.764,118.122,113.08,119.805,111.012,119.805z"/>
	</g>
</g>
<g>
	<g>
		<path d="M93.137,124.947c-5.791,0-10.502,4.713-10.502,10.506c0,5.791,4.711,10.502,10.502,10.502s10.502-4.711,10.502-10.502
			C103.638,129.66,98.927,124.947,93.137,124.947z M93.137,139.205c-2.069,0-3.752-1.682-3.752-3.752
			c0-2.07,1.683-3.756,3.752-3.756c2.068,0,3.752,1.685,3.752,3.756C96.888,137.524,95.205,139.205,93.137,139.205z"/>
	</g>
</g>
<g>
	<g>
		<path d="M87.25,96.039c-5.791,0-10.502,4.711-10.502,10.503c0,5.793,4.711,10.506,10.502,10.506
			c5.794,0.001,10.507-4.713,10.507-10.506C97.758,100.75,93.045,96.039,87.25,96.039z M87.252,110.298
			c-2.07,0.001-3.752-1.684-3.752-3.756c0-2.068,1.683-3.754,3.752-3.754c2.071,0,3.757,1.685,3.757,3.754
			C91.009,108.612,89.324,110.298,87.252,110.298z"/>
	</g>
</g>
<g>
</g>
<g>
</g>
<g>
</g>
<g>
</g>
<g>
</g>
<g>
</g>
<g>
</g>
<g>
</g>
<g>
</g>
<g>
</g>
<g>
</g>
<g>
</g>
<g>
</g>
<g>
</g>
<g>
</g>
</svg>
