<?xml version="1.0" encoding="iso-8859-1"?>
<!-- Generator: Adobe Illustrator 19.0.0, SVG Export Plug-In . SVG Version: 6.00 Build 0)  -->
<svg version="1.1" id="Capa_1" xmlns="http://www.w3.org/2000/svg" xmlns:xlink="http://www.w3.org/1999/xlink" x="0px" y="0px"
	 viewBox="0 0 207.13 207.13" style="enable-background:new 0 0 207.13 207.13;" xml:space="preserve">
<g>
	<g>
		<path d="M81.823,80.965c-2.429-2.519-5.74-5.947-6.229-7.255V21.957c0-1.864-1.511-3.375-3.375-3.375h-1.181V3.375
			C71.039,1.511,69.528,0,67.665,0h-16.2c-1.864,0-3.375,1.511-3.375,3.375v15.207h-1.181c-1.864,0-3.375,1.511-3.375,3.375V73.71
			c-0.489,1.308-3.799,4.736-6.23,7.255c-6.329,6.555-13.502,13.985-13.502,21.379v101.412c0,1.864,1.511,3.375,3.375,3.375h64.774
			c1.864,0,3.375-1.511,3.375-3.375V102.344C95.326,94.95,88.152,87.52,81.823,80.965z M54.84,6.75h9.45v11.804h-9.45V6.75z
			 M30.552,200.379v-74.25H65.49v47.249H40.215c-1.864,0-3.375,1.512-3.375,3.375c0,1.864,1.511,3.375,3.375,3.375h28.65
			c1.864,0,3.375-1.511,3.375-3.375v-53.999c0-1.863-1.511-3.375-3.375-3.375H30.552v-17.037c0-4.667,6.709-11.616,11.608-16.691
			c5.338-5.529,8.124-8.563,8.124-11.754V25.332h18.561v48.566c0,3.191,2.786,6.225,8.124,11.754
			c4.899,5.074,11.608,12.024,11.608,16.691v98.037H30.552z"/>
	</g>
</g>
<g>
	<g>
		<path d="M169.826,80.964c-2.431-2.518-5.741-5.946-6.229-7.255V21.957c0-1.864-1.512-3.375-3.375-3.375h-1.181V3.375
			c0-1.864-1.511-3.375-3.375-3.375h-16.2c-1.863,0-3.375,1.511-3.375,3.375v15.207h-1.18c-1.864,0-3.375,1.511-3.375,3.375V73.71
			c-0.489,1.308-3.799,4.736-6.23,7.255c-6.328,6.555-13.503,13.985-13.503,21.379v101.412c0,1.864,1.511,3.375,3.375,3.375h64.774
			c1.864,0,3.375-1.511,3.375-3.375V102.344C183.329,94.95,176.155,87.52,169.826,80.964z M142.84,6.75h9.45v11.804h-9.45V6.75z
			 M176.581,200.379h-0.002h-58.024v-74.25h34.937v47.249h-25.275c-1.864,0-3.375,1.512-3.375,3.375
			c0,1.864,1.511,3.375,3.375,3.375h28.65c1.864,0,3.375-1.511,3.375-3.375v-53.999c0-1.863-1.511-3.375-3.375-3.375h-38.312
			v-17.037c0-4.667,6.711-11.616,11.609-16.691c5.338-5.529,8.124-8.563,8.124-11.754V25.332h18.562v48.566
			c0,3.191,2.785,6.225,8.123,11.754c4.899,5.074,11.609,12.024,11.609,16.691V200.379z"/>
	</g>
</g>
<g>
</g>
<g>
</g>
<g>
</g>
<g>
</g>
<g>
</g>
<g>
</g>
<g>
</g>
<g>
</g>
<g>
</g>
<g>
</g>
<g>
</g>
<g>
</g>
<g>
</g>
<g>
</g>
<g>
</g>
</svg>
