<?xml version="1.0" encoding="iso-8859-1"?>
<!-- Generator: Adobe Illustrator 19.0.0, SVG Export Plug-In . SVG Version: 6.00 Build 0)  -->
<svg version="1.1" id="Capa_1" xmlns="http://www.w3.org/2000/svg" xmlns:xlink="http://www.w3.org/1999/xlink" x="0px" y="0px"
	 viewBox="0 0 209.19 209.19" style="enable-background:new 0 0 209.19 209.19;" xml:space="preserve">
<g>
	<g>
		<path d="M198.238,53.948C192.4,44.5,181.817,31.014,164.55,20.423C147.402,9.904,127.533,4.571,105.495,4.571
			c-0.312,0-1.488,0-1.8,0c-22.038,0-41.907,5.333-59.055,15.852C27.373,31.014,16.79,44.5,10.952,53.948
			C1.824,68.721-2.257,84.526,1.247,91.53c1.315,2.63,4.908,5.418,22.151,7.986c9.847,1.467,22.978,2.659,38.191,3.472
			c-5.144,14.173-8.49,27.331-9.957,39.168c-2.303,18.589,0.19,33.337,7.41,43.835c8.501,12.361,23.345,18.629,44.118,18.629
			c0.514,0,2.356,0,2.871,0c20.773,0,35.617-6.268,44.118-18.629c7.219-10.498,9.712-25.246,7.41-43.835
			c-1.467-11.837-4.813-24.995-9.957-39.168c15.213-0.813,28.344-2.005,38.191-3.472c17.242-2.569,20.836-5.356,22.149-7.985
			C211.447,84.527,207.366,68.721,198.238,53.948z M201.969,88.38c-2.024,1.964-16.852,6.096-59.3,8.098
			c-1.082,0.051-2.074,0.618-2.666,1.525c-0.593,0.907-0.715,2.043-0.326,3.054c8.109,21.167,19.532,59.848,4.911,81.109
			c-7.166,10.421-20.14,15.704-38.557,15.704c-0.514,0-2.357,0-2.871,0c-18.418,0-31.39-5.283-38.556-15.704
			c-14.153-20.579-3.905-57.479,4.121-79.019c10.19,0.378,20.983,0.574,31.767,0.574c3.189,0,6.377-0.017,9.547-0.051
			c1.864-0.02,3.359-1.547,3.34-3.411c-0.021-1.852-1.527-3.339-3.374-3.339c-0.013,0-0.025,0-0.037,0
			c-42.312,1.725-97.888-4.8-102.745-8.54c-1.714-3.823,0.589-16.507,9.473-30.884c8.578-13.883,34.228-46.175,87.001-46.175
			c0.312,0,1.488,0,1.8,0c52.773,0,78.423,32.292,87.001,46.175C201.379,71.872,203.683,84.554,201.969,88.38z"/>
	</g>
</g>
<g>
</g>
<g>
</g>
<g>
</g>
<g>
</g>
<g>
</g>
<g>
</g>
<g>
</g>
<g>
</g>
<g>
</g>
<g>
</g>
<g>
</g>
<g>
</g>
<g>
</g>
<g>
</g>
<g>
</g>
</svg>
