<?xml version="1.0" encoding="iso-8859-1"?>
<!-- Generator: Adobe Illustrator 19.0.0, SVG Export Plug-In . SVG Version: 6.00 Build 0)  -->
<svg version="1.1" id="Capa_1" xmlns="http://www.w3.org/2000/svg" xmlns:xlink="http://www.w3.org/1999/xlink" x="0px" y="0px"
	 viewBox="0 0 196.71 196.71" style="enable-background:new 0 0 196.71 196.71;" xml:space="preserve">
<g>
	<g>
		<path d="M144.377,171.717c-7.374-1.909-17.36-3.204-29.018-3.774v-6.908c4.317-1.729,13.691-6.297,22.769-16.098
			c7.041-7.602,12.462-16.802,16.115-27.347c4.519-13.046,6.32-28.187,5.355-45.005c-0.103-1.786-1.58-3.182-3.369-3.182h-5.814
			c-3.198-14.532-9.776-30.876-17.492-43.309C122.329,9.023,110.41,0,98.453,0c-0.033,0-0.065,0.002-0.097,0.002
			C98.322,0.002,98.291,0,98.258,0C86.301,0,74.382,9.023,63.79,26.093C56.073,38.526,49.494,54.87,46.296,69.402h-5.815
			c-1.789,0-3.267,1.396-3.369,3.182c-0.965,16.817,0.836,31.959,5.355,45.005c3.653,10.545,9.075,19.745,16.115,27.347
			c9.077,9.801,18.451,14.369,22.769,16.098v6.908c-11.658,0.57-21.644,1.865-29.018,3.774c-9.576,2.479-14.232,5.897-14.232,10.446
			c0,5.051,6.142,8.613,19.329,11.212c10.916,2.151,25.386,3.335,40.744,3.335c0.06,0,0.12-0.001,0.18-0.001s0.12,0.001,0.18,0.001
			c15.357,0,29.827-1.186,40.744-3.335c13.187-2.599,19.329-6.161,19.329-11.212C158.609,177.614,153.953,174.198,144.377,171.717z
			 M135.789,187.161c-10.219,1.806-23.45,2.8-37.254,2.8c-0.06,0-0.12-0.001-0.18-0.001s-0.12,0.001-0.18,0.001
			c-13.803,0-27.033-0.994-37.254-2.8c-10.537-1.862-14.726-4.053-15.863-5.077c0.681-0.688,3.077-2.483,10.611-4.235
			c6.702-1.559,15.531-2.637,25.682-3.146v5.414c0,1.863,1.511,3.375,3.375,3.375c1.864,0,3.375-1.512,3.375-3.375v-21.45
			c0-1.5-0.99-2.819-2.431-3.24c-0.112-0.032-11.32-3.397-22.136-15.075c-13.963-15.076-20.792-37.225-19.832-64.198h5.376h0.006
			h0.092c0.116,0.012,0.233,0.019,0.352,0.019h62.447c1.863,0,3.375-1.511,3.375-3.375s-1.512-3.375-3.375-3.375H53.221
			c3.144-13.454,9.214-28.345,16.302-39.769C78.689,14.884,88.894,6.75,98.257,6.75c0.032,0,0.065,0.003,0.097,0.003
			c0.033,0,0.065-0.003,0.097-0.003c9.364,0,19.569,8.133,28.734,22.902c7.088,11.423,13.157,26.314,16.302,39.769h-6.321
			c-1.863,0-3.375,1.511-3.375,3.375c0,1.864,1.512,3.375,3.375,3.375l15.839-0.019c0.96,26.974-5.868,49.122-19.832,64.198
			c-10.815,11.678-22.023,15.043-22.136,15.075c-1.44,0.419-2.431,1.739-2.431,3.24v21.45c0,1.863,1.511,3.375,3.375,3.375
			s3.375-1.512,3.375-3.375v-5.414c10.15,0.511,18.979,1.588,25.683,3.146c7.534,1.754,9.931,3.547,10.611,4.235
			C150.514,183.108,146.326,185.298,135.789,187.161z"/>
	</g>
</g>
<g>
</g>
<g>
</g>
<g>
</g>
<g>
</g>
<g>
</g>
<g>
</g>
<g>
</g>
<g>
</g>
<g>
</g>
<g>
</g>
<g>
</g>
<g>
</g>
<g>
</g>
<g>
</g>
<g>
</g>
</svg>
