<?xml version="1.0" encoding="iso-8859-1"?>
<!-- Generator: Adobe Illustrator 19.0.0, SVG Export Plug-In . SVG Version: 6.00 Build 0)  -->
<svg version="1.1" id="Capa_1" xmlns="http://www.w3.org/2000/svg" xmlns:xlink="http://www.w3.org/1999/xlink" x="0px" y="0px"
	 viewBox="0 0 215.96 215.96" style="enable-background:new 0 0 215.96 215.96;" xml:space="preserve">
<g>
	<g>
		<path d="M181.227,87.644c-4.9,0-8.887,3.987-8.887,8.887c0,4.901,3.987,8.888,8.887,8.888s8.887-3.987,8.887-8.888
			C190.113,91.63,186.128,87.644,181.227,87.644z M181.227,98.668c-1.179,0-2.137-0.959-2.137-2.138
			c0-1.179,0.959-2.137,2.137-2.137s2.137,0.959,2.137,2.137C183.363,97.709,182.405,98.668,181.227,98.668z"/>
	</g>
</g>
<g>
	<g>
		<path d="M214.67,102.642c0.997-1.633,1.444-3.555,1.244-5.463c-0.247-2.328-1.385-4.421-3.202-5.892
			c-1.576-1.275-3.5-1.952-5.473-1.952c-5.939-8.406-21.896-16.83-36.423-18.964c-0.101-0.022-0.202-0.041-0.306-0.057
			c-0.057-0.008-0.116-0.007-0.174-0.013c-3.416-0.584-6.996-1-10.661-1.256c-4.69-5.992-10.688-9.933-17.85-11.721
			c-5.904-1.474-19.023-0.099-29.405,1.918c-14.808,2.876-23.353,6.425-25.398,10.548c-0.939,1.892-0.951,4.71,1.83,6.944
			c0.643,0.517,1.261,1.003,1.849,1.466c1.367,1.076,2.691,2.118,3.613,3.018c-19.079,8.469-34.995,19.417-44.079,26.291
			c-7.184-6.037-22.047-13.951-38.862-14.35c-0.027,0-0.053-0.001-0.08-0.001c-5.191,0-8.402,0.977-10.105,3.074
			c-1.029,1.267-1.408,2.859-1.068,4.477c0.964,4.651,6.48,13.117,14.416,17.433c-7.665,6.082-9.243,15.067-9.414,20.572
			c-0.064,2.073,0.753,3.365,1.451,4.086c1.042,1.073,2.479,1.618,4.271,1.618c1.472,0,2.969-0.357,4.289-0.674
			c0.248-0.059,0.488-0.117,0.717-0.169c17.384-3.938,30.443-12.883,36.402-20.44c8.43,3.717,35.897,15.08,63.36,18.337
			c-0.969,0.302-1.861,0.64-2.664,1.062c-3.83,2.021-3.952,5.145-3.684,6.828c0.904,5.639,7.782,9.891,16.001,9.891
			c2.833,0,5.574-0.5,8.147-1.484c8.138-3.119,14.864-9.392,17.97-16.63c9.682-1.527,18.679-3.967,26.754-7.285l0.003-0.001
			c0.001-0.001,0.003-0.001,0.003-0.001c0.071-0.03,0.137-0.06,0.206-0.088c6.251-2.426,12.38-6.294,13.556-7.053
			c0.021-0.012,0.039-0.024,0.059-0.036c1.936-1.265,3.745-2.575,5.377-3.895c0.033-0.026,0.064-0.053,0.096-0.081
			c3.117-2.535,5.742-5.211,7.824-7.974c0.728,0.108,1.471,0.127,2.21,0.051c4.798-0.506,8.296-4.822,7.794-9.646
			C215.187,104.43,215.042,103.543,214.67,102.642z M14.36,136.989c-0.255,0.058-0.522,0.122-0.797,0.188
			c-0.509,0.121-1.088,0.26-1.617,0.358c0.481-6.149,3.07-13.613,12.034-17.036c1.454-0.555,2.34-2.031,2.145-3.576
			c-0.195-1.544-1.42-2.754-2.966-2.931c-7.745-0.884-14.501-9.31-16.131-13.664c0.698-0.195,1.988-0.421,4.227-0.423
			c13.512,0.333,26.698,6.593,33.545,11.876c-1.315,1.399-2.154,3.265-1.486,5.321c0.44,1.352,1.462,2.36,2.584,3.099
			C40.785,125.894,29.944,133.46,14.36,136.989z M93.871,72.098c2.266-1.553,8.754-4.122,20.391-6.337
			c11.012-2.096,21.917-2.89,25.931-1.889c3.656,0.913,6.936,2.551,9.812,4.882c-6.121,0.051-12.444,0.52-18.899,1.424
			c-9.586,1.34-19.757,4.132-30.276,8.301c-1.349-1.96-3.49-3.65-5.951-5.586C94.552,72.636,94.216,72.371,93.871,72.098z
			 M145.921,136.428c-0.22,0.379-0.366,0.801-0.425,1.245c-1.772,4.734-6.437,10.701-14.496,13.789
			c-1.799,0.689-3.729,1.038-5.733,1.038c-5.084,0-8.661-2.199-9.267-3.957c0.922-0.537,3.394-1.128,5.091-1.532
			c3.535-0.846,7.933-1.896,11.772-4.287c4.017-2.499,6.381-5.895,8.279-8.622c1.806-2.594,2.99-4.199,4.506-4.518
			c0.374-0.079,0.542-0.062,0.615-0.053C146.679,130.054,147.081,132.58,145.921,136.428z M153.294,133.977
			c0.32-2.785,0.156-5.996-1.548-8.378c-1.642-2.295-4.368-3.272-7.481-2.62c-4.216,0.883-6.476,4.128-8.661,7.266
			c-1.296,1.861-2.629,3.77-4.437,5.354c-0.071-0.003-0.142-0.009-0.212-0.006c-35.482,0.479-78.781-19.923-78.791-19.928
			c-0.265-0.164-0.828-0.612-0.051-1.092c8.724-6.784,26.577-19.515,48.139-28.572c11.117-4.668,21.81-7.743,31.787-9.137
			c8.909-1.249,17.548-1.65,25.674-1.191c1.746,0.098,3.473,0.237,5.171,0.414c-5.429,6.108-9.792,13.831-8.584,25.244
			c1.274,12.074,6.615,22.162,14.954,28.619C164.242,131.617,158.901,132.961,153.294,133.977z M208.685,99.427
			c-2.015,2.265-1.396,4.543-0.235,5.848c0.025,0.083,0.068,0.258,0.104,0.574c0.115,1.103-0.688,2.095-1.782,2.21
			c-0.337,0.035-0.667-0.014-1.005-0.156c-1.896-0.776-3.939-0.152-5.01,1.515c-1.857,2.758-4.409,5.464-7.586,8.046
			c-0.05,0.039-0.1,0.08-0.148,0.123c-1.434,1.155-3.029,2.309-4.743,3.429c-0.012,0.007-0.021,0.014-0.027,0.018
			c-0.942,0.608-5.318,3.372-10.151,5.521c-0.134,0.04-0.267,0.085-0.397,0.143c-0.229,0.1-0.468,0.198-0.697,0.298
			c-8.939-4.983-14.739-14.503-15.993-26.374c-1.155-10.911,3.965-17.403,10.113-23.366c14.037,2.432,27.915,10.814,31.231,16.977
			c0.474,0.904,1.695,2.351,4.537,1.883l0.1-0.016c0.535-0.057,1.056,0.098,1.472,0.435c0.418,0.338,0.679,0.819,0.736,1.353
			C209.279,98.633,208.911,99.173,208.685,99.427z"/>
	</g>
</g>
<g>
</g>
<g>
</g>
<g>
</g>
<g>
</g>
<g>
</g>
<g>
</g>
<g>
</g>
<g>
</g>
<g>
</g>
<g>
</g>
<g>
</g>
<g>
</g>
<g>
</g>
<g>
</g>
<g>
</g>
</svg>
