<?xml version="1.0" encoding="iso-8859-1"?>
<!-- Generator: Adobe Illustrator 19.0.0, SVG Export Plug-In . SVG Version: 6.00 Build 0)  -->
<svg version="1.1" id="Capa_1" xmlns="http://www.w3.org/2000/svg" xmlns:xlink="http://www.w3.org/1999/xlink" x="0px" y="0px"
	 viewBox="0 0 201.127 201.127" style="enable-background:new 0 0 201.127 201.127;" xml:space="preserve">
<g>
	<g>
		<path d="M131.629,13.027c1.381-1.252,1.485-3.386,0.233-4.767c-1.252-1.381-3.387-1.485-4.767-0.233
			c-8.405,7.622-14.196,16.093-18.174,23.878c2.535-13.655,5.002-24.551,6.394-26.562c1.06-1.533,0.677-3.635-0.857-4.695
			c-1.533-1.06-3.636-0.677-4.695,0.856c-0.867,1.253-2.878,4.161-7.584,29.795C99.705,7.827,97.473,5.82,92.916,1.039
			c-2.713-2.847-7.553,0.612-4.798,4.853c2.754,4.241,5.614,5.911,7.618,29.002C91.72,23.83,85.032,10.897,74.033,0.923
			c-1.381-1.252-3.515-1.148-4.767,0.233c-1.252,1.381-1.148,3.515,0.233,4.767C80.328,15.744,86.65,29.062,90.263,39.9
			c-3.927-5.597-9.141-10.215-15.434-9.441c-1.85,0.228-3.165,1.912-2.938,3.762c0.227,1.85,1.912,3.166,3.762,2.938
			c5.831-0.715,12.012,10.426,15.178,18.293c-4.325,0.603-9.378,2.904-12.834,9.53c-6.73,12.898-1.886,25.369-0.381,28.639
			c0.099,19.094,3.82,30.026,4.915,32.833c0.044,11.91,1.263,19.19,3.786,22.317c0.295,7.668,2.554,20.003,4.793,29.356
			c1.424,5.949,2.908,11.045,4.291,14.736c1.859,4.96,3.757,8.264,6.979,8.264c3.22,0,5.116-3.304,6.975-8.265
			c1.382-3.692,2.866-8.787,4.29-14.735c2.24-9.357,4.5-21.692,4.795-29.357c2.522-3.128,3.741-10.407,3.785-22.317
			c1.095-2.808,4.815-13.739,4.915-32.833c1.505-3.27,6.349-15.741-0.382-28.639c-4.087-7.83-10.398-9.624-15.104-9.706
			c3.27-7.781,9.202-18.025,14.784-17.339c1.851,0.228,3.534-1.088,3.762-2.938c0.228-1.85-1.088-3.534-2.938-3.762
			c-5.659-0.696-10.444,2.965-14.205,7.776C116.694,30.816,122.483,21.323,131.629,13.027z M120.776,68.105
			c4.453,8.535,2.326,17.107,0.917,20.992c-2.721,0.751-8.894,2.03-13.382-0.262c-1.66-0.848-3.693-0.189-4.541,1.471
			c-0.849,1.66-0.189,3.693,1.471,4.541c2.978,1.52,6.273,2.021,9.323,2.021c2.107,0,4.097-0.239,5.784-0.547
			c-0.468,18.525-4.537,28-4.576,28.089c-0.194,0.434-0.295,0.904-0.295,1.379c0,13.899-1.712,17.748-2.172,18.531
			c-1.207,1.73-4.528,2.477-9.912,0.78c-1.777-0.561-3.673,0.427-4.233,2.205c-0.56,1.777,0.427,3.673,2.205,4.232
			c2.952,0.93,5.441,1.29,7.525,1.29c0.907,0,1.731-0.073,2.491-0.193c-0.604,5.824-1.97,13.765-3.768,21.648
			c-2.043,8.959-3.983,17.892-5.234,17.892c-1.25,0-3.191-8.932-5.234-17.892c-2.458-10.778-4.109-21.671-4.109-27.104
			c0-1.193-0.624-2.259-1.582-2.86c-0.46-0.783-2.173-4.632-2.173-18.531c0-0.155-0.015-0.311-0.037-0.465
			c1.414,0.336,2.756,0.475,3.999,0.475c4.847,0,8.18-2.053,8.385-2.183c1.576-0.995,2.047-3.08,1.051-4.656
			c-0.994-1.576-3.148-1.97-4.655-1.051c-1.507,0.918-7.92,1.874-11.138-0.506c-1.222-5.263-2.522-13.468-2.522-24.561
			c0-0.554-0.136-1.1-0.397-1.588c-0.061-0.114-6.028-11.567,0.015-23.149c2.134-4.093,5.233-6.083,9.471-6.083
			c3.923,0,7.349,1.725,7.372,1.736c0.967,0.503,2.131,0.501,3.103,0.005c0.034-0.017,3.457-1.741,7.377-1.741
			C115.542,62.022,118.64,64.013,120.776,68.105z"/>
	</g>
</g>
<g>
</g>
<g>
</g>
<g>
</g>
<g>
</g>
<g>
</g>
<g>
</g>
<g>
</g>
<g>
</g>
<g>
</g>
<g>
</g>
<g>
</g>
<g>
</g>
<g>
</g>
<g>
</g>
<g>
</g>
</svg>
