<?xml version="1.0" encoding="iso-8859-1"?>
<!-- Generator: Adobe Illustrator 19.0.0, SVG Export Plug-In . SVG Version: 6.00 Build 0)  -->
<svg version="1.1" id="Capa_1" xmlns="http://www.w3.org/2000/svg" xmlns:xlink="http://www.w3.org/1999/xlink" x="0px" y="0px"
	 viewBox="0 0 174.03 174.03" style="enable-background:new 0 0 174.03 174.03;" xml:space="preserve">
<g>
	<g>
		<path d="M43.221,131.675c-1.317-1.316-3.455-1.316-4.772,0L1.854,168.27c-1.317,1.317-1.317,3.455,0,4.772
			c0.659,0.659,1.524,0.988,2.388,0.988c0.863,0,1.728-0.329,2.386-0.988l36.593-36.594
			C44.539,135.132,44.539,132.994,43.221,131.675z"/>
	</g>
</g>
<g>
	<g>
		<path d="M165.841,7.334C161.112,2.605,154.824,0,148.136,0s-12.975,2.605-17.705,7.334L46.302,91.463
			c-9.762,9.762-9.762,25.647,0,35.412c4.73,4.729,11.019,7.334,17.706,7.334c6.688,0,12.977-2.604,17.705-7.334l84.128-84.127
			C175.606,32.984,175.605,17.097,165.841,7.334z M161.068,37.973L76.94,122.1c-3.453,3.455-8.047,5.356-12.933,5.356
			c-4.885,0-9.479-1.901-12.933-5.356c-7.131-7.131-7.131-18.733,0-25.866l84.129-84.127c3.454-3.455,8.047-5.357,12.932-5.357
			c4.885,0,9.479,1.902,12.933,5.357c3.454,3.455,5.357,8.047,5.357,12.933C166.426,29.926,164.524,34.519,161.068,37.973z"/>
	</g>
</g>
<g>
	<g>
		<path d="M155.168,25.959c-1.317-1.315-3.454-1.315-4.772,0.003c-1.883,1.884-3.591,1.922-6.696,1.832
			c-3.226-0.094-7.639-0.224-11.668,3.806c-4.03,4.03-3.901,8.445-3.807,11.668c0.091,3.106,0.051,4.815-1.832,6.698
			c-1.883,1.882-3.592,1.922-6.695,1.831c-3.226-0.094-7.639-0.225-11.668,3.805c-4.03,4.03-3.9,8.445-3.807,11.668
			c0.091,3.106,0.051,4.814-1.831,6.696c-1.882,1.883-3.59,1.924-6.695,1.831c-3.225-0.095-7.639-0.225-11.668,3.805
			c-4.03,4.03-3.9,8.444-3.806,11.668c0.092,3.105,0.052,4.813-1.831,6.695c-1.882,1.883-3.591,1.922-6.694,1.83
			c-3.224-0.094-7.639-0.226-11.667,3.805c-1.318,1.318-1.318,3.455,0,4.773c0.658,0.659,1.522,0.988,2.386,0.988
			c0.864,0,1.728-0.33,2.386-0.989c1.882-1.882,3.591-1.921,6.695-1.83c3.224,0.095,7.638,0.226,11.667-3.804
			c4.029-4.03,3.899-8.445,3.805-11.668c-0.091-3.105-0.051-4.813,1.831-6.696s3.59-1.924,6.697-1.832
			c3.222,0.095,7.637,0.225,11.667-3.805c4.029-4.03,3.899-8.445,3.805-11.668c-0.091-3.106-0.051-4.814,1.831-6.696
			c1.883-1.883,3.591-1.922,6.696-1.831c3.224,0.095,7.638,0.224,11.668-3.805c4.029-4.031,3.9-8.445,3.806-11.669
			c-0.091-3.107-0.051-4.815,1.832-6.698c1.883-1.883,3.591-1.921,6.697-1.832c3.223,0.094,7.638,0.224,11.668-3.806
			C156.485,29.414,156.485,27.277,155.168,25.959z"/>
	</g>
</g>
<g>
</g>
<g>
</g>
<g>
</g>
<g>
</g>
<g>
</g>
<g>
</g>
<g>
</g>
<g>
</g>
<g>
</g>
<g>
</g>
<g>
</g>
<g>
</g>
<g>
</g>
<g>
</g>
<g>
</g>
</svg>
