<?xml version="1.0" encoding="iso-8859-1"?>
<!-- Generator: Adobe Illustrator 19.0.0, SVG Export Plug-In . SVG Version: 6.00 Build 0)  -->
<svg version="1.1" id="Capa_1" xmlns="http://www.w3.org/2000/svg" xmlns:xlink="http://www.w3.org/1999/xlink" x="0px" y="0px"
	 viewBox="0 0 180.76 180.76" style="enable-background:new 0 0 180.76 180.76;" xml:space="preserve">
<g>
	<g>
		<path d="M170.838,100.895c-9.9-23.492-30.39-30.564-45.353-35.729c-6.812-2.352-12.695-4.382-14.96-7.112
			c-8.604-10.368-8.604-34.827-8.604-42.863c0-10.267-4.538-13.705-7.299-14.692c-1.806-0.645-6.943-0.683-8.486,0
			c-2.681,1.187-7.299,4.424-7.299,14.692c0,8.037,0,32.496-8.603,42.863c-2.265,2.73-8.148,4.76-14.96,7.112
			C40.313,70.33,19.823,77.403,9.921,100.895c-5.682,13.48-5.21,27.58,1.365,40.773c8.916,17.89,26.439,29.314,39.851,32.7
			c19.9,5.022,28.298,6.163,39.129,6.378v0.013c0.117-0.002,0.713-0.014,0.713-0.014c10.36-0.216,18.76-1.359,38.641-6.377
			c13.412-3.385,30.935-14.809,39.851-32.7C176.048,128.476,176.521,114.375,170.838,100.895z M47.634,164.648
			c-9.676-14.345-13.614-30.396-11.091-45.49c1.541-9.224,5.333-17.568,10.972-24.375c-5.644,11.608-8.319,24.02-7.652,37.011
			c0.305,5.947,1.619,11.545,3.16,16.342c1.452,4.529,3.586,8.789,6.342,12.664c1.546,2.17,3.279,4.19,5.166,6.068
			C54.065,166.752,49.836,165.472,47.634,164.648z M89.879,172.643c1.505-7.598,4.02-25.101,4.211-27.247
			c0.022,0.722,0.646,15.863,0.883,20.12c0,0,0.336,4.694,0.577,6.955C93.893,172.571,90.124,172.648,89.879,172.643z
			 M133.403,164.565c-2.001,0.835-6.933,2.244-7.503,2.386c2.679-2.942,5.093-6.224,7.177-9.82c3.321-5.729,5.62-11.919,6.847-18.29
			C139.357,149.966,133.857,163.613,133.403,164.565z M162.223,138.056c-4.582,9.194-11.938,16.493-19.51,21.503
			c5.95-16.929,5.13-33.488-2.473-49.294c-1.833-3.825-2.656-6.147-5.609-6.125c-2.953,0.024-3.675,3.001-3.065,5.55
			c0,0,1.577,7.768,1.796,8.94c3.815,20.39-5.565,41.399-21.674,51.58c-3.603,0.729-6.661,1.244-9.417,1.608
			c-0.201-3.212-1.5-29.202-1.63-31.601c-0.534-9.508-2.085-19.346-4.478-28.43c-0.176-0.683-0.81-2.966-3.202-3.732
			c-2.392-0.765-5.167,2.084-4.775,4.806c0,0,1.294,21.579-1.43,38.034c-0.509,3.075-2.359,14.765-3.684,21.402
			c-3.354-0.28-6.946-0.76-11.34-1.576c-4.915-2.438-8.434-5.115-8.686-5.31c-3.133-2.438-5.887-5.307-8.182-8.528
			c-2.352-3.306-8.096-13.256-8.256-25.34c-0.211-15.893,3.739-30.784,13.162-44.313c0.599-0.87,3.685-5.179,2.148-7.392
			c-2.474-3.56-6.679-0.832-8.703,0.588c-12.447,8.711-20.732,22.07-23.33,37.618c-2.221,13.294,0.013,27.191,6.307,40.229
			c-6.903-4.941-13.447-11.78-17.653-20.221c-5.489-11.014-5.887-22.776-1.151-34.015c8.497-20.16,26.258-26.291,40.53-31.217
			c7.962-2.748,14.838-5.121,18.551-9.596c9.384-11.309,10.469-32.832,10.469-48.037c0-4.493,0.489-7.081,3.47-7.081
			c2.982,0,3.415,2.66,3.415,7.081c0,15.204,1.085,36.727,10.47,48.037c3.713,4.474,10.589,6.848,18.551,9.596
			c14.272,4.926,32.034,11.058,40.53,31.217C168.111,115.278,167.712,127.041,162.223,138.056z"/>
	</g>
</g>
<g>
</g>
<g>
</g>
<g>
</g>
<g>
</g>
<g>
</g>
<g>
</g>
<g>
</g>
<g>
</g>
<g>
</g>
<g>
</g>
<g>
</g>
<g>
</g>
<g>
</g>
<g>
</g>
<g>
</g>
</svg>
