<?xml version="1.0" encoding="iso-8859-1"?>
<!-- Generator: Adobe Illustrator 19.0.0, SVG Export Plug-In . SVG Version: 6.00 Build 0)  -->
<svg version="1.1" id="Capa_1" xmlns="http://www.w3.org/2000/svg" xmlns:xlink="http://www.w3.org/1999/xlink" x="0px" y="0px"
	 viewBox="0 0 183.782 183.782" style="enable-background:new 0 0 183.782 183.782;" xml:space="preserve">
<g>
	<g>
		<path d="M174.185,10.964c-10.39-9.839-22.591-9.746-41.054-9.611C130.856,1.37,6.55,1.388,6.55,1.388
			c-2.305,0-4.465,1.231-5.626,3.197c-1.184,1.979-1.235,4.466-0.126,6.501c3.556,6.48,12.975,23.682,13.842,25.426
			c0.787,1.591,1.725,4.162,1.725,7.378v110.907v0.113v16.688c0,5.988,4.872,10.86,10.861,10.86h98.754
			c5.984,0,10.853-4.872,10.853-10.86v-1.283h9.627c4.537,0,8.229-4.147,8.229-9.245c0-5.101-3.691-9.251-8.229-9.251h-9.627V28.608
			c6.944-0.137,16.685-0.102,18.822,1.924c0.197,0.186,1.176,1.339,1.176,5.74v69.581c0,7.43,6.046,13.475,13.477,13.475
			c7.428,0,13.472-6.044,13.472-13.475V36.272C183.779,25.51,180.552,16.994,174.185,10.964z M130.082,151.534h-6.283
			c-1.864,0-3.375,1.511-3.375,3.375c0,1.863,1.511,3.375,3.375,3.375h6.283v13.312c0.001,2.268-1.84,4.112-4.102,4.112H27.226
			c-2.267,0-4.111-1.844-4.111-4.11v-13.312h83.284c1.864,0,3.375-1.512,3.375-3.375c0-1.864-1.511-3.375-3.375-3.375H23.115V43.89
			c0-4.519-1.318-8.133-2.427-10.376C19.634,31.394,8.422,10.951,6.878,8.138h119.101c2.262,0,4.103,1.843,4.103,4.108V151.534z
			 M137.148,158.568h9.312c0.603,0,1.479,0.975,1.479,2.501c0,1.523-0.875,2.495-1.479,2.495h-9.312V158.568z M170.307,112.577
			c-3.709,0-6.727-3.017-6.727-6.725V36.272c0-5.063-1.072-8.542-3.28-10.637c-3.824-3.625-12.126-3.987-23.469-3.775
			c0,0-0.038-10.134-0.038-13.776c15.758-0.095,24.799,0.253,32.748,7.783c4.969,4.705,7.487,11.571,7.487,20.406v69.58h0.001
			C177.029,109.559,174.014,112.577,170.307,112.577z"/>
	</g>
</g>
<g>
	<g>
		<path d="M82.482,23.056H72.196c-5.986,0-10.856,4.873-10.856,10.861v95.524c0,5.987,4.87,10.858,10.856,10.858h10.286
			c5.986,0,10.856-4.871,10.856-10.858V33.917C93.339,27.929,88.469,23.056,82.482,23.056z M82.483,133.55H72.196
			c-2.264,0-4.106-1.843-4.106-4.108V33.917c0-2.267,1.842-4.111,4.106-4.111h10.286c2.264,0,4.106,1.844,4.106,4.111v95.525h0.001
			C86.589,131.708,84.747,133.55,82.483,133.55z"/>
	</g>
</g>
<g>
</g>
<g>
</g>
<g>
</g>
<g>
</g>
<g>
</g>
<g>
</g>
<g>
</g>
<g>
</g>
<g>
</g>
<g>
</g>
<g>
</g>
<g>
</g>
<g>
</g>
<g>
</g>
<g>
</g>
</svg>
