<?xml version="1.0" encoding="iso-8859-1"?>
<!-- Generator: Adobe Illustrator 19.0.0, SVG Export Plug-In . SVG Version: 6.00 Build 0)  -->
<svg version="1.1" id="Capa_1" xmlns="http://www.w3.org/2000/svg" xmlns:xlink="http://www.w3.org/1999/xlink" x="0px" y="0px"
	 viewBox="0 0 192.71 192.71" style="enable-background:new 0 0 192.71 192.71;" xml:space="preserve">
<g>
	<g>
		<path d="M168.454,66.827c-10.056-8.632-25.364-15.649-35.408-7.017c-2.239,1.926-3.933,4.937-5.106,7.813
			c-3.359-4.109-7.047-7.531-10.981-10.216c-2.433-4.423-3.065-10.964-3.353-16.845c-0.639-13.102-3.899-22.55-9.971-28.884
			C98.267,6.078,89.532,3.328,84.585,1.44c-8.494-3.24-15.822,2.856-18.251,9.812c-2.471,7.075,0.141,13.558,6.351,15.768
			c9.029,3.212,9.022,6.876,9.007,14.903l-0.001,0.929c0,7.069-2.439,10.388-3.273,11.316c-5.189,2.501-10.055,6.194-14.43,10.983
			c-1.385-1.982-3.182-4.365-4.321-5.344c-10.047-8.634-25.354-1.616-35.409,7.017C8.841,80.058,0,100.252,0,122.234
			c0,21.985,8.841,42.182,24.257,55.409c6.814,5.848,16.038,10.955,24.404,10.955c3.98,0,7.766-1.156,11.006-3.938
			c2.094-1.801,3.718-4.055,4.863-6.718c8.677,9.231,19.222,14.222,30.365,14.222c12.046,0,23.393-5.834,32.437-16.553
			c0.977,3.238,2.693,6.456,5.712,9.051c3.238,2.78,7.022,3.936,11.001,3.936c8.365,0,17.592-5.106,24.406-10.954
			c15.416-13.228,24.257-33.423,24.257-55.409C192.71,100.253,183.869,80.058,168.454,66.827z M74.947,20.662
			c-4.021-1.431-2.527-6.22-2.241-7.183c1.035-3.474,4.935-7.225,11.028-5.197c10.787,3.589,21.901,7.419,23.128,32.609
			c0.189,3.873,0.529,8.027,1.387,11.934c-4.291-1.636-8.771-2.483-13.353-2.483c-2.543,0-5.054,0.261-7.52,0.772
			c0.633-2.24,1.065-4.972,1.065-8.259l0.001-0.917C88.458,33.471,88.473,25.475,74.947,20.662z M59.071,173.126
			c-0.728,2.74-1.972,4.84-3.803,6.414c-7.288,6.26-20.596-1.854-26.615-7.021C14.733,160.577,6.75,142.249,6.75,122.234
			c0-20.009,7.983-38.337,21.903-50.286c6.018-5.167,19.325-13.284,26.611-7.021c0.738,0.646,3.129,3.922,4.283,5.693
			c-0.227,0.314-0.453,0.628-0.677,0.948c-9.273,13.316-14.379,30.959-14.379,49.683c0,18.723,5.106,36.368,14.379,49.685
			c0.247,0.355,0.498,0.703,0.749,1.05C59.375,172.318,59.184,172.702,59.071,173.126z M127.782,163.393
			c-0.955,0.545-1.615,1.542-1.696,2.694c-7.931,11.916-18.981,19.325-31.191,19.325c-24.07,0-43.652-28.782-43.652-64.162
			c0-35.378,19.582-64.161,43.652-64.161c24.068,0,43.65,28.782,43.65,64.161C138.545,137.366,134.481,152.111,127.782,163.393z
			 M164.059,172.52c-6.021,5.165-19.33,13.277-26.613,7.021c-2.813-2.417-4.242-6.041-4.555-11.609
			c8.019-12.912,12.405-29.331,12.405-46.68c0-17.395-4.41-33.856-12.472-46.783c0.756-3.428,2.646-7.842,4.619-9.539
			c7.287-6.263,20.595,1.854,26.613,7.02c13.92,11.947,21.903,30.276,21.903,50.286C185.96,142.249,177.977,160.577,164.059,172.52z
			"/>
	</g>
</g>
<g>
</g>
<g>
</g>
<g>
</g>
<g>
</g>
<g>
</g>
<g>
</g>
<g>
</g>
<g>
</g>
<g>
</g>
<g>
</g>
<g>
</g>
<g>
</g>
<g>
</g>
<g>
</g>
<g>
</g>
</svg>
