<?xml version="1.0" encoding="iso-8859-1"?>
<!-- Generator: Adobe Illustrator 19.0.0, SVG Export Plug-In . SVG Version: 6.00 Build 0)  -->
<svg version="1.1" id="Capa_1" xmlns="http://www.w3.org/2000/svg" xmlns:xlink="http://www.w3.org/1999/xlink" x="0px" y="0px"
	 viewBox="0 0 203.5 203.5" style="enable-background:new 0 0 203.5 203.5;" xml:space="preserve">
<g>
	<g>
		<path d="M200.452,15.707c-4.094-3.133-10.361-1.665-14.271,3.345c-7.537,9.663-67.748,86.24-76.783,97.731l-105.64,0.131
			C1.681,116.917,0,118.602,0,120.678v37.384c0,0.088,0.003,0.177,0.009,0.264c0.024,0.34,0.677,8.411,8.602,16.221
			c10.023,9.88,26.589,14.891,49.237,14.891c22.656,0,39.108-4.95,48.899-14.713c7.774-7.751,8.224-15.771,8.239-16.109
			c0.002-0.057,0.004-0.114,0.004-0.171V140.83c8.183-10.424,75.953-96.763,83.754-107.143
			C205.526,24.661,204.074,18.481,200.452,15.707z M101.003,169.815c-5.789,5.518-17.974,12.095-43.154,12.095
			c-25.206,0-37.582-6.694-43.525-12.308c-5.85-5.527-6.705-10.969-6.798-11.723v-33.442l99.938-0.125l0.001,33.993
			C107.396,159.02,106.71,164.373,101.003,169.815z M192.727,29.165c-6.752,8.985-58.934,75.513-77.737,99.477v-6.793
			c7.79-9.907,69.481-88.367,77.126-98.165c1.607-2.058,3.283-2.475,3.748-2.011C196.328,22.136,196.336,24.362,192.727,29.165z"/>
	</g>
</g>
<g>
</g>
<g>
</g>
<g>
</g>
<g>
</g>
<g>
</g>
<g>
</g>
<g>
</g>
<g>
</g>
<g>
</g>
<g>
</g>
<g>
</g>
<g>
</g>
<g>
</g>
<g>
</g>
<g>
</g>
</svg>
