<?xml version="1.0" encoding="iso-8859-1"?>
<!-- Generator: Adobe Illustrator 19.0.0, SVG Export Plug-In . SVG Version: 6.00 Build 0)  -->
<svg version="1.1" id="Capa_1" xmlns="http://www.w3.org/2000/svg" xmlns:xlink="http://www.w3.org/1999/xlink" x="0px" y="0px"
	 viewBox="0 0 210.601 210.601" style="enable-background:new 0 0 210.601 210.601;" xml:space="preserve">
<g>
	<g>
		<path d="M132.663,0H77.936C68.05,0,60.007,8.044,60.007,17.932v105.376c0,9.888,8.043,17.933,17.929,17.933H90.16v54.22
			c0,8.348,6.792,15.139,15.141,15.139c8.348,0,15.139-6.791,15.139-15.139v-54.22h12.223c9.886,0,17.93-8.045,17.93-17.933V17.932
			C150.593,8.044,142.55,0,132.663,0z M143.843,123.308c0,6.166-5.016,11.183-11.18,11.183h-15.598
			c-1.863,0-3.375,1.511-3.375,3.375v57.595c0,4.625-3.764,8.389-8.389,8.389c-4.627,0-8.391-3.763-8.391-8.389v-54.22h7.042
			c1.864,0,3.375-1.512,3.375-3.375c0-1.864-1.51-3.375-3.375-3.375H77.938c-6.164,0-11.179-5.017-11.179-11.183V17.932
			c0-6.166,5.015-11.182,11.179-11.182h54.725c6.166,0,11.181,5.016,11.181,11.182L143.843,123.308z"/>
	</g>
</g>
<g>
	<g>
		<path d="M87.704,23.288c-5.477,0-9.932,4.143-9.932,9.235v77.503c0,5.094,4.455,9.237,9.932,9.237
			c5.478,0,9.935-4.144,9.935-9.237V32.523C97.638,27.431,93.182,23.288,87.704,23.288z M90.888,110.027
			c0,1.348-1.459,2.486-3.185,2.486c-1.725,0-3.182-1.139-3.182-2.486V32.523c0-1.347,1.457-2.485,3.182-2.485
			c1.726,0,3.185,1.138,3.185,2.485V110.027z"/>
	</g>
</g>
<g>
	<g>
		<path d="M123.859,23.288c-5.477,0-9.932,4.143-9.932,9.235v77.503c0,5.094,4.456,9.237,9.932,9.237
			c5.479,0,9.936-4.144,9.936-9.237V32.523C133.796,27.431,129.338,23.288,123.859,23.288z M127.045,110.027
			c0,1.348-1.459,2.486-3.186,2.486c-1.725,0-3.182-1.139-3.182-2.486V32.523c0-1.347,1.457-2.485,3.182-2.485
			c1.727,0,3.186,1.138,3.186,2.485V110.027z"/>
	</g>
</g>
<g>
</g>
<g>
</g>
<g>
</g>
<g>
</g>
<g>
</g>
<g>
</g>
<g>
</g>
<g>
</g>
<g>
</g>
<g>
</g>
<g>
</g>
<g>
</g>
<g>
</g>
<g>
</g>
<g>
</g>
</svg>
