<?xml version="1.0" encoding="iso-8859-1"?>
<!-- Generator: Adobe Illustrator 19.0.0, SVG Export Plug-In . SVG Version: 6.00 Build 0)  -->
<svg version="1.1" id="Capa_1" xmlns="http://www.w3.org/2000/svg" xmlns:xlink="http://www.w3.org/1999/xlink" x="0px" y="0px"
	 viewBox="0 0 190.37 190.37" style="enable-background:new 0 0 190.37 190.37;" xml:space="preserve">
<g>
	<g>
		<path d="M173.165,64.198c-8.202-12.28-19.662-22.401-33.31-29.457c1.062-1.319,2.208-2.645,3.334-3.946
			c2.773-3.206,5.642-6.521,7.302-9.833c2.247-4.482,2.048-8.493-0.593-11.922c-1.063-1.382-3.105-3.03-6.79-3.03
			c-7.156,0-17.815,6.632-23.496,10.556c-2.199-5.101-8.245-12.626-16.808-12.626c-8.42,0-14.863,6.424-18.678,10.155
			C79.004,9.456,67.562,0,59.439,0c-2.508,0-4.69,0.856-6.31,2.476c-2.352,2.352-4.562,6.592-1.733,13.437
			c1.656,4.007,4.621,8.038,7.237,11.594c0.617,0.838,1.22,1.659,1.778,2.442c-0.095,0.035-0.188,0.074-0.283,0.11
			c-0.778,0.267-1.492,0.543-2.135,0.829c-14.329,5.746-26.746,14.738-36.191,26.284C10.634,70.824,4.444,87.096,3.905,104.228
			c-0.704,22.287,8.172,43.523,24.992,59.797c16.732,16.188,39.339,25.527,63.658,26.293c1.071,0.035,2.156,0.052,3.226,0.052h0.001
			c23.665,0,46.061-8.245,63.058-23.216c17.128-15.086,26.939-35.387,27.627-57.166C186.973,93.822,182.374,77.988,173.165,64.198z
			 M179.718,109.776c-1.307,41.408-38.177,73.845-83.938,73.844c-0.999,0-2.012-0.016-3.013-0.049
			c-22.638-0.713-43.654-9.379-59.178-24.398c-15.435-14.934-23.581-34.371-22.939-54.732c0.925-29.302,19.798-54.84,48.747-66.846
			c0.858-0.318,2.191-0.855,3.811-1.481c10.705-3.424,34.947-4.807,54.418-1.414c1.835,0.319,3.584-0.909,3.904-2.745
			c0.319-1.837-0.909-3.584-2.746-3.904c-17.451-3.041-38.168-2.4-51.391,0.154c-0.96-1.479-2.116-3.055-3.323-4.696
			c-5.201-7.071-9.254-13.174-6.169-16.259c0.232-0.232,0.617-0.499,1.537-0.499c5.586,0,16.744,8.902,22.464,14.512
			c0.671,0.659,1.587,1.008,2.525,0.963c0.939-0.045,1.817-0.479,2.422-1.198c2.42-2.875,8.895-10.337,15.955-10.337
			c7.274,0,11.817,11.945,11.845,12.059c0.272,1.105,1.082,1.999,2.155,2.377c1.073,0.378,2.264,0.191,3.17-0.5
			c6.014-4.588,17.611-11.867,23.134-11.867c0.519,0,1.188,0.069,1.442,0.398c2.183,2.836-0.986,6.886-6.466,13.221
			c-2.157,2.494-4.388,5.073-6.162,7.742c-0.545,0.82-0.705,1.837-0.438,2.785c0.268,0.948,0.936,1.731,1.828,2.146
			C162.431,52.547,180.646,80.308,179.718,109.776z"/>
	</g>
</g>
<g>
</g>
<g>
</g>
<g>
</g>
<g>
</g>
<g>
</g>
<g>
</g>
<g>
</g>
<g>
</g>
<g>
</g>
<g>
</g>
<g>
</g>
<g>
</g>
<g>
</g>
<g>
</g>
<g>
</g>
</svg>
