<?xml version="1.0" encoding="iso-8859-1"?>
<!-- Generator: Adobe Illustrator 19.0.0, SVG Export Plug-In . SVG Version: 6.00 Build 0)  -->
<svg version="1.1" id="Capa_1" xmlns="http://www.w3.org/2000/svg" xmlns:xlink="http://www.w3.org/1999/xlink" x="0px" y="0px"
	 viewBox="0 0 205.51 205.51" style="enable-background:new 0 0 205.51 205.51;" xml:space="preserve">
<g>
	<g>
		<path d="M198.551,47.678c-1.636-1.159-38.396-27.782-94.426-29.195c-2.649-0.067-7.722,0.07-7.722,0.07
			c-7.019,0.23-14.139,0.927-21.161,2.072C34.587,27.256,7.736,47.103,6.612,47.946c-3.525,2.643-5.812,6.502-6.44,10.865
			c-0.629,4.37,0.482,8.717,3.125,12.236c3.099,4.141,8.037,6.614,13.208,6.614c1.981,0,3.932-0.361,5.771-1.052L34.1,95.138
			c0.642,1.005,1.776,1.599,2.958,1.557c1.192-0.04,2.275-0.706,2.847-1.753c4.703-8.595,13.703-13.934,23.488-13.934
			c14.757,0,26.763,12.006,26.763,26.764c0,6.305-4.729,23.115-26.319,25.164c-1.856,0.176-3.217,1.822-3.042,3.678
			c0.053,0.556,0.239,1.066,0.521,1.507h0.001l26.736,41.572c0.012,0.02,0.025,0.04,0.039,0.059c3,4.458,7.995,7.183,13.363,7.29
			c0.022,0.001,0.045,0.001,0.067,0.001l0.261,0.003c5.238,0,10.215-2.525,13.312-6.758c0.017-0.023,0.034-0.047,0.05-0.07
			l71.284-102.781c0.851,0.135,1.714,0.203,2.582,0.203h0.001c5.35,0,10.387-2.604,13.473-6.966
			C207.738,63.247,205.974,52.931,198.551,47.678z M109.625,176.332c-1.833,2.482-4.762,3.963-7.842,3.963l-0.198-0.002
			c-3.159-0.064-6.1-1.665-7.875-4.283l-23.904-37.17c10.813-2.312,17.133-8.012,20.64-12.721
			c4.764-6.396,6.461-13.671,6.461-18.348c0-18.479-15.034-33.514-33.513-33.514c-10.408,0-20.105,4.822-26.398,12.869
			l-8.893-13.935c7.191-4.702,35.859-21.735,73.626-21.735c21.328,0,57.675,11.944,78.356,23.281L109.625,176.332z M196.975,66.774
			c-1.823,2.577-4.8,4.115-7.963,4.115c-0.922,0-1.831-0.13-2.71-0.385l-0.002-0.001c-9.936-5.834-24.877-12.219-40.083-17.121
			c-17.353-5.594-33.152-8.675-44.489-8.675c-46.045,0-79.058,24.001-79.408,24.259c-0.215,0.162-3.99,1.944-5.816,1.944
			c-3.101,0-5.945-1.424-7.808-3.913c-1.561-2.078-2.217-4.644-1.845-7.224c0.372-2.581,1.724-4.864,3.808-6.427
			c1.069-0.801,26.63-19.692,65.667-26.06c6.737-1.098,13.565-1.767,20.269-1.986c0,0,6.663-0.08,7.429-0.068
			c51.666,0.762,89.057,26.844,90.624,27.954C199.036,56.291,200.079,62.386,196.975,66.774z"/>
	</g>
</g>
<g>
	<g>
		<path d="M130.431,61.077c-13.95,0-25.299,11.349-25.299,25.298c0,13.95,11.349,25.298,25.299,25.298
			c13.949,0,25.298-11.349,25.298-25.298C155.729,72.426,144.381,61.077,130.431,61.077z M130.431,104.924
			c-10.228,0-18.549-8.321-18.549-18.548s8.321-18.548,18.549-18.548c10.228,0,18.548,8.321,18.548,18.548
			S140.658,104.924,130.431,104.924z"/>
	</g>
</g>
<g>
	<g>
		<path d="M112.878,115.612c-9.3,0-16.866,7.565-16.866,16.866c0,9.3,7.566,16.865,16.866,16.865c9.3,0,16.865-7.565,16.865-16.865
			C129.743,123.178,122.178,115.612,112.878,115.612z M112.878,142.594c-5.578,0-10.116-4.538-10.116-10.115
			c0-5.578,4.538-10.116,10.116-10.116s10.115,4.538,10.115,10.116C122.993,138.056,118.456,142.594,112.878,142.594z"/>
	</g>
</g>
<g>
</g>
<g>
</g>
<g>
</g>
<g>
</g>
<g>
</g>
<g>
</g>
<g>
</g>
<g>
</g>
<g>
</g>
<g>
</g>
<g>
</g>
<g>
</g>
<g>
</g>
<g>
</g>
<g>
</g>
</svg>
