<?xml version="1.0" encoding="iso-8859-1"?>
<!-- Generator: Adobe Illustrator 19.0.0, SVG Export Plug-In . SVG Version: 6.00 Build 0)  -->
<svg version="1.1" id="Capa_1" xmlns="http://www.w3.org/2000/svg" xmlns:xlink="http://www.w3.org/1999/xlink" x="0px" y="0px"
	 viewBox="0 0 184.049 184.049" style="enable-background:new 0 0 184.049 184.049;" xml:space="preserve">
<g>
	<g>
		<path d="M137.937,47.134c-0.298,0-0.597,0.004-0.897,0.011c0-0.136,0.002-0.272,0.002-0.407C137.041,20.966,116.074,0,90.302,0
			S43.564,20.966,43.564,46.738c0,1.883,0.113,3.767,0.339,5.635C22.41,53.524,5.275,71.375,5.275,93.15
			c0,21.381,16.517,38.976,37.462,40.696v46.828c0,1.864,1.511,3.375,3.375,3.375h96.816c1.863,0,3.375-1.511,3.375-3.375v-52.73
			c18.518-3.871,32.472-20.322,32.472-39.973C178.774,65.453,160.455,47.134,137.937,47.134z M137.937,122.058
			c-6.151,0-12.177-1.656-17.427-4.787c-1.6-0.955-3.672-0.433-4.627,1.168c-0.955,1.602-0.432,3.674,1.17,4.629
			c6.295,3.754,13.516,5.74,20.884,5.74c0.541,0,1.08-0.014,1.616-0.035v48.528H49.488v-43.459c4.071-0.332,8.039-1.257,11.834-2.78
			c1.73-0.695,2.569-2.66,1.874-4.39c-0.695-1.729-2.66-2.567-4.39-1.874c-4.034,1.62-8.305,2.441-12.694,2.441
			c-18.795,0-34.087-15.291-34.087-34.087s15.291-34.087,34.087-34.087c0.485,0,1.012,0.013,1.609,0.041
			c1.031,0.048,2.05-0.389,2.727-1.186c0.676-0.796,0.946-1.86,0.73-2.883c-0.573-2.717-0.864-5.509-0.864-8.299
			c0-22.049,17.938-39.988,39.988-39.988c22.049,0,39.988,17.938,39.988,39.988c0,0.35-0.015,0.707-0.024,1.062
			c-3.919,0.807-10.599,3.279-15.412,10.857c-0.999,1.574-0.534,3.659,1.04,4.659c0.561,0.356,1.188,0.526,1.806,0.526
			c1.116,0,2.192-0.564,2.853-1.566c5.222-7.929,14.908-8.199,17.385-8.391c18.738-1.458,34.087,15.291,34.087,34.087
			C172.024,106.766,156.732,122.058,137.937,122.058z"/>
	</g>
</g>
<g>
</g>
<g>
</g>
<g>
</g>
<g>
</g>
<g>
</g>
<g>
</g>
<g>
</g>
<g>
</g>
<g>
</g>
<g>
</g>
<g>
</g>
<g>
</g>
<g>
</g>
<g>
</g>
<g>
</g>
</svg>
