<?xml version="1.0" encoding="iso-8859-1"?>
<!-- Generator: Adobe Illustrator 19.0.0, SVG Export Plug-In . SVG Version: 6.00 Build 0)  -->
<svg version="1.1" id="Capa_1" xmlns="http://www.w3.org/2000/svg" xmlns:xlink="http://www.w3.org/1999/xlink" x="0px" y="0px"
	 viewBox="0 0 217.66 217.66" style="enable-background:new 0 0 217.66 217.66;" xml:space="preserve">
<g>
	<g>
		<path d="M90.876,32.933c-7.766-9.901,3.209-23.403,3.375-23.605c1.176-1.41,0.988-3.507-0.421-4.684
			c-1.41-1.181-3.509-0.992-4.689,0.418C88.993,5.238,85.5,9.452,83.27,15.328c-3.129,8.242-2.31,15.75,2.368,21.713
			c8.372,10.673-1.511,26.355-1.608,26.507c-0.998,1.544-0.556,3.604,0.988,4.602c0.559,0.362,1.185,0.534,1.804,0.534
			c1.092,0,2.161-0.537,2.798-1.522C90.138,66.361,102.189,47.356,90.876,32.933z"/>
	</g>
</g>
<g>
	<g>
		<path d="M136.186,32.933c-7.766-9.901,3.209-23.403,3.376-23.605c1.177-1.41,0.988-3.507-0.421-4.684
			c-1.41-1.181-3.51-0.992-4.689,0.418c-0.146,0.177-3.641,4.391-5.871,10.267c-3.129,8.242-2.311,15.75,2.367,21.713
			c8.371,10.673-1.511,26.355-1.608,26.507c-0.998,1.544-0.557,3.604,0.988,4.602c0.559,0.362,1.185,0.534,1.803,0.534
			c1.093,0,2.162-0.537,2.799-1.522C135.448,66.361,147.498,47.356,136.186,32.933z"/>
	</g>
</g>
<g>
	<g>
		<path d="M112.591,32.689c-9.041-10.888,3.31-27.065,3.498-27.309c1.133-1.447,0.879-3.538-0.567-4.67
			c-1.446-1.134-3.539-0.881-4.673,0.566c-0.654,0.835-15.879,20.613-3.379,35.667c11.516,13.868-0.916,29.519-1.447,30.172
			c-1.165,1.422-0.956,3.519,0.466,4.684c0.619,0.506,1.365,0.753,2.107,0.753c0.963,0,1.919-0.416,2.577-1.22
			c0.169-0.206,4.162-5.131,6.369-12.244C120.563,49.357,118.852,40.228,112.591,32.689z"/>
	</g>
</g>
<g>
	<g>
		<path d="M188.233,87.812H108.83H29.428c-1.838,0-3.329,1.49-3.329,3.328v12.803c0,1.724,1.31,3.141,2.989,3.311
			c0.179,0.031,11.027,0.049,11.027,0.049c-0.244,7.096,0.55,26.023,14.15,41.322c4.829,5.433,10.745,9.808,17.707,13.125
			l-19.104,51.421c-0.64,1.725,0.238,3.641,1.961,4.28c0.382,0.142,0.774,0.209,1.159,0.209c1.351,0,2.622-0.83,3.12-2.17
			l19.014-51.181c8.016,2.883,17.207,4.561,27.528,5.026v41.144c0,1.788,1.411,3.242,3.18,3.319c1.769-0.077,3.18-1.532,3.18-3.319
			v-41.144c10.321-0.467,19.512-2.145,27.528-5.026l19.014,51.181c0.498,1.34,1.77,2.17,3.119,2.17c0.386,0,0.777-0.068,1.16-0.209
			c1.723-0.641,2.601-2.556,1.961-4.28l-19.104-51.421c6.962-3.317,12.878-7.692,17.707-13.125
			c13.601-15.297,14.394-34.225,14.149-41.322c0,0,10.849-0.019,11.027-0.049c1.68-0.17,2.989-1.587,2.989-3.311V91.14
			C191.563,89.301,190.071,87.812,188.233,87.812z M158.369,144.259c-10.033,11.246-25.613,17.428-46.359,18.416v-12.209
			c0-1.787-1.411-3.242-3.18-3.32c-1.769,0.078-3.18,1.534-3.18,3.32v12.209c-20.746-0.988-36.326-7.169-46.36-18.416
			c-12.131-13.598-12.696-31.056-12.499-36.954h62.039h62.04C171.065,113.202,170.5,130.661,158.369,144.259z M184.905,100.615
			H108.83H32.755V94.47h76.075h76.075V100.615z"/>
	</g>
</g>
<g>
</g>
<g>
</g>
<g>
</g>
<g>
</g>
<g>
</g>
<g>
</g>
<g>
</g>
<g>
</g>
<g>
</g>
<g>
</g>
<g>
</g>
<g>
</g>
<g>
</g>
<g>
</g>
<g>
</g>
</svg>
