<?xml version="1.0" encoding="iso-8859-1"?>
<!-- Generator: Adobe Illustrator 19.0.0, SVG Export Plug-In . SVG Version: 6.00 Build 0)  -->
<svg version="1.1" id="Capa_1" xmlns="http://www.w3.org/2000/svg" xmlns:xlink="http://www.w3.org/1999/xlink" x="0px" y="0px"
	 viewBox="0 0 212.02 212.02" style="enable-background:new 0 0 212.02 212.02;" xml:space="preserve">
<g>
	<g>
		<path d="M208.645,51.318h-72.278c-1.864,0-3.375,1.511-3.375,3.375c0,1.864,1.511,3.375,3.375,3.375h4.954
			c-1.705,17.982-16.891,32.095-35.311,32.095S72.403,76.051,70.699,58.068h46.643c1.863,0,3.375-1.511,3.375-3.375
			c0-1.864-1.512-3.375-3.375-3.375H3.375C1.511,51.318,0,52.829,0,54.693c0,28.316,11.027,54.937,31.049,74.96
			c20.023,20.023,46.644,31.049,74.961,31.049s54.938-11.026,74.961-31.049c20.022-20.023,31.049-46.644,31.049-74.96
			C212.02,52.829,210.51,51.318,208.645,51.318z M106.01,153.952c-53.603,0-97.418-42.708-99.203-95.884h57.118
			c1.725,21.709,19.942,38.845,42.085,38.845c22.145,0,40.36-17.137,42.084-38.845h57.118
			C203.428,111.244,159.613,153.952,106.01,153.952z"/>
	</g>
</g>
<g>
	<g>
		<path d="M82.545,60.126c-1.864,0-3.375,1.511-3.375,3.375v7.915c0,1.864,1.511,3.375,3.375,3.375c1.864,0,3.375-1.511,3.375-3.375
			v-7.915C85.92,61.637,84.409,60.126,82.545,60.126z"/>
	</g>
</g>
<g>
	<g>
		<path d="M94.545,68.123c-1.864,0-3.375,1.51-3.375,3.375v7.914c0,1.864,1.511,3.375,3.375,3.375s3.375-1.511,3.375-3.375v-7.914
			C97.92,69.634,96.409,68.123,94.545,68.123z"/>
	</g>
</g>
<g>
	<g>
		<path d="M107.145,71.526c-1.864,0-3.375,1.511-3.375,3.375v7.914c0,1.864,1.511,3.375,3.375,3.375
			c1.865,0,3.375-1.511,3.375-3.375v-7.914C110.52,73.037,109.01,71.526,107.145,71.526z"/>
	</g>
</g>
<g>
	<g>
		<path d="M120.045,68.123c-1.863,0-3.375,1.51-3.375,3.375v7.914c0,1.864,1.512,3.375,3.375,3.375c1.864,0,3.375-1.511,3.375-3.375
			v-7.914C123.42,69.634,121.909,68.123,120.045,68.123z"/>
	</g>
</g>
<g>
	<g>
		<path d="M130.995,60.126c-1.864,0-3.375,1.511-3.375,3.375v7.915c0,1.864,1.511,3.375,3.375,3.375s3.375-1.511,3.375-3.375v-7.915
			C134.369,61.637,132.858,60.126,130.995,60.126z"/>
	</g>
</g>
<g>
</g>
<g>
</g>
<g>
</g>
<g>
</g>
<g>
</g>
<g>
</g>
<g>
</g>
<g>
</g>
<g>
</g>
<g>
</g>
<g>
</g>
<g>
</g>
<g>
</g>
<g>
</g>
<g>
</g>
</svg>
