<?xml version="1.0" encoding="iso-8859-1"?>
<!-- Generator: Adobe Illustrator 19.0.0, SVG Export Plug-In . SVG Version: 6.00 Build 0)  -->
<svg version="1.1" id="Capa_1" xmlns="http://www.w3.org/2000/svg" xmlns:xlink="http://www.w3.org/1999/xlink" x="0px" y="0px"
	 viewBox="0 0 186.519 186.519" style="enable-background:new 0 0 186.519 186.519;" xml:space="preserve">
<g>
	<g>
		<path d="M184.385,28.742c1.947-1.686,2.646-4.437,1.745-6.839c-0.896-2.409-3.229-4.027-5.801-4.027H6.185
			c-2.576,0-4.842,1.552-5.773,3.955c-0.916,2.366-0.271,5.104,1.603,6.812l77.649,70.783v43.271
			c-10.42,0.494-19.902,1.651-26.91,3.297c-6.072,1.427-14.143,3.967-14.143,9.539c0,4.646,5.462,7.885,17.19,10.195
			c9.538,1.881,22.174,2.915,35.581,2.915c0.231,0,0.457-0.024,0.675-0.067c0.218,0.043,0.444,0.067,0.675,0.067
			c13.406,0,26.043-1.034,35.581-2.915c11.728-2.311,17.189-5.551,17.189-10.195c0-5.572-8.072-8.112-14.143-9.539
			c-6.971-1.637-16.39-2.791-26.744-3.289V98.019L184.385,28.742z M104.617,152.107v-2.647c20.404,0.997,30.758,4.187,33.581,6.052
			c-1.286,0.849-4.745,2.501-13.446,4.009c-8.826,1.528-20.197,2.37-32.02,2.37c-0.231,0-0.457,0.024-0.675,0.068
			c-0.218-0.044-0.444-0.068-0.675-0.068c-11.823,0-23.195-0.842-32.02-2.37c-8.701-1.507-12.16-3.16-13.446-4.009
			c2.831-1.871,13.233-5.073,33.748-6.06v2.656c0,1.864,1.511,3.375,3.375,3.375s3.375-1.511,3.375-3.375v-48.744l3.294,2.867
			c0.635,0.553,1.425,0.829,2.216,0.829c0.776,0,1.552-0.266,2.182-0.8l3.761-3.188v49.035c0,1.864,1.511,3.375,3.375,3.375
			C103.106,155.482,104.617,153.971,104.617,152.107z M91.953,99.237L46.028,59.259h63.187c1.864,0,2.476-1.511,2.476-3.375
			s-1.512-3.375-3.375-3.375H38.274L7.628,24.626h171.205l-32.107,27.883h-15.237c-1.864,0-3.375,1.511-3.375,3.375
			s1.511,3.375,3.375,3.375h7.465L91.953,99.237z"/>
	</g>
</g>
<g>
</g>
<g>
</g>
<g>
</g>
<g>
</g>
<g>
</g>
<g>
</g>
<g>
</g>
<g>
</g>
<g>
</g>
<g>
</g>
<g>
</g>
<g>
</g>
<g>
</g>
<g>
</g>
<g>
</g>
</svg>
