<?xml version="1.0" encoding="iso-8859-1"?>
<!-- Generator: Adobe Illustrator 19.0.0, SVG Export Plug-In . SVG Version: 6.00 Build 0)  -->
<svg version="1.1" id="Capa_1" xmlns="http://www.w3.org/2000/svg" xmlns:xlink="http://www.w3.org/1999/xlink" x="0px" y="0px"
	 viewBox="0 0 210.419 210.419" style="enable-background:new 0 0 210.419 210.419;" xml:space="preserve">
<g>
	<g>
		<path d="M200.697,99.724c-2.883,0-13.573-0.069-15.854-0.076l9.564-22.815c0.436-1.042,0.322-2.233-0.303-3.174
			c-0.626-0.941-1.682-1.506-2.811-1.506h-27.167l10.746-29.528c0.397-1.095,0.203-2.317-0.515-3.235
			c-0.718-0.917-1.86-1.401-3.017-1.275l-20.199,2.164l2.561-24.014c0.106-0.997-0.236-1.989-0.934-2.708
			c-0.698-0.719-1.678-1.092-2.678-1.015l-28.232,2.149l-4.354-12.433c-0.312-0.891-0.983-1.611-1.851-1.984
			c-0.868-0.373-1.853-0.366-2.714,0.02L88.397,11.29l-0.423-1.309c-0.287-0.889-0.93-1.62-1.776-2.017
			c-0.846-0.398-1.819-0.426-2.687-0.08l-32.315,12.9c-1.6,0.639-2.463,2.381-2,4.041l2.141,7.681l-21.436,0.187
			c-1.114,0.01-2.151,0.569-2.772,1.493c-0.621,0.925-0.746,2.097-0.333,3.131l8.702,21.831H17.251
			c-1.043,0-2.028,0.483-2.667,1.307c-0.639,0.825-0.861,1.899-0.601,2.909l9.2,35.722c-4.561-0.005-9.053-0.008-13.46-0.008
			c-1.864,0-3.375,1.511-3.375,3.375c0,23.013,0.65,41.837,8.828,57.195c7.267,13.649,20.109,24.116,42.294,34.245
			c-2.599,2.881-4.231,7.604-4.231,13.152c0,1.864,1.511,3.375,3.375,3.375h90.984c1.864,0,3.375-1.511,3.375-3.375
			c0-4.99-1.321-9.312-3.478-12.228c23.94-10.65,39.089-23.116,47.439-38.958c8.438-16.009,9.137-34.093,9.137-52.763
			C204.072,101.235,202.561,99.724,200.697,99.724z M186.22,78.903l-8.687,20.722c-7.703-0.025-15.521-0.053-23.373-0.084
			l7.51-20.638H186.22z M166.68,45.404l-19.691,54.109c-7.708-0.031-15.422-0.062-23.065-0.096v-0.344l20.199-51.252L166.68,45.404z
			 M120.065,21.598l26.499-2.017l-2.287,21.434l-2.905,0.312c-1.248,0.134-2.32,0.95-2.779,2.118l-14.668,37.219V44.982
			c0-1.075-0.512-2.085-1.379-2.721c-0.865-0.636-1.984-0.821-3.008-0.498l-1.381,0.434L120.065,21.598z M117.172,49.582
			l-0.037,49.804c-8.909-0.038-18.471-0.075-27.418-0.11V58.22L117.172,49.582z M112.348,7.957l2.701,7.715
			c-0.799,0.552-1.35,1.442-1.444,2.467l-2.433,26.254l-10.97,3.451l-9.72-30.093L112.348,7.957z M82.66,15.49l0.474,1.468
			c0.001,0.004,0.003,0.008,0.004,0.013l10.626,32.899l-8.435,2.654c-1.406,0.442-2.362,1.746-2.362,3.219v18.503L67.82,34.56
			c-0.503-1.318-1.76-2.177-3.183-2.171l-6.311,0.055l-1.815-6.515L82.66,15.49z M34.892,39.399l27.458-0.24l20.616,54.017v6.074
			c-6.472-0.025-12.921-0.048-19.316-0.069L51.503,61.487c-0.45-1.394-1.747-2.34-3.212-2.34h-5.527L34.892,39.399z M21.605,65.896
			h24.228l10.719,33.261c-8.959-0.027-17.786-0.048-26.396-0.062L21.605,65.896z M139.562,190.876
			c-0.012,0.005-0.023,0.011-0.035,0.016h-14.43c-1.864,0-3.375,1.511-3.375,3.375s1.511,3.375,3.375,3.375h15.425
			c0.999,0,2.717,2.268,3.403,6.029H60.286c0.687-3.762,2.405-6.029,3.404-6.029h35.759c1.864,0,3.375-1.511,3.375-3.375
			s-1.511-3.375-3.375-3.375H67.471c-0.008-0.003-0.015-0.008-0.023-0.011c-25.219-10.511-39.071-20.801-46.314-34.405
			c-6.492-12.191-7.914-26.839-8.028-50.647c33.132,0.01,181.533,0.644,184.206,0.645
			C197.043,143.327,191.724,169.384,139.562,190.876z"/>
	</g>
</g>
<g>
</g>
<g>
</g>
<g>
</g>
<g>
</g>
<g>
</g>
<g>
</g>
<g>
</g>
<g>
</g>
<g>
</g>
<g>
</g>
<g>
</g>
<g>
</g>
<g>
</g>
<g>
</g>
<g>
</g>
</svg>
