<?xml version="1.0" encoding="iso-8859-1"?>
<!-- Generator: Adobe Illustrator 19.0.0, SVG Export Plug-In . SVG Version: 6.00 Build 0)  -->
<svg version="1.1" id="Capa_1" xmlns="http://www.w3.org/2000/svg" xmlns:xlink="http://www.w3.org/1999/xlink" x="0px" y="0px"
	 viewBox="0 0 216.45 216.45" style="enable-background:new 0 0 216.45 216.45;" xml:space="preserve">
<g>
	<g>
		<path d="M216.45,131.263c0-10.422-7.552-19.203-17.735-21.675c0.713-2.701,1.002-6.297,0.86-10.783
			c-0.095-3.615-1.165-22.648-13.039-40.666c-6.778-10.286-15.867-18.445-27.015-24.249c-13.553-7.056-30.219-10.635-49.535-10.635
			c-0.578,0-2.944,0-3.522,0c-19.316,0-35.982,3.578-49.536,10.635c-11.147,5.804-20.236,13.962-27.014,24.249
			C18.041,76.157,16.969,95.19,16.875,98.805c-0.14,4.486,0.148,8.082,0.86,10.783C7.551,112.06,0,120.841,0,131.263
			c0,9.59,6.252,17.834,15.394,21c-0.501,1.898-1.398,15.533-1.136,22.521c0.465,12.402,2.262,17.52,6.416,18.249
			c1.246,0.216,173.855,0.216,175.101,0c4.154-0.729,5.951-5.847,6.416-18.249c0.262-6.988-0.635-20.624-1.137-22.521
			C210.198,149.097,216.45,140.854,216.45,131.263z M23.622,98.998c0.183-7.062,4.065-68.992,82.842-68.992c0.579,0,2.943,0,3.522,0
			c78.777,0,82.658,61.93,82.842,68.992c0.15,4.817-0.414,8.5-0.973,9.894H24.594C24.036,107.498,23.472,103.816,23.622,98.998z
			 M195.495,173.024c-0.239,9.072-1.19,12.359-1.636,13.418c-3.602,0.259-167.665,0.259-171.267,0
			c-0.445-1.059-1.397-4.348-1.636-13.418c-0.172-6.541,0.874-18.887,1.169-19.719c9.581,0,162.62,0,172.201,0
			C194.62,154.138,195.666,166.483,195.495,173.024z M196.334,146.556c-4.925,0-171.292,0-176.217,0
			c-7.792-1.5-13.366-7.816-13.366-15.293c0-8.613,7.548-15.621,16.826-15.621h169.298c9.278,0,16.826,7.008,16.826,15.621
			C209.7,138.739,204.126,145.056,196.334,146.556z"/>
	</g>
</g>
<g>
</g>
<g>
</g>
<g>
</g>
<g>
</g>
<g>
</g>
<g>
</g>
<g>
</g>
<g>
</g>
<g>
</g>
<g>
</g>
<g>
</g>
<g>
</g>
<g>
</g>
<g>
</g>
<g>
</g>
</svg>
