<?xml version="1.0" encoding="iso-8859-1"?>
<!-- Generator: Adobe Illustrator 19.0.0, SVG Export Plug-In . SVG Version: 6.00 Build 0)  -->
<svg version="1.1" id="Capa_1" xmlns="http://www.w3.org/2000/svg" xmlns:xlink="http://www.w3.org/1999/xlink" x="0px" y="0px"
	 viewBox="0 0 197.05 197.05" style="enable-background:new 0 0 197.05 197.05;" xml:space="preserve">
<g>
	<g>
		<path d="M98.525,37.059c-22.734,0-40.717,5.94-60.017,16.978C14.248,69.307,0,91.929,0,109.227
			c0,14.006,10.562,26.979,29.74,36.532c18.43,9.179,42.858,14.233,68.785,14.233s50.356-5.055,68.786-14.233
			c19.178-9.553,29.739-22.526,29.739-36.532C197.05,80.495,157.753,37.059,98.525,37.059z M116.819,45.327
			c10.004,1.678,19.605,4.729,28.498,9.042c-5.035,1.189-12.062,3.248-19.756,6.689c-4.098-3.165-8.529-6.109-13.283-8.804
			c-2.31-1.31-4.578-2.495-6.78-3.572C111.832,46.464,116.592,45.43,116.819,45.327z M118.782,64.389
			c-8.304,4.469-15.498,9.876-21.497,16.11C91.2,74.176,83.889,68.703,75.434,64.197c3.13-2.26,6.463-4.403,10.007-6.42
			c3.932-2.239,7.767-4.109,11.322-5.662c3.844,1.637,8.045,3.652,12.367,6.112C112.54,60.168,115.756,62.224,118.782,64.389z
			 M99.155,43.815c-0.788,0.307-1.595,0.63-2.423,0.97c-0.784-0.315-1.551-0.614-2.297-0.897
			C95.795,43.838,98.945,43.814,99.155,43.815z M77.743,45.77c0.23,0.106,4.528,1.044,10.258,2.991
			c-1.865,0.934-3.773,1.943-5.71,3.041c-4.897,2.776-9.453,5.814-13.654,9.089c-6.741-2.985-12.945-4.906-17.724-6.117
			C59.298,50.613,68.327,47.577,77.743,45.77z M164.301,139.716c-17.514,8.724-40.874,13.527-65.776,13.527
			c-24.903,0-48.263-4.804-65.776-13.527c-16.765-8.35-25.999-19.179-25.999-30.489c0-12.709,9.641-29.05,24.562-41.632
			c3.371-2.843,6.939-5.447,10.672-7.807c3.071,0.501,11.195,2.084,20.857,5.984c-12.093,10.98-20.608,24.221-25.015,39.104
			c-0.529,1.786,0.49,3.664,2.278,4.193c0.32,0.096,0.643,0.141,0.96,0.141c1.456,0,2.8-0.951,3.235-2.418
			C48.68,91.999,57.152,79.27,69.566,68.776c0.281,0.138,13.892,5.42,23.291,16.743c-6.729,8.341-11.548,17.934-14.267,28.577
			c-0.461,1.806,0.628,3.644,2.435,4.104c0.28,0.072,0.561,0.106,0.838,0.106c1.505,0,2.878-1.016,3.267-2.54
			c2.399-9.39,6.467-17.767,12.157-25.097c5.69,7.328,9.757,15.707,12.157,25.098c0.39,1.526,1.762,2.54,3.267,2.54
			c0.276,0,0.558-0.034,0.838-0.106c1.806-0.461,2.896-2.3,2.435-4.104c-2.719-10.643-7.537-20.235-14.266-28.576
			c6.028-6.341,13.452-11.765,22.254-16.231c0.232-0.118,0.465-0.23,0.696-0.346c12.597,10.547,21.187,23.37,25.606,38.298
			c0.435,1.467,1.778,2.417,3.234,2.417c0.316,0,0.641-0.045,0.96-0.14c1.787-0.529,2.808-2.407,2.278-4.194
			c-4.449-15.023-13.08-28.375-25.354-39.416c12.391-5.048,22.94-6.393,23.139-6.456c3.928,2.447,7.676,5.161,11.207,8.14
			c14.92,12.582,24.562,28.923,24.562,41.632C190.3,120.537,181.066,131.366,164.301,139.716z"/>
	</g>
</g>
<g>
</g>
<g>
</g>
<g>
</g>
<g>
</g>
<g>
</g>
<g>
</g>
<g>
</g>
<g>
</g>
<g>
</g>
<g>
</g>
<g>
</g>
<g>
</g>
<g>
</g>
<g>
</g>
<g>
</g>
</svg>
