<?xml version="1.0" encoding="iso-8859-1"?>
<!-- Generator: Adobe Illustrator 19.0.0, SVG Export Plug-In . SVG Version: 6.00 Build 0)  -->
<svg version="1.1" id="Capa_1" xmlns="http://www.w3.org/2000/svg" xmlns:xlink="http://www.w3.org/1999/xlink" x="0px" y="0px"
	 viewBox="0 0 196.82 196.82" style="enable-background:new 0 0 196.82 196.82;" xml:space="preserve">
<g>
	<g>
		<path d="M162.162,0h-12.705c-5.547,0-10.062,4.513-10.062,10.061v4.346c0,2.938,1.267,5.585,3.28,7.426L132.617,35.61
			l-51.953,0.109c-1.864,0.004-3.372,1.518-3.368,3.382c0.004,1.862,1.514,3.368,3.375,3.368c0.002,0,0.005,0,0.007,0l6.322-0.013
			v18.313h-48.93c-1.02,0-1.986,0.461-2.627,1.256c-5.715,7.083-7.832,14.633-6.294,22.441
			c2.177,11.051,11.335,20.141,18.598,25.803H27.971c-1.864,0-3.375,1.511-3.375,3.375v15.149c0,1.864,1.511,3.375,3.375,3.375
			h16.575v44.101H27.97c-1.864,0-3.375,1.511-3.375,3.375v13.8c0,1.864,1.511,3.375,3.375,3.375h121.802
			c1.864,0,3.375-1.511,3.375-3.375v-13.8c0-1.864-1.511-3.375-3.375-3.375h-16.574v-44.101h16.574c1.864,0,3.375-1.511,3.375-3.375
			v-15.149c0-1.864-1.511-3.375-3.375-3.375h-16.77c7.264-5.662,16.422-14.752,18.599-25.803c1.538-7.808-0.579-15.359-6.294-22.441
			c-0.641-0.795-1.605-1.256-2.627-1.256h-48.93V42.442l40.59-0.085c1.074-0.002,2.085-0.516,2.719-1.385l11.807-16.17
			c0.082-0.111,0.467-0.333,0.592-0.333h12.705c5.547,0,10.062-4.514,10.062-10.062v-4.346C172.224,4.514,167.709,0,162.162,0z
			 M146.396,183.021v7.051H31.345v-7.051h66.553c1.864,0,3.375-1.51,3.375-3.375c0-1.863-1.511-3.375-3.375-3.375H51.296v-44.1
			h75.15v44.1h-5.625c-1.865,0-3.375,1.512-3.375,3.375c0,1.865,1.51,3.375,3.375,3.375H146.396z M146.396,117.021v8.4H31.346v-8.4
			H58.77h63.209H146.396z M141.017,67.519c3.723,5.111,5.02,10.237,3.962,15.629c-2.717,13.841-20.129,24.874-23.907,27.122H59.677
			c-3.778-2.248-21.191-13.28-23.908-27.122c-1.058-5.392,0.239-10.518,3.963-15.629H141.017z M165.474,14.408
			c0,1.826-1.485,3.312-3.312,3.312h-12.705c-1.825,0-3.312-1.486-3.312-3.312v-4.346c0-1.825,1.486-3.311,3.312-3.311h12.705
			c1.826,0,3.312,1.485,3.312,3.311V14.408z"/>
	</g>
</g>
<g>
</g>
<g>
</g>
<g>
</g>
<g>
</g>
<g>
</g>
<g>
</g>
<g>
</g>
<g>
</g>
<g>
</g>
<g>
</g>
<g>
</g>
<g>
</g>
<g>
</g>
<g>
</g>
<g>
</g>
</svg>
