<?xml version="1.0" encoding="iso-8859-1"?>
<!-- Generator: Adobe Illustrator 19.0.0, SVG Export Plug-In . SVG Version: 6.00 Build 0)  -->
<svg version="1.1" id="Capa_1" xmlns="http://www.w3.org/2000/svg" xmlns:xlink="http://www.w3.org/1999/xlink" x="0px" y="0px"
	 viewBox="0 0 202.43 202.43" style="enable-background:new 0 0 202.43 202.43;" xml:space="preserve">
<g>
	<g>
		<path d="M200.896,92.483c-0.261-0.672-1.424-3.431-3.736-5.872c-15.902-16.803-35.046-28.825-56.935-35.774
			c0.314-1.725,0.486-3.499,0.486-5.313c0-7.763-3.005-14.835-7.908-20.123c3.473-2.686,4.387-3.381,6.128-3.87
			c2.201-0.619,3.493-0.046,4.567,0.356c2.842,1.064,4.078-2.55,2.662-4.6c-1.114-1.615-2.818-2.527-4.814-2.718
			c-2.938-0.281-6.352,1.261-9.281,3.103c0.094-5.187-0.908-11.376-5.56-14.366c-1.567-1.008-3.657-0.554-4.664,1.014
			c-1.008,1.568-0.554,3.656,1.015,4.664c2.2,1.415,2.686,6.095,2.359,10.506c-4.202-2.29-9.018-3.593-14.131-3.593
			c-16.337,0-29.63,13.291-29.63,29.63c0,2.955,0.44,5.807,1.249,8.502C7.94,117.108,6.613,118.719,6.064,119.286
			C0.873,124.652,0,128.015,0,133.337v60.416c0,3.369,2.517,5.909,5.856,5.909c0.392,0,0.794-0.036,1.193-0.105
			c2.376-0.41,80.826-13.643,138.107-23.305c25.14-4.24,45.487-7.672,51.856-8.747c2.27-0.356,4.977-1.671,4.977-5.907
			c0-0.184,0.44-48.884,0.44-61.67C202.429,96.488,201.161,93.144,200.896,92.483z M111.082,22.645
			c12.614,0,22.88,10.264,22.88,22.88c0,12.615-10.263,22.88-22.88,22.88c-12.616,0-22.88-10.264-22.88-22.881
			C88.202,32.908,98.465,22.645,111.082,22.645z M17.868,117.834c8.626-7.42,27.512-23.484,67.651-57.355
			c5.151,8.771,14.677,14.674,25.563,14.674c12.155,0,22.621-7.36,27.184-17.855c19.436,6.185,36.591,16.585,51.081,30.973
			c0.967,0.959,3.118,2.866-0.836,3.543c-24.903,4.265-167.469,27.735-169.237,28.076C17.335,120.262,14.86,120.563,17.868,117.834z
			 M195.263,155.292c-0.011,3.392-0.697,5.847-6.008,6.676c-9.541,1.49-25.968,4.38-45.222,7.628
			c-49.745,8.391-115.412,19.753-133.459,22.518c-2.463,0.377-3.792-1.331-3.741-4.576c0.227-14.306,0.84-53.233,0.84-55.799
			c0-3.148,3.308-3.628,3.308-3.628s177.207-29.274,179.718-29.763c2.511-0.489,4.729-0.4,4.729,2.868
			C195.428,103.86,195.311,140.887,195.263,155.292z"/>
	</g>
</g>
<g>
	<g>
		<path d="M70.797,83.73c-7.987,0-14.244,4.993-14.244,11.366c0.001,6.373,6.257,11.366,14.244,11.366S85.04,101.47,85.04,95.097
			C85.04,88.722,78.784,83.73,70.797,83.73z M70.797,99.713c-4.416,0-7.494-2.433-7.494-4.616c0-2.183,3.078-4.616,7.494-4.616
			c4.416,0,7.493,2.433,7.493,4.616C78.29,97.28,75.213,99.713,70.797,99.713z"/>
	</g>
</g>
<g>
	<g>
		<path d="M146.836,68.403c-7.987,0-14.243,4.993-14.243,11.366c0,6.375,6.256,11.366,14.243,11.366
			c7.986,0,14.244-4.993,14.244-11.366S154.822,68.403,146.836,68.403z M146.836,84.385c-4.416,0-7.493-2.433-7.493-4.616
			c0-2.184,3.077-4.616,7.493-4.616c4.416,0,7.494,2.433,7.494,4.616C154.33,81.953,151.253,84.385,146.836,84.385z"/>
	</g>
</g>
<g>
	<g>
		<path d="M107.694,77.088c-7.987,0-14.245,4.993-14.245,11.366c0.001,6.375,6.258,11.366,14.245,11.366
			c7.986,0,14.242-4.993,14.242-11.366C121.936,82.08,115.679,77.088,107.694,77.088z M107.694,93.071
			c-4.416,0-7.495-2.433-7.495-4.616c0.001-2.182,3.079-4.616,7.495-4.616c4.416,0,7.492,2.433,7.492,4.616
			S112.11,93.071,107.694,93.071z"/>
	</g>
</g>
<g>
	<g>
		<path d="M190.655,113.712c-1.346-1.282-3.479-1.228-4.767,0.114c-0.356,0.372-8.84,9.045-17.928,3.377
			c-11.554-7.205-19.498-5.523-29.313,6.201c-5.621,6.714-8.295,5.388-13.625,2.747c-5.994-2.973-14.205-7.042-26.152,4.507
			c-6.494,6.278-9.15,4.549-13.971,1.411c-5.274-3.436-12.499-8.139-23.937,2.259c-1.841,1.673-3.292,3.205-4.458,4.435
			c-2.446,2.581-3.337,3.419-4.527,3.463c-2.328,0.086-7.078-2.346-11.41-4.733c-5.29-2.916-10.415-3.562-15.233-1.915
			c-8.629,2.947-12.764,12.296-12.936,12.693c-0.741,1.71,0.045,3.696,1.755,4.438c0.437,0.19,0.892,0.279,1.34,0.279
			c1.305,0,2.547-0.761,3.099-2.034c0.03-0.07,3.182-7.028,8.924-8.989c2.984-1.019,6.187-0.549,9.792,1.439
			c7.676,4.231,11.574,5.686,14.914,5.567c4.048-0.146,6.427-2.657,9.182-5.564c1.146-1.209,2.444-2.579,4.099-4.084
			c7.581-6.893,10.816-4.785,15.712-1.598c5.057,3.294,11.984,7.803,22.346-2.214c8.521-8.238,12.908-6.064,18.464-3.312
			c5.387,2.671,12.765,6.327,21.798-4.462c8.74-10.441,13.178-9.413,20.564-4.807c11.043,6.888,22.097,0.095,26.399-4.46
			C192.063,117.119,192.002,114.994,190.655,113.712z"/>
	</g>
</g>
<g>
	<g>
		<path d="M191.936,138.217c-1.347-1.283-3.48-1.229-4.768,0.112c-0.356,0.372-8.841,9.046-17.929,3.377
			c-11.553-7.205-19.496-5.523-29.313,6.201c-5.621,6.714-8.296,5.388-13.623,2.747c-5.995-2.973-14.205-7.043-26.154,4.507
			c-6.493,6.278-9.149,4.549-13.97,1.41c-5.275-3.435-12.499-8.139-23.937,2.26c-1.841,1.673-3.292,3.205-4.458,4.435
			c-2.446,2.581-3.337,3.421-4.527,3.464c-2.329,0.086-7.078-2.346-11.41-4.733c-5.29-2.916-10.414-3.56-15.232-1.915
			c-8.629,2.947-12.764,12.297-12.936,12.693c-0.739,1.706,0.043,3.684,1.747,4.429c0.439,0.192,0.896,0.283,1.347,0.283
			c1.299,0,2.538-0.755,3.096-2.019c0.031-0.069,3.167-7.052,8.958-9.009c2.976-1.006,6.169-0.532,9.762,1.449
			c7.676,4.231,11.582,5.688,14.913,5.567c4.048-0.146,6.427-2.657,9.183-5.564c1.145-1.209,2.444-2.579,4.098-4.083
			c7.581-6.893,10.816-4.786,15.712-1.597c5.057,3.293,11.983,7.803,22.346-2.215c8.523-8.239,12.909-6.064,18.464-3.312
			c5.386,2.671,12.765,6.327,21.799-4.461c8.74-10.441,13.176-9.414,20.565-4.807c11.043,6.888,22.098,0.094,26.399-4.461
			C193.344,141.624,193.282,139.499,191.936,138.217z"/>
	</g>
</g>
<g>
</g>
<g>
</g>
<g>
</g>
<g>
</g>
<g>
</g>
<g>
</g>
<g>
</g>
<g>
</g>
<g>
</g>
<g>
</g>
<g>
</g>
<g>
</g>
<g>
</g>
<g>
</g>
<g>
</g>
</svg>
