<?xml version="1.0" encoding="iso-8859-1"?>
<!-- Generator: Adobe Illustrator 19.0.0, SVG Export Plug-In . SVG Version: 6.00 Build 0)  -->
<svg version="1.1" id="Capa_1" xmlns="http://www.w3.org/2000/svg" xmlns:xlink="http://www.w3.org/1999/xlink" x="0px" y="0px"
	 viewBox="0 0 210.039 210.039" style="enable-background:new 0 0 210.039 210.039;" xml:space="preserve">
<g>
	<g>
		<path d="M187.731,118.94c-0.178-1.414-1.225-2.564-2.616-2.873l-31.677-7.039c-0.007-0.001-0.014-0.001-0.02-0.003
			c-0.013-0.003-0.025-0.007-0.037-0.01l-17.807-3.633c-1.827-0.372-3.609,0.807-3.981,2.633c-0.373,1.825,0.806,3.608,2.632,3.98
			l8.328,1.699l-17.694,8.992c10.695-69.805,16.153-110.461,16.208-110.873c0.247-1.844-1.045-3.539-2.887-3.792l-10.432-1.429
			c-1.83-0.249-3.534,1.027-3.799,2.863L106.3,132.118l-1.528,0.776l-3.379-1.651c0.108-0.336,0.168-0.694,0.164-1.065
			c-0.57-62.435-2.164-126.248-2.181-126.886c-0.023-0.904-0.407-1.761-1.068-2.379c-0.661-0.619-1.544-0.95-2.445-0.909
			l-10.51,0.432c-1.837,0.076-3.276,1.608-3.236,3.446l2.614,119.223l-17.548-8.573l12.069-2.338
			c1.83-0.355,3.026-2.125,2.672-3.955c-0.355-1.831-2.128-3.025-3.955-2.672l-21.07,4.081c-0.153,0.029-0.299,0.072-0.443,0.121
			c-0.173,0.009-0.347,0.028-0.518,0.064l-30.983,6.57c-1.415,0.3-2.481,1.468-2.651,2.904c-0.17,1.436,0.593,2.82,1.899,3.443
			l26.651,12.708l6.406,53.228c0.145,1.208,0.931,2.245,2.055,2.713l44.19,18.38c0.093,0.039,0.187,0.071,0.282,0.102
			c0.01,0.003,0.019,0.007,0.029,0.01c0.147,0.045,0.295,0.076,0.443,0.101c0.029,0.004,0.058,0.009,0.087,0.013
			c0.152,0.021,0.303,0.035,0.454,0.035c0.01,0,0.019-0.002,0.029-0.002c0.134-0.001,0.268-0.012,0.402-0.028
			c0.036-0.006,0.072-0.01,0.108-0.016c0.139-0.021,0.276-0.052,0.413-0.092c0.021-0.006,0.04-0.014,0.061-0.02
			c0.071-0.022,0.142-0.045,0.211-0.071l47.318-18.38c1.132-0.439,1.94-1.453,2.117-2.654l8.114-55.087l22.336-11.319
			C187.181,121.728,187.91,120.354,187.731,118.94z M92.713,6.889c0.332,13.889,1.567,67.734,2.075,121.127l-3.23-1.578L88.94,7.044
			L92.713,6.889z M36.094,120.944l20.11-4.264l39.856,19.472l-16.186,5.668L36.094,120.944z M101.427,201.608l-37.699-15.681
			l-5.66-47.027l20.156,9.611c0.458,0.218,0.955,0.328,1.453,0.328c0.376,0,0.753-0.062,1.115-0.189l20.636-7.226V201.608z
			 M130.155,13.736l3.771,0.516c-1.552,11.335-7.077,51.079-16.472,112.198l-3.796,1.929L130.155,13.736z M149.067,185.852
			l-40.891,15.883v-60.366l21.6,7.294c0.826,0.279,1.729,0.228,2.517-0.143l23.932-11.255L149.067,185.852z M157.419,129.243
			l-26.771,12.589l-17.161-5.795l39.669-20.158l21.294,4.732L157.419,129.243z"/>
	</g>
</g>
<g>
</g>
<g>
</g>
<g>
</g>
<g>
</g>
<g>
</g>
<g>
</g>
<g>
</g>
<g>
</g>
<g>
</g>
<g>
</g>
<g>
</g>
<g>
</g>
<g>
</g>
<g>
</g>
<g>
</g>
</svg>
