<?xml version="1.0" encoding="iso-8859-1"?>
<!-- Generator: Adobe Illustrator 19.0.0, SVG Export Plug-In . SVG Version: 6.00 Build 0)  -->
<svg version="1.1" id="Capa_1" xmlns="http://www.w3.org/2000/svg" xmlns:xlink="http://www.w3.org/1999/xlink" x="0px" y="0px"
	 viewBox="0 0 151.131 151.131" style="enable-background:new 0 0 151.131 151.131;" xml:space="preserve">
<g>
	<g>
		<path d="M131.105,14.74h-2.199C120.987,5.352,109.525,0,97.199,0H53.932C41.601,0,30.14,5.353,22.223,14.74h-2.2
			c-9.865,0-17.89,8.025-17.89,17.888c0,8.896,6.526,16.294,15.042,17.664l1.69,14.861l0.022,0.176
			c0.001,0.003,0.001,0.004,0.001,0.004v0.004l8.38,66.94c0,0,0,0.006,0,0.008l1.534,12.259c0.47,3.755,3.679,6.586,7.464,6.586
			h78.597c3.789,0,6.998-2.832,7.466-6.587l1.532-12.258v-0.006l8.383-66.94v-0.004l1.711-15.043
			c8.515-1.37,15.042-8.768,15.042-17.664C148.997,22.766,140.97,14.74,131.105,14.74z M53.932,6.75h43.267
			c8.229,0,16,2.849,22.175,7.99H31.754C37.928,9.599,45.7,6.75,53.932,6.75z M115.631,143.707
			c-0.048,0.384-0.378,0.673-0.767,0.673H36.265c-0.389,0-0.718-0.29-0.766-0.675l-1.059-8.463h82.25L115.631,143.707z
			 M117.534,128.491H33.595l-7.536-60.197h99.012L117.534,128.491z M131.105,43.772h-11.437c-1.864,0-3.375,1.511-3.375,3.375
			c0,1.864,1.511,3.375,3.375,3.375h7.468l-1.251,11.021H25.247l-1.253-11.021h69.873c1.863,0,3.375-1.511,3.375-3.375
			c0-1.864-1.512-3.375-3.375-3.375H20.023c-6.143,0-11.14-4.999-11.14-11.143c0-6.142,4.998-11.138,11.14-11.138h3.804h103.476
			h3.802c6.144,0,11.143,4.997,11.143,11.138C142.247,38.773,137.248,43.772,131.105,43.772z"/>
	</g>
</g>
<g>
</g>
<g>
</g>
<g>
</g>
<g>
</g>
<g>
</g>
<g>
</g>
<g>
</g>
<g>
</g>
<g>
</g>
<g>
</g>
<g>
</g>
<g>
</g>
<g>
</g>
<g>
</g>
<g>
</g>
</svg>
