<?xml version="1.0" encoding="iso-8859-1"?>
<!-- Generator: Adobe Illustrator 19.0.0, SVG Export Plug-In . SVG Version: 6.00 Build 0)  -->
<svg version="1.1" id="Capa_1" xmlns="http://www.w3.org/2000/svg" xmlns:xlink="http://www.w3.org/1999/xlink" x="0px" y="0px"
	 viewBox="0 0 207.229 207.229" style="enable-background:new 0 0 207.229 207.229;" xml:space="preserve">
<g>
	<g>
		<path d="M159.976,36.311c-21.511-3.614-37.621,3.968-46.495,9.347c-0.032-5.269-0.034-12.801,0.152-17.448
			c0.028-0.741,0.339-1.07,3.113-2.365c1.86-0.868,4.175-1.949,6.226-3.904c3.438-3.288,1.893-11.012,0.665-15.324
			c-0.259-0.912-0.892-1.672-1.739-2.096c-0.848-0.423-1.836-0.47-2.72-0.129c-0.227,0.087-5.592,2.168-11.084,5.465
			c-8.075,4.847-12.275,9.867-12.485,14.919c-0.265,6.365-0.225,14.377-0.14,20.104c-7.187-4.321-21.06-10.263-42.042-9.273
			c-16.03,0.757-29.581,6.93-39.187,17.853C4.638,64.376-0.282,79.242,0.012,96.431c0.269,21.79,9.569,44.503,25.512,62.315
			c14.62,16.334,33.108,26.481,48.249,26.481c4.58,0,8.487-0.057,11.831-0.178l-0.471,2.325c-0.009,0.046-0.018,0.092-0.025,0.139
			c-0.408,2.561,0.643,5.096,2.745,6.618c1.556,1.125,3.462,1.53,5.282,1.181l0.674,2.619c0.74,2.872,3.225,4.93,6.164,5.118
			c0.155,0.011,0.307,0.015,0.46,0.015c2.609,0,4.943-1.451,6.1-3.746c1.805,1.111,4.046,1.332,6.094,0.521
			c1.744-0.691,3.08-2.029,3.776-3.678c2.356,0.598,4.843-0.092,6.561-1.842c1.544-1.574,3.206-5.211,2.308-7.945
			c-0.054-0.164-0.119-0.322-0.198-0.475c0,0-1.224-0.666-2.8-1.476c3.324,0.511,7.018,0.905,11.026,0.905
			c15.542,0,33.994-8.527,48.156-22.254c16.338-15.834,25.484-36.584,25.755-58.416C207.863,66.376,190.647,41.463,159.976,36.311z
			 M102.35,25.057c0.17-4.086,8.448-9.477,15.623-12.815c0.358,2.218,0.456,4.196,0.184,4.959c-1.224,1.107-2.769,1.828-4.265,2.527
			c-2.871,1.34-6.803,3.176-7.003,8.212c-0.222,5.562-0.184,15.046-0.139,20.204c0,0.004,0.001,0.009,0.001,0.013l-4.475,0.004
			C102.164,42.716,102.033,32.65,102.35,25.057z M200.461,104.563c-0.248,20.035-8.666,39.096-23.702,53.668
			c-12.952,12.553-29.604,20.35-43.459,20.35c-5.333,0-10.173-0.785-14.203-1.553c-1.831-0.351-3.598,0.852-3.947,2.682
			c-0.144,0.756-0.021,1.498,0.298,2.136c0.004,0.009,0.004,0.017,0.01,0.024l3.278,6.457c-0.11,0.418-0.395,1.043-0.59,1.269
			c-0.024,0.024-0.058,0.035-0.091,0.024l-3.495-1.072c-1.023-0.314-2.136-0.123-2.996,0.513c-0.861,0.638-1.369,1.644-1.369,2.714
			v1.711c0,0.036-0.021,0.069-0.055,0.082c-0.035,0.014-0.073,0.006-0.098-0.021l-2.296-2.439c-0.789-0.839-1.952-1.217-3.086-1.003
			c-1.133,0.216-2.077,0.992-2.506,2.063l-1.639,4.097c-0.015,0.038-0.051,0.056-0.089,0.056h-0.001
			c-0.037-0.004-0.07-0.031-0.08-0.066l-1.658-6.438c-0.256-0.993-0.951-1.817-1.888-2.237c-0.937-0.42-2.014-0.392-2.928,0.08
			l-1.97,1.016c-0.031,0.016-0.067,0.013-0.093-0.006c-0.023-0.016-0.036-0.041-0.038-0.068l0.803-3.966
			c4.22-0.39,7.083-0.983,9.082-1.826c1.717-0.724,2.522-2.704,1.798-4.422s-2.704-2.522-4.421-1.798
			c-4.024,1.697-16.345,1.894-25.262,1.894c-26.061,0-66.451-36.794-67.012-82.146C6.222,64.912,24.664,43.723,53.742,42.351
			c28.678-1.353,42.781,11.515,42.91,11.636c0.627,0.597,1.46,0.929,2.326,0.929h0.004l11.62-0.011
			c0.669-0.001,1.323-0.2,1.878-0.573c6.241-4.191,22.818-15.323,46.378-11.363C195.865,49.184,200.808,84.217,200.461,104.563z"/>
	</g>
</g>
<g>
</g>
<g>
</g>
<g>
</g>
<g>
</g>
<g>
</g>
<g>
</g>
<g>
</g>
<g>
</g>
<g>
</g>
<g>
</g>
<g>
</g>
<g>
</g>
<g>
</g>
<g>
</g>
<g>
</g>
</svg>
