<?xml version="1.0" encoding="iso-8859-1"?>
<!-- Generator: Adobe Illustrator 19.0.0, SVG Export Plug-In . SVG Version: 6.00 Build 0)  -->
<svg version="1.1" id="Capa_1" xmlns="http://www.w3.org/2000/svg" xmlns:xlink="http://www.w3.org/1999/xlink" x="0px" y="0px"
	 viewBox="0 0 187.481 187.481" style="enable-background:new 0 0 187.481 187.481;" xml:space="preserve">
<g>
	<g>
		<path d="M158.22,39.64c-16.2-11.917-36.047-18.217-57.395-18.217c-18.445,0-36.029,4.673-49.035,11.119
			c-0.027-0.013-0.051-0.028-0.079-0.04c-0.906-0.409-22.306-9.906-32.932,0.159c-1.353,1.282-1.411,3.418-0.129,4.771
			c1.282,1.353,3.418,1.41,4.771,0.129c4.684-4.437,14.265-2.743,20.733-0.695c-5.412,3.513-9.498,7.311-11.803,11.04
			c-4.434-0.627-21.042-2.203-31.286,7.419c-1.359,1.276-1.426,3.412-0.149,4.771c0.665,0.707,1.561,1.064,2.461,1.064
			c0.828,0,1.658-0.303,2.31-0.915c7.277-6.835,19.657-6.312,24.498-5.798c-0.064,2.202,0.597,4.265,1.984,6.048
			c2.204,2.834,4.845,5.103,7.799,6.925c-5.599,2.882-14.984,6.651-24.211,5.536c-1.847-0.224-3.532,1.095-3.756,2.945
			s1.095,3.532,2.945,3.756c1.409,0.17,2.813,0.248,4.205,0.248c12.644,0,24.264-6.447,28.317-8.963
			c7.03,2.453,15.02,3.316,22.9,3.562c-6.017,5.689-18.879,14.367-42.3,15.868c-1.86,0.119-3.272,1.724-3.152,3.584
			c0.114,1.785,1.599,3.158,3.365,3.158c0.072,0,0.146-0.002,0.219-0.006C61.348,95,75.535,79.687,79.395,74.565
			c3.556-0.045,7.119-0.151,10.592-0.257c4.433-0.134,8.621-0.261,12.666-0.261c8.81,0,15.24,0.692,19.738,2.284
			c0.025,0.01,0.052,0.019,0.076,0.029c5.726,2.05,8.293,5.575,8.633,11.013c0.582,9.321-2.357,17.237-8.909,23.887
			c-0.205,0.165-0.391,0.35-0.55,0.555c-4.729,4.607-11.234,8.594-19.554,12.004c-2.56,1.049-5.206,2.002-7.901,2.877
			c-5.549-0.859-37.351-5.666-53.767-5.666c-6.819,0-11.276,0.691-12.423,4.133c-0.526,1.58-0.356,3.231,0.495,4.777
			c1.593,2.893,5.901,5.291,10.303,7.086c-0.744,0.118-1.439,0.236-2.075,0.355c-2.734,0.512-6.479,1.212-7.173,4.27
			c-0.187,0.826-0.351,2.922,2.168,4.553l0.91,0.592c8.086,5.268,29.567,19.263,60.073,19.263c17.024,0,34.378-4.36,51.579-12.962
			c5.789-2.895,11.662-7.021,17.094-11.919c0.073-0.06,0.143-0.124,0.211-0.19c3.661-3.322,7.119-6.99,10.201-10.881
			c6.347-8.008,14.188-20.803,15.513-36.287C188.5,79.746,184.432,58.922,158.22,39.64z M124.096,69.788
			c-6.578-2.185-14.814-2.491-21.44-2.491c-4.148,0.001-8.386,0.129-12.871,0.265c-4.475,0.136-9.103,0.276-13.618,0.276
			c-14.704,0-30.796-1.365-38.67-11.489c-0.313-0.403-1.145-1.472,0.073-3.961c4.829-9.874,31.871-24.217,63.253-24.217
			c19.296,0,37.243,5.497,52.02,15.915c-0.096,2.307-0.618,6.941-3.068,11.595C145.326,64.134,136.681,68.872,124.096,69.788z
			 M35.77,127.981c1.036-0.111,2.527-0.199,4.652-0.199c8.087,0,20.399,1.262,31.175,2.598l-21.12,3.365
			C44.421,132.182,38.439,129.792,35.77,127.981z M141.259,147.06c-16.255,8.128-32.592,12.249-48.559,12.249
			c-24.53,0-42.956-9.777-52.476-15.67c2.581-0.398,5.749-0.805,8.717-1.188c14.789-1.9,37.136-4.772,55.711-12.387
			c7.309-2.996,13.421-6.488,18.332-10.459c4.201,8.896,11.272,15.489,20.701,19.204c2.612,1.029,5.112,1.722,7.315,2.187
			C147.761,143.407,144.474,145.452,141.259,147.06z M157.97,135.161c-4.789-0.281-22.659-2.547-29.766-20.448
			c4.232-4.642,7.085-9.83,8.553-15.544c5.449,1.859,15.89,4.867,26.452,4.867c5.561,0,11.152-0.844,16.066-3.119
			C176.02,113.926,167.673,126.073,157.97,135.161z M180.645,92.14c-11.803,10.007-35.33,2.884-42.811,0.243
			c0.117-1.767,0.121-3.576,0.005-5.43c-0.298-4.769-1.884-8.674-4.716-11.695c7.795-1.821,14.03-5.345,18.589-10.547
			c4.669-5.327,6.6-11.328,7.385-15.809C174.395,61.701,181.632,76.219,180.645,92.14z"/>
	</g>
</g>
<g>
	<g>
		<path d="M72.748,39.425c-5.876,0-10.656,4.78-10.656,10.656c0,5.876,4.78,10.656,10.656,10.656c5.876,0,10.656-4.78,10.656-10.656
			C83.404,44.205,78.624,39.425,72.748,39.425z M72.748,53.987c-2.154,0-3.906-1.752-3.906-3.906c0-2.154,1.753-3.906,3.906-3.906
			c2.154,0,3.906,1.752,3.906,3.906C76.654,52.235,74.902,53.987,72.748,53.987z"/>
	</g>
</g>
<g>
</g>
<g>
</g>
<g>
</g>
<g>
</g>
<g>
</g>
<g>
</g>
<g>
</g>
<g>
</g>
<g>
</g>
<g>
</g>
<g>
</g>
<g>
</g>
<g>
</g>
<g>
</g>
<g>
</g>
</svg>
