<?xml version="1.0" encoding="iso-8859-1"?>
<!-- Generator: Adobe Illustrator 19.0.0, SVG Export Plug-In . SVG Version: 6.00 Build 0)  -->
<svg version="1.1" id="Capa_1" xmlns="http://www.w3.org/2000/svg" xmlns:xlink="http://www.w3.org/1999/xlink" x="0px" y="0px"
	 viewBox="0 0 190.87 190.87" style="enable-background:new 0 0 190.87 190.87;" xml:space="preserve">
<g>
	<g>
		<path d="M187.495,3.494c-7.096,0-49.444,0-92.023,0c-0.025,0-0.05,0-0.075,0c-42.578,0-84.927,0-92.023,0
			C1.511,3.494,0,5.004,0,6.869c0,19.133,8.214,39.514,21.971,54.517C32.61,72.988,51.23,86.516,81.586,89.88
			c-3.879,3.754-6.297,9.009-6.297,14.818c0,7.836,3.638,14.296,9.848,17.71l0.266,35.88c-13.136,0.484-25.163,1.878-33.872,3.923
			c-10.89,2.558-15.962,5.901-15.962,10.524c0,5.078,6.187,8.662,19.469,11.281c10.835,2.135,25.143,3.324,40.357,3.36v0.001
			c0.013,0,0.025,0,0.038,0c0.012,0,0.025,0,0.038,0v-0.001c15.213-0.036,29.522-1.226,40.358-3.36
			c13.284-2.619,19.469-6.203,19.469-11.281c0-4.622-5.072-7.967-15.962-10.524c-8.709-2.045-20.736-3.438-33.872-3.923l0.267-35.88
			c6.209-3.413,9.848-9.874,9.848-17.71c0-5.812-2.418-11.065-6.297-14.818c30.356-3.365,48.976-16.894,59.615-28.494
			c13.758-15.003,21.971-35.382,21.971-54.517C190.87,5.004,189.358,3.494,187.495,3.494z M101.102,117.145
			c-1.265,0.513-2.096,1.738-2.105,3.102l-0.376,50.724c-0.015,1.864,1.485,3.387,3.351,3.4c0.008,0,0.017,0,0.025,0
			c1.854,0,3.361-1.495,3.375-3.35l0.044-5.981c11.572,0.437,22.362,1.606,30.404,3.302c8.597,1.812,11.521,3.629,12.434,4.403
			c-1.257,1.063-5.521,3.216-15.908,5.054c-10.142,1.795-23.227,2.795-36.912,2.827c-13.685-0.032-26.77-1.032-36.912-2.827
			c-10.387-1.838-14.652-3.99-15.908-5.054c0.913-0.774,3.837-2.591,12.434-4.403c8.043-1.695,18.833-2.865,30.404-3.302
			l0.044,5.981c0.014,1.854,1.522,3.35,3.375,3.35c0.008,0,0.017,0,0.025,0c1.864-0.014,3.364-1.536,3.35-3.4l-0.376-50.724
			c-0.01-1.365-0.841-2.589-2.106-3.102c-4.982-2.021-7.726-6.442-7.726-12.448c0-7.492,5.966-13.611,13.396-13.87
			c7.43,0.258,13.396,6.378,13.396,13.87C108.83,110.704,106.086,115.123,101.102,117.145z M163.924,56.823
			c-16.113,17.57-39.784,26.924-68.489,27.092c-28.705-0.167-52.377-9.523-68.488-27.092C15.11,43.916,7.738,26.731,6.842,10.245
			c6.857,0.002,47.593,0.004,88.556,0.004c0.025,0,0.05,0,0.075,0c40.961,0,81.699-0.001,88.556-0.004
			C183.132,26.731,175.759,43.916,163.924,56.823z"/>
	</g>
</g>
<g>
</g>
<g>
</g>
<g>
</g>
<g>
</g>
<g>
</g>
<g>
</g>
<g>
</g>
<g>
</g>
<g>
</g>
<g>
</g>
<g>
</g>
<g>
</g>
<g>
</g>
<g>
</g>
<g>
</g>
</svg>
