<?xml version="1.0" encoding="iso-8859-1"?>
<!-- Generator: Adobe Illustrator 19.0.0, SVG Export Plug-In . SVG Version: 6.00 Build 0)  -->
<svg version="1.1" id="Capa_1" xmlns="http://www.w3.org/2000/svg" xmlns:xlink="http://www.w3.org/1999/xlink" x="0px" y="0px"
	 viewBox="0 0 214.921 214.921" style="enable-background:new 0 0 214.921 214.921;" xml:space="preserve">
<g>
	<g>
		<path d="M142.786,56.182l0.504,0.354c1.026,0.721,2.371,0.812,3.486,0.236c1.116-0.576,1.819-1.724,1.827-2.979
			c0.016-2.535-0.093-25.002-8.351-33.31c-2.266-2.278-5.046-3.43-8.066-3.312c-4.334,0.164-9.735,0.372-15.455,0.596l0.096-14.475
			c-0.047-1.849-1.573-3.31-3.419-3.292h-11.895c-1.847-0.018-3.374,1.443-3.419,3.292l0.095,14.475
			c-5.719-0.224-11.121-0.432-15.455-0.596c-3.02-0.118-5.801,1.033-8.067,3.312c-8.258,8.307-8.366,30.775-8.351,33.31
			c0.007,1.256,0.711,2.403,1.827,2.979c1.116,0.576,2.459,0.485,3.487-0.236l0.504-0.354
			C66.965,76.669,54.54,128.21,54.566,165.838c0.009,12.719,4.358,23.672,12.486,32.992c10.708,12.278,26.827,15.598,39.383,16.081
			c0.343,0.013,1.707,0.013,2.05,0c12.557-0.483,28.676-3.803,39.384-16.081c8.128-9.32,12.477-20.273,12.485-32.992
			C160.38,128.209,147.955,76.669,142.786,56.182z M79.456,25.24c1.183-1.19,2.196-1.327,2.855-1.327
			c0.053,0,12.074,0.46,19.035,0.733c0.912,0.035,1.783-0.293,2.442-0.911c0.659-0.618,1.042-1.475,1.065-2.379L104.76,6.795h5.401
			l-0.094,14.562c0.022,0.903,0.406,1.76,1.065,2.379c0.659,0.618,1.53,0.946,2.441,0.911c6.961-0.274,18.982-0.733,19.035-0.733
			c0.659,0,1.672,0.138,2.855,1.327c3.937,3.958,6.128,21.858,6.128,21.858l-18.385-12.9c-0.589-0.413-1.267-0.612-1.937-0.612
			c-1.023,0-2.034,0.465-2.697,1.342l-11.114,14.722L96.344,34.926c-0.662-0.877-1.672-1.342-2.697-1.342
			c-0.67,0-1.347,0.199-1.936,0.612l-18.385,12.9C73.328,47.098,75.519,29.198,79.456,25.24z M108.225,208.165
			c-0.256,0.01-1.274,0.01-1.53,0c-21.897-0.842-45.329-14.89-44.929-42.332c0.626-42.934,16.513-106.678,18.896-115.635
			l12.26-8.603l11.877,15.734c0.632,0.836,1.615,1.331,2.662,1.341c1.047-0.01,2.03-0.505,2.663-1.341L122,41.595l12.26,8.603
			c2.383,8.957,18.27,72.701,18.896,115.635C153.554,193.275,130.123,207.323,108.225,208.165z"/>
	</g>
</g>
<g>
</g>
<g>
</g>
<g>
</g>
<g>
</g>
<g>
</g>
<g>
</g>
<g>
</g>
<g>
</g>
<g>
</g>
<g>
</g>
<g>
</g>
<g>
</g>
<g>
</g>
<g>
</g>
<g>
</g>
</svg>
