<?xml version="1.0" encoding="iso-8859-1"?>
<!-- Generator: Adobe Illustrator 19.0.0, SVG Export Plug-In . SVG Version: 6.00 Build 0)  -->
<svg version="1.1" id="Capa_1" xmlns="http://www.w3.org/2000/svg" xmlns:xlink="http://www.w3.org/1999/xlink" x="0px" y="0px"
	 viewBox="0 0 214.681 214.681" style="enable-background:new 0 0 214.681 214.681;" xml:space="preserve">
<g>
	<g>
		<path d="M214.681,108.071c0-10.456-8.506-18.961-18.961-18.961h-0.422c3.674-4.122,5.835-9.527,5.835-15.337
			c0-12.716-10.344-23.061-23.059-23.061h-70.733H36.607c-12.715,0-23.059,10.345-23.059,23.061c0,5.81,2.161,11.215,5.835,15.337
			h-0.422C8.506,89.11,0,97.616,0,108.071c0,10.207,8.108,18.552,18.22,18.942c-2.98,3.941-4.672,8.798-4.672,13.897
			c0,12.716,10.344,23.06,23.059,23.06h70.734h70.733c12.716,0,23.06-10.344,23.06-23.06c0-5.1-1.692-9.956-4.672-13.897
			C206.572,126.623,214.681,118.277,214.681,108.071z M36.607,57.462h141.467c8.992,0,16.309,7.317,16.309,16.311
			c0,6.903-4.309,13.002-10.773,15.337H31.073c-6.465-2.335-10.775-8.434-10.775-15.337C20.298,64.779,27.614,57.462,36.607,57.462z
			 M195.721,120.282h-7.38h-0.001h-6.253c-1.864,0-3.375,1.512-3.375,3.375c0,1.678,1.231,3.328,2.828,3.328
			c3.237,0,5.772,0.455,6.801,1.271c3.169,2.514,6.042,7.701,6.042,12.653c0,8.994-7.316,16.31-16.309,16.31h-70.733H36.607
			c-8.993,0-16.309-7.315-16.309-16.31c0-5.664,2.958-10.906,7.765-13.879l130.843,0.002c1.865,0,3.375-1.512,3.375-3.375
			c0-1.864-1.51-3.375-3.375-3.375H18.961c-6.733,0-12.211-5.479-12.211-12.211c0-6.734,5.478-12.212,12.211-12.212h176.76
			c6.732,0,12.211,5.479,12.211,12.212C207.931,114.805,202.453,120.282,195.721,120.282z"/>
	</g>
</g>
<g>
	<g>
		<path d="M182.178,100.094c-0.003,0-0.007,0-0.01,0c-7.37,0.022-11.171,2.759-14.523,5.174c-3.014,2.171-5.395,3.886-10.598,3.901
			c-0.023,0-0.047,0-0.07,0c-5.154,0-7.537-1.695-10.551-3.838c-3.354-2.385-7.152-5.087-14.465-5.087c-0.03,0-0.059,0-0.089,0
			c-7.371,0.022-11.171,2.759-14.524,5.174c-2.895,2.086-5.214,3.746-10.006,3.887c-4.792-0.141-7.11-1.801-10.006-3.887
			c-3.353-2.415-7.153-5.152-14.524-5.174c-0.03,0-0.059,0-0.089,0c-7.312,0-11.112,2.702-14.465,5.087
			c-3.013,2.143-5.396,3.838-10.551,3.838c-0.023,0-0.047,0-0.07,0c-5.204-0.016-7.584-1.73-10.598-3.901
			c-3.353-2.415-7.153-5.152-14.523-5.174c-0.003,0-0.007,0-0.01,0c-1.859,0-3.369,1.504-3.375,3.365
			c-0.006,1.864,1.501,3.38,3.365,3.385c5.204,0.015,7.584,1.729,10.598,3.901c3.353,2.414,7.153,5.152,14.523,5.174
			c0.03,0,0.059,0,0.089,0c7.311,0,11.111-2.702,14.465-5.087c3.027-2.153,5.419-3.865,10.621-3.838
			c5.204,0.016,7.585,1.73,10.599,3.902c3.263,2.35,6.96,4.998,13.951,5.158c6.991-0.16,10.688-2.809,13.951-5.158
			c3.014-2.172,5.395-3.886,10.599-3.902c5.202-0.027,7.595,1.685,10.621,3.838c3.354,2.385,7.154,5.087,14.466,5.087
			c0.029,0,0.059,0,0.088,0c7.371-0.021,11.17-2.76,14.523-5.174c3.014-2.172,5.395-3.886,10.598-3.901
			c1.864-0.006,3.37-1.521,3.365-3.385C185.547,101.599,184.037,100.094,182.178,100.094z"/>
	</g>
</g>
<g>
</g>
<g>
</g>
<g>
</g>
<g>
</g>
<g>
</g>
<g>
</g>
<g>
</g>
<g>
</g>
<g>
</g>
<g>
</g>
<g>
</g>
<g>
</g>
<g>
</g>
<g>
</g>
<g>
</g>
</svg>
