<?xml version="1.0" encoding="iso-8859-1"?>
<!-- Generator: Adobe Illustrator 19.0.0, SVG Export Plug-In . SVG Version: 6.00 Build 0)  -->
<svg version="1.1" id="Capa_1" xmlns="http://www.w3.org/2000/svg" xmlns:xlink="http://www.w3.org/1999/xlink" x="0px" y="0px"
	 viewBox="0 0 169.088 169.088" style="enable-background:new 0 0 169.088 169.088;" xml:space="preserve">
<g>
	<g>
		<path d="M167.09,33.751c-5.718-10.323-15.234-6.594-16.665-6.133c-11.539-10.82-28.051-16.751-46.789-16.751
			c-18.198,0-37.581,5.747-54.575,16.182C31.406,37.891,17.205,53.199,9.076,70.156c-7.773,16.213-9.631,33.061-5.309,47.71
			c-4.261,4.66-5.043,11.66-1.65,17.185c2.624,4.272,7.193,6.823,12.222,6.823c1.314,0,2.602-0.176,3.85-0.521
			c11.542,10.895,28.101,16.867,46.91,16.868c0.002,0,0.003,0,0.006,0c18.458,0,37.329-5.595,54.567-16.182
			c17.645-10.835,31.838-26.132,39.971-43.075c7.756-16.161,9.635-32.955,5.373-47.578C169.611,46.765,170.338,39.618,167.09,33.751
			z M157.929,51.353c4.562,13.443,3.009,29.315-4.371,44.693c-7.577,15.787-20.865,30.079-37.416,40.243
			c-15.946,9.792-34.071,15.184-51.037,15.184h-0.004c-17.846-0.001-33.348-5.816-43.65-16.375c-0.65-0.666-1.304-1.42-2.881-0.883
			c-0.458,0.156-7.914,2.689-11.417-2.279c-2.226-3.16-0.924-8.648,2.145-11.047c1.132-0.884,1.581-2.388,1.118-3.748
			c-4.58-13.445-2.631-28.675,4.748-44.065c7.575-15.8,20.868-30.103,37.43-40.271C68.54,23.012,86.667,17.62,103.636,17.62
			c17.819,0,33.308,5.801,43.612,16.335c1.047,1.071,2.676,1.323,3.998,0.619c1.111-0.591,8.046-3.051,10.616,3.075
			c1.722,4.105,0.628,7.543-2.675,9.859C157.96,48.367,157.448,49.934,157.929,51.353z"/>
	</g>
</g>
<g>
</g>
<g>
</g>
<g>
</g>
<g>
</g>
<g>
</g>
<g>
</g>
<g>
</g>
<g>
</g>
<g>
</g>
<g>
</g>
<g>
</g>
<g>
</g>
<g>
</g>
<g>
</g>
<g>
</g>
</svg>
