<?xml version="1.0" encoding="iso-8859-1"?>
<!-- Generator: Adobe Illustrator 19.0.0, SVG Export Plug-In . SVG Version: 6.00 Build 0)  -->
<svg version="1.1" id="Capa_1" xmlns="http://www.w3.org/2000/svg" xmlns:xlink="http://www.w3.org/1999/xlink" x="0px" y="0px"
	 viewBox="0 0 210.409 210.409" style="enable-background:new 0 0 210.409 210.409;" xml:space="preserve">
<g>
	<g>
		<path d="M162.504,10.633l-4.809-8.866c-0.887-1.635-2.928-2.245-4.566-1.363l-24.848,13.374l-1.577,0.866
			c-0.683,0.374-1.213,0.973-1.504,1.694l-0.653,1.619l-11.716,28.092c-3.72-0.89-7.532-1.34-11.369-1.34
			c-11.668,0-22.962,4.187-31.802,11.788c-8.274,7.115-13.94,16.797-16.084,27.422c-3.708,2.171-6.08,6.638-6.08,10.145
			c0,2.041,0.874,5.562,2.73,7.805l16.301,105.68c0.254,1.646,1.67,2.86,3.335,2.86h63.749c1.665,0,3.082-1.215,3.335-2.86
			l16.305-105.723c1.853-2.244,2.724-5.744,2.724-7.763c0-3.506-2.34-7.828-6.041-10.07c-0.201-0.212-0.431-0.397-0.682-0.551
			c-2.674-12.635-10.185-23.607-20.992-30.695l10.646-25.574l22.231-11.961c0.791-0.425,1.379-1.147,1.635-2.007
			C163.028,12.348,162.932,11.421,162.504,10.633z M149.226,94.064c0,1-0.703,3.033-1.188,3.488
			c-0.104,0.081-0.203,0.168-0.298,0.259h-11.15c-1.863,0-3.375,1.511-3.375,3.375c0,1.864,1.512,3.375,3.375,3.375H146
			l-15.285,99.099h-57.96L57.47,104.561h56.619c1.864,0,3.375-1.511,3.375-3.375c0-1.864-1.511-3.375-3.375-3.375H55.704
			c-0.082-0.075-0.168-0.147-0.258-0.215c-0.505-0.47-1.2-2.516-1.2-3.532c0-1.235,1.255-3.522,2.838-4.373h89.22
			C148.034,90.665,149.226,92.96,149.226,94.064z M134.651,21.799c-0.684,0.367-1.219,0.959-1.518,1.675l-12.214,29.343
			c-0.653,1.569-0.036,3.38,1.437,4.225c9.922,5.686,17.002,14.992,19.843,25.899H60.722c4.774-18.46,21.326-31.483,40.739-31.483
			c4.192,0,8.349,0.623,12.353,1.852c1.66,0.509,3.437-0.325,4.105-1.927l13.09-31.403l22.357-12.038l1.59,2.932L134.651,21.799z"/>
	</g>
</g>
<g>
</g>
<g>
</g>
<g>
</g>
<g>
</g>
<g>
</g>
<g>
</g>
<g>
</g>
<g>
</g>
<g>
</g>
<g>
</g>
<g>
</g>
<g>
</g>
<g>
</g>
<g>
</g>
<g>
</g>
</svg>
