<?xml version="1.0" encoding="iso-8859-1"?>
<!-- Generator: Adobe Illustrator 19.0.0, SVG Export Plug-In . SVG Version: 6.00 Build 0)  -->
<svg version="1.1" id="Capa_1" xmlns="http://www.w3.org/2000/svg" xmlns:xlink="http://www.w3.org/1999/xlink" x="0px" y="0px"
	 viewBox="0 0 175.28 175.28" style="enable-background:new 0 0 175.28 175.28;" xml:space="preserve">
<g>
	<g>
		<path d="M47.738,155.031h-2.7c-1.864,0-3.375,1.511-3.375,3.375c0,1.863,1.511,3.375,3.375,3.375h2.7
			c1.864,0,3.375-1.512,3.375-3.375C51.113,156.542,49.602,155.031,47.738,155.031z"/>
	</g>
</g>
<g>
	<g>
		<path d="M61.784,134.536l-1.908-1.909c-1.318-1.316-3.455-1.316-4.773,0c-1.318,1.318-1.318,3.455,0,4.773l1.909,1.908
			c0.659,0.66,1.523,0.99,2.386,0.99s1.728-0.33,2.386-0.99C63.102,137.991,63.102,135.853,61.784,134.536z"/>
	</g>
</g>
<g>
	<g>
		<path d="M130.242,155.031h-2.7c-1.863,0-3.375,1.511-3.375,3.375c0,1.863,1.512,3.375,3.375,3.375h2.7
			c1.864,0,3.375-1.512,3.375-3.375C133.617,156.542,132.106,155.031,130.242,155.031z"/>
	</g>
</g>
<g>
	<g>
		<path d="M87.717,119.44c-1.821,0-3.08,1.512-3.08,3.375v2.701c0,1.863,1.02,3.375,3.08,3.375s3.222-1.512,3.222-3.375v-2.701
			C90.939,120.952,89.538,119.44,87.717,119.44z"/>
	</g>
</g>
<g>
	<g>
		<path d="M120.177,132.627c-1.319-1.317-3.458-1.317-4.774,0l-1.909,1.909c-1.317,1.317-1.317,3.455,0,4.772
			c0.659,0.66,1.522,0.99,2.386,0.99s1.729-0.33,2.387-0.99l1.91-1.908C121.494,136.082,121.494,133.945,120.177,132.627z"/>
	</g>
</g>
<g>
	<g>
		<path d="M142.537,93.204c-7.398-6.416-15.889-11.487-24.878-14.995V45.685c16.1-0.133,29.858-7.328,39.811-20.838
			c7.471-10.143,10.142-20.199,10.252-20.622c0.263-1.012,0.043-2.088-0.598-2.914c-0.639-0.827-1.625-1.31-2.67-1.31H10.825
			C9.78,0,8.794,0.483,8.155,1.31c-0.639,0.826-0.86,1.902-0.597,2.914c0.11,0.424,2.781,10.481,10.252,20.622
			c9.953,13.51,23.711,20.705,39.811,20.838v32.526c-8.99,3.508-17.482,8.579-24.878,14.995C16.334,107.436,7.297,126.541,7.297,147
			v24.905c0,1.863,1.511,3.375,3.375,3.375h153.936c1.864,0,3.375-1.512,3.375-3.375V147
			C167.983,126.54,158.946,107.435,142.537,93.204z M23.374,21.017c-3.946-5.313-6.44-10.693-7.837-14.269h144.206
			c-1.397,3.576-3.892,8.956-7.837,14.269c-8.833,11.894-20.507,17.924-34.698,17.924h-9.994v0.006
			c-1.783,0.09-3.201,1.561-3.201,3.366c0,1.806,1.418,3.276,3.201,3.366v0.011h3.695V75.9c-7.301-2.158-14.824-3.299-22.272-3.299
			c-0.332,0-1.661,0-1.993,0c-7.45,0-14.973,1.141-22.273,3.299V45.691l30.658-0.003c1.863,0,3.375-1.511,3.375-3.375
			s-1.512-3.375-3.375-3.375l-36.957,0.003C43.881,38.941,32.207,32.911,23.374,21.017z M77.642,168.529
			c0.008-0.087,0.02-0.173,0.02-0.263c0-3.488,1.737-6.578,4.39-8.453l1.931,4.771c0.532,1.312,1.795,2.108,3.13,2.108
			c0.422,0,0.85-0.08,1.265-0.247c1.728-0.7,2.562-2.667,1.862-4.395l-1.667-4.119c5.446,0.293,9.788,4.816,9.788,10.334
			c0,0.09,0.012,0.177,0.02,0.264H77.642z M105.112,168.266c0-9.428-7.671-17.099-17.1-17.099c-0.719,0-1.426,0.051-2.122,0.137
			l-9.375-23.159c-0.7-1.727-2.667-2.561-4.395-1.861c-1.728,0.7-2.562,2.667-1.862,4.395l9.221,22.779
			c-5.116,2.959-8.568,8.487-8.568,14.81l0.003,0.039c0,0-39.152,0.076-39.152,0c0-31.017,24.829-56.248,55.348-56.248
			c0.177,0,0.88,0,1.056,0c30.52,0,55.349,25.231,55.349,56.248C143.515,168.38,105.112,168.356,105.112,168.266z M161.233,168.53
			h-10.978c0.004-0.075,0.01-0.148,0.01-0.225c0-16.63-6.451-32.374-18.164-44.335c-11.785-12.037-27.388-18.663-43.935-18.663
			c-0.176,0-0.88,0-1.056,0c-16.547,0-32.149,6.627-43.935,18.663c-11.713,11.961-18.164,27.706-18.164,44.335
			c0,0.076,0.006,0.149,0.011,0.225H14.046V147c0-39.866,38.26-67.647,72.597-67.647c0.331,0,1.661,0,1.993,0
			c34.337,0,72.597,27.781,72.597,67.647V168.53z"/>
	</g>
</g>
<g>
</g>
<g>
</g>
<g>
</g>
<g>
</g>
<g>
</g>
<g>
</g>
<g>
</g>
<g>
</g>
<g>
</g>
<g>
</g>
<g>
</g>
<g>
</g>
<g>
</g>
<g>
</g>
<g>
</g>
</svg>
