<?xml version="1.0" encoding="iso-8859-1"?>
<!-- Generator: Adobe Illustrator 19.0.0, SVG Export Plug-In . SVG Version: 6.00 Build 0)  -->
<svg version="1.1" id="Capa_1" xmlns="http://www.w3.org/2000/svg" xmlns:xlink="http://www.w3.org/1999/xlink" x="0px" y="0px"
	 viewBox="0 0 206.38 206.38" style="enable-background:new 0 0 206.38 206.38;" xml:space="preserve">
<g>
	<g>
		<path d="M151.786,45.204c-0.003-0.047-0.003-0.094-0.007-0.141c-0.008-0.092-0.021-0.183-0.035-0.273
			c-0.006-0.03-0.008-0.06-0.014-0.089c-0.025-0.129-0.058-0.256-0.097-0.379l-7.931-25.174V3.375c0-1.864-1.512-3.375-3.375-3.375
			H66.075C64.211,0,62.7,1.511,62.7,3.375v15.672l-7.956,25.276c-0.039,0.122-0.069,0.247-0.094,0.375
			c-0.006,0.032-0.009,0.064-0.014,0.096c-0.015,0.088-0.027,0.177-0.034,0.267c-0.004,0.048-0.005,0.096-0.007,0.144
			c-0.002,0.046-0.007,0.091-0.007,0.138v83.047v46.588v28.028c0,1.864,1.511,3.375,3.375,3.375h90.454
			c1.863,0,3.375-1.511,3.375-3.375v-28.028V128.39V45.343C151.792,45.296,151.787,45.25,151.786,45.204z M69.45,6.75h67.502v9.441
			h-21.889c-2.746-2.417-7.008-3.944-11.877-3.944c-4.868,0-9.126,1.527-11.871,3.944H69.45V6.75z M103.187,26.539
			c-4.867,0-8.138-2.129-8.339-3.628v-0.29c0.2-1.497,3.471-3.624,8.339-3.624c3.769,0,6.586,1.274,7.762,2.544
			c0.078,0.108,0.162,0.21,0.252,0.308c0.229,0.319,0.351,0.632,0.351,0.917C111.552,24.268,108.216,26.539,103.187,26.539z
			 M111.514,31.594c-0.375,1.488-3.604,3.49-8.327,3.49c-4.714,0-7.931-1.997-8.311-3.485c2.37,1.071,5.217,1.689,8.311,1.689
			C106.288,33.288,109.141,32.667,111.514,31.594z M68.552,22.941h19.534c0.003,0.125,0.004,0.25,0.013,0.374v7.628
			c-0.011,0.11-0.019,0.234-0.019,0.369c0,5.9,6.636,10.523,15.108,10.523c8.476,0,15.115-4.622,15.115-10.523v-8.371h19.52
			l5.994,19.027H62.563L68.552,22.941z M145.041,199.629H61.337v-21.277h83.704V199.629z M145.042,171.602H61.337v-39.838h59.988
			c1.863,0,3.375-1.511,3.375-3.375c0-1.863-1.512-3.375-3.375-3.375H61.337V48.718h83.704v76.297h-4.714
			c-1.864,0-3.375,1.512-3.375,3.375c0.001,1.864,1.511,3.375,3.376,3.375h4.714V171.602z"/>
	</g>
</g>
<g>
</g>
<g>
</g>
<g>
</g>
<g>
</g>
<g>
</g>
<g>
</g>
<g>
</g>
<g>
</g>
<g>
</g>
<g>
</g>
<g>
</g>
<g>
</g>
<g>
</g>
<g>
</g>
<g>
</g>
</svg>
