<?xml version="1.0" encoding="iso-8859-1"?>
<!-- Generator: Adobe Illustrator 19.0.0, SVG Export Plug-In . SVG Version: 6.00 Build 0)  -->
<svg version="1.1" id="Capa_1" xmlns="http://www.w3.org/2000/svg" xmlns:xlink="http://www.w3.org/1999/xlink" x="0px" y="0px"
	 viewBox="0 0 199.56 199.56" style="enable-background:new 0 0 199.56 199.56;" xml:space="preserve">
<g>
	<g>
		<path d="M123.458,49.009c4.692,8.33,16.351,13.303,31.188,13.304h0.003c11.827,0,22.446-3.225,28.403-8.628
			c1.125-1.021,1.43-2.67,0.742-4.026c-0.191-0.379-4.783-9.387-11.712-18.535c-9.344-12.338-18.288-18.831-26.604-19.326
			c4.867-3.357,10.625-5.352,17.414-5.008c1.867,0.1,3.447-1.339,3.541-3.2c0.095-1.862-1.338-3.447-3.199-3.541
			c-15.967-0.813-29.428,8.633-38.928,27.304c-4.424,8.694-6.99,17.379-8.295,22.67c-3.674-1.465-7.678-2.272-11.867-2.272
			c-5.386,0-10.462,1.338-14.925,3.69c-4.284-12.713-16.311-21.897-30.45-21.897c-17.717,0-32.131,14.414-32.131,32.131
			c0,9.583,4.222,18.194,10.898,24.086c-3.117,4.95-4.928,10.8-4.928,17.069c0,2.422,0.278,4.778,0.788,7.048
			c-7.719,5.874-12.713,15.151-12.713,25.577c0,4.042,0.757,7.908,2.126,11.476c-4.623,5.566-7.407,12.712-7.407,20.497
			c0,17.717,14.414,32.131,32.131,32.131c12.076,0,22.613-6.7,28.101-16.575c4.482,2.378,9.588,3.731,15.006,3.731
			c17.717,0,32.131-14.414,32.131-32.131c0-2.195-0.223-4.34-0.645-6.411c4.356-2.371,8.1-5.727,10.945-9.758
			c3.404,1.232,7.074,1.906,10.898,1.906c17.717,0,32.131-14.414,32.131-32.131c0-17.717-14.414-32.131-32.131-32.131
			c-2.701,0-5.321,0.339-7.828,0.969c-0.873-9.848-6.207-18.429-13.961-23.713c0.281-1.211,0.66-2.742,1.158-4.522
			C123.38,48.864,123.419,48.939,123.458,49.009z M132.099,27.789c3.729-6.154,7.887-9.274,12.355-9.274
			c10.863,0,23.471,16.893,29.994,28.208c1.85,3.209,2.975,3.659-1.374,5.347c-5.042,1.958-11.558,3.494-18.426,3.494h-0.003
			c-11.998,0-21.932-3.873-25.307-9.867C126.753,41.105,127.681,35.079,132.099,27.789z M34.29,61.675
			c0-13.499,10.982-24.481,24.481-24.481c11.57,0,21.284,8.071,23.826,18.877c0.424,1.801,0.655,3.676,0.655,5.604
			c0,2.803-0.48,5.495-1.351,8.006c-0.329,0.715-0.625,1.447-0.885,2.197c-0.399,0.867-0.842,1.709-1.336,2.518
			c-1.386,2.269-3.132,4.293-5.156,5.999c-0.767,0.646-1.575,1.245-2.417,1.795c-3.84,2.505-8.419,3.967-13.336,3.967
			c-3.477,0-6.785-0.733-9.783-2.046c-2.445-1.071-4.686-2.526-6.637-4.294C37.402,75.334,34.29,68.861,34.29,61.675z
			 M75.089,125.01c-0.038,0.018-0.077,0.035-0.116,0.053c-3.116,1.44-6.581,2.25-10.233,2.25c-9.784,0-18.242-5.772-22.158-14.087
			c-1.084-2.301-1.817-4.798-2.136-7.421c-0.119-0.977-0.187-1.967-0.187-2.975c0-4.655,1.307-9.011,3.572-12.72
			c4.467,2.356,9.548,3.697,14.939,3.697c5.385,0,10.462-1.338,14.924-3.69c1.447,4.294,3.772,8.188,6.771,11.458
			c-2.318,3.317-4.023,7.089-4.958,11.155c-0.533,2.316-0.824,4.724-0.824,7.2C74.684,121.658,74.825,123.355,75.089,125.01z
			 M36.178,117.519c5.343,10.347,16.136,17.443,28.562,17.443c0.166,0,0.328-0.011,0.493-0.014c4.201-0.063,8.21-0.932,11.876-2.467
			c0.065,0.535,0.118,1.073,0.148,1.618c0.025,0.449,0.039,0.899,0.039,1.354c0,4.807-1.397,9.288-3.799,13.074
			c-1.419,2.237-3.187,4.231-5.233,5.899c-0.66,0.539-1.351,1.041-2.065,1.509c-2.228,1.461-4.705,2.571-7.355,3.245
			c-1.929,0.49-3.949,0.753-6.029,0.753c-8.726,0-16.394-4.592-20.731-11.483c-1.39-2.21-2.437-4.654-3.065-7.263
			c-0.444-1.841-0.685-3.76-0.685-5.736C28.334,128.377,31.358,121.992,36.178,117.519z M47.534,191.908
			c-13.499,0-24.481-10.981-24.481-24.48c0-4.807,1.398-9.288,3.799-13.074c5.849,8.013,15.306,13.234,25.964,13.234
			c2.77,0,5.458-0.353,8.024-1.015c1.872,4.639,4.794,8.741,8.473,12.015C65.247,186.487,57.014,191.908,47.534,191.908z
			 M90.642,179.064c-4.401,0-8.531-1.173-12.104-3.215c-2.551-1.458-4.818-3.357-6.69-5.601c-1.609-1.927-2.925-4.105-3.886-6.467
			c1.169-0.628,2.292-1.33,3.369-2.092c2.312-1.636,4.403-3.563,6.209-5.739c3.153-3.796,5.442-8.33,6.584-13.297
			c5.817,5.81,13.842,9.406,22.693,9.406c2.778,0,5.474-0.355,8.047-1.021c0.169,1.157,0.26,2.34,0.26,3.543
			C115.123,168.082,104.14,179.064,90.642,179.064z M119.646,140.77c-2.159,1.334-4.54,2.339-7.074,2.952
			c-1.848,0.447-3.773,0.689-5.756,0.689c-9.599,0-17.921-5.556-21.931-13.619c-0.152-0.305-0.296-0.613-0.435-0.926
			c-0.187-0.419-0.364-0.844-0.528-1.274c-0.619-1.631-1.07-3.344-1.328-5.118c0.008-0.002,0.015-0.005,0.023-0.007
			c-0.012-0.03-0.023-0.061-0.035-0.09c-0.16-1.128-0.247-2.276-0.247-3.447c0-0.035,0.002-0.07,0.003-0.106
			c0.021-4.878,1.479-9.421,3.967-13.232c0.763,0.511,1.55,0.989,2.357,1.435c2.243,1.239,4.649,2.216,7.177,2.895
			c2.651,0.71,5.435,1.095,8.307,1.095c2.699,0,5.32-0.339,7.828-0.969c0.881,9.942,6.304,18.599,14.182,23.867
			C124.356,137.232,122.152,139.221,119.646,140.77z M135.847,85.099c2.543-0.898,5.276-1.391,8.123-1.391
			c13.5,0,24.481,10.982,24.481,24.481s-10.981,24.481-24.481,24.481c-2.513,0-4.937-0.383-7.221-1.089
			c-2.488-0.77-4.806-1.931-6.887-3.404c-6.27-4.438-10.373-11.741-10.373-19.988c0-0.028,0.002-0.056,0.002-0.084
			c2.114-1.154,4.08-2.543,5.873-4.124c1.93-1.701,3.652-3.629,5.13-5.743C133.187,94.386,135.056,89.923,135.847,85.099z
			 M128.627,79.883c0,0.028-0.002,0.056-0.002,0.084c-0.016,4.771-1.408,9.222-3.793,12.984c-0.068,0.084-0.134,0.169-0.199,0.255
			c-0.479,0.616-0.928,1.255-1.347,1.916c-1.133,1.42-2.418,2.711-3.834,3.848c-2.132,1.713-4.554,3.077-7.181,4.003
			c-2.545,0.897-5.277,1.391-8.124,1.391c-2.536,0-4.983-0.388-7.285-1.106c-1.892-0.591-3.686-1.406-5.35-2.414
			c-0.902-0.546-1.763-1.152-2.584-1.807c-1.209-0.962-2.323-2.035-3.33-3.205c-2.522-2.93-4.362-6.459-5.276-10.344
			c0.287-0.26,0.564-0.529,0.842-0.799c1.829-1.78,3.446-3.775,4.812-5.945c3.117-4.95,4.928-10.8,4.928-17.069
			c0-0.776-0.037-1.543-0.092-2.306c3.84-2.505,8.419-3.967,13.336-3.967C117.644,55.402,128.627,66.384,128.627,79.883z"/>
	</g>
</g>
<g>
</g>
<g>
</g>
<g>
</g>
<g>
</g>
<g>
</g>
<g>
</g>
<g>
</g>
<g>
</g>
<g>
</g>
<g>
</g>
<g>
</g>
<g>
</g>
<g>
</g>
<g>
</g>
<g>
</g>
</svg>
