<?xml version="1.0" encoding="iso-8859-1"?>
<!-- Generator: Adobe Illustrator 19.0.0, SVG Export Plug-In . SVG Version: 6.00 Build 0)  -->
<svg version="1.1" id="Capa_1" xmlns="http://www.w3.org/2000/svg" xmlns:xlink="http://www.w3.org/1999/xlink" x="0px" y="0px"
	 viewBox="0 0 199.1 199.1" style="enable-background:new 0 0 199.1 199.1;" xml:space="preserve">
<g>
	<g>
		<path d="M193.142,0H39.851c-1.864,0-3.375,1.511-3.375,3.375v34.373c0,1.864,1.511,3.375,3.375,3.375h40.688v5.114H5.959
			c-1.864,0-3.375,1.511-3.375,3.375v15.624c0,1.864,1.511,3.375,3.375,3.375h75.694c1.387,4.631,4.053,8.621,7.922,11.757
			c5.343,4.331,12.774,6.717,20.921,6.717c8.148,0,15.578-2.385,20.923-6.717c5.911-4.791,9.036-11.568,9.036-19.596
			c0-0.175-0.043-19.65-0.043-19.65h24.356v115.466h-25.901c-0.012-0.983-0.028-2.337-0.028-3.226c0-1.779-0.756-3.384-1.958-4.519
			c1.389-0.579,2.691-1.224,3.896-1.94c7.707-4.576,11.613-11.746,11.613-21.312v-21.552c0-1.864-1.515-3.589-3.379-3.589
			c-13.637,0-67.017,0-68.018,0c-1.864,0-3.375,1.511-3.375,3.375v0.832c-0.295-0.002-0.593-0.002-0.895-0.002
			c-9.09,0-16.485,6.451-16.485,14.381c0,7.931,7.395,14.383,16.485,14.383c0.655,0,1.291-0.006,1.917-0.014
			c1.617,5.742,5.153,10.269,10.591,13.498c1.206,0.715,2.508,1.361,3.897,1.94c-1.202,1.135-1.958,2.739-1.958,4.519v3.226H63.808
			c-26.995,0-36.232,36.776-36.612,38.341c-0.244,1.006-0.013,2.068,0.627,2.882c0.64,0.814,1.618,1.289,2.653,1.289h162.665
			c1.864,0,3.375-1.511,3.375-3.375v-35.762V3.375C196.517,1.51,195.006,0,193.142,0z M80.539,61.862H9.334v-8.874h71.205V61.862z
			 M76.723,126.671c-5.368,0-9.735-3.424-9.735-7.632c0-4.208,4.367-7.632,9.735-7.632c0.302,0,0.6,0,0.895,0.002v14.185
			c0,0.363,0.017,0.716,0.028,1.073C77.34,126.668,77.036,126.671,76.723,126.671z M137.036,34.373
			c-1.864,0-3.375,1.511-3.375,3.375l0.002,0.03l-0.002,0.02c0,0,0.017,22.913,0.041,23.075
			c-0.06,14.361-12.525,19.462-23.207,19.462c-10.705,0-23.208-5.124-23.208-19.563v-11.16v-8.489h30.897
			c1.864,0,3.375-1.511,3.375-3.375c0-1.864-1.511-3.375-3.375-3.375h-74.96V6.75h146.541v27.623H137.036z M84.368,125.594v-18.403
			c2.17-0.01,61.272-0.002,61.272-0.002v18.405c0,13.353-10.307,20.124-30.636,20.124C94.676,145.717,84.368,138.946,84.368,125.594
			z M132.114,156.589H97.919v-2.695h34.169C132.092,154.742,132.105,155.777,132.114,156.589z M35.024,192.351
			c3.038-8.915,11.775-29.012,28.784-29.012h104.334h21.624l0.001,29.012H35.024z M189.767,156.589h-18.249V41.123h18.249V156.589z"
			/>
	</g>
</g>
<g>
</g>
<g>
</g>
<g>
</g>
<g>
</g>
<g>
</g>
<g>
</g>
<g>
</g>
<g>
</g>
<g>
</g>
<g>
</g>
<g>
</g>
<g>
</g>
<g>
</g>
<g>
</g>
<g>
</g>
</svg>
