<?xml version="1.0" encoding="iso-8859-1"?>
<!-- Generator: Adobe Illustrator 19.0.0, SVG Export Plug-In . SVG Version: 6.00 Build 0)  -->
<svg version="1.1" id="Capa_1" xmlns="http://www.w3.org/2000/svg" xmlns:xlink="http://www.w3.org/1999/xlink" x="0px" y="0px"
	 viewBox="0 0 200.049 200.049" style="enable-background:new 0 0 200.049 200.049;" xml:space="preserve">
<g>
	<g>
		<path d="M184.834,58.664H173c-2.46-12.106-7.268-23.461-14.122-33.07C148.31,10.781,134.255,2.06,119.303,1.037
			c-9.594-0.656-33.684-0.531-50.077,14.778c-10.576,9.878-15.94,24.169-15.944,42.475c-17.577,0.181-31.807,6.764-41.183,19.077
			C4.297,87.614,0,101.72,0,117.088v78.745c0,1.864,1.511,3.375,3.375,3.375c0,0,97.78,0.001,97.887,0.001
			c1.093,0,2.163-0.529,2.813-1.506c0,0,7.52-11.029,8.718-13.104c1.198-2.076,2.831-1.886,5.142-1.249
			c2.312,0.636,3.688,1.016,3.688,1.016c1.015,0.278,2.104,0.069,2.94-0.57c0.838-0.638,1.33-1.631,1.33-2.685v-44.176
			c0-19.324-4.115-36.271-11.898-49.006c-9.297-15.209-23.493-24.502-42.197-27.623c-0.382-0.065-7.989-1.486-11.776-1.788
			c0.004-0.069,0.011-0.137,0.011-0.207c0-16.369,4.644-29.006,13.801-37.559c14.458-13.503,36.29-13.574,45.008-12.977
			c12.899,0.882,25.166,8.604,34.539,21.743c6.054,8.486,10.374,18.473,12.72,29.149h-11.354h-0.059
			c-5.393,0-14.519,3.676-14.519,17.457v60.813c0,1.863,1.511,3.375,3.375,3.375h53.13c1.864,0,3.375-1.512,3.375-3.375V77.724
			C200.051,64.898,195.072,58.664,184.834,58.664z M119.144,136.933v39.745l-5.414-1.49c-1.408-0.387-2.899,0.172-3.707,1.385
			l-6.129,9.215c-0.084-16.938-0.242-51.438-0.242-72.641c0-15.517-3.279-27.984-9.75-37.107
			C115.343,90.962,119.144,118.984,119.144,136.933z M96.903,113.147c0,24.594,0.211,67.06,0.275,79.31H6.751v-75.37
			c0-25.165,12.419-52.057,47.276-52.057C82.477,65.03,96.903,81.218,96.903,113.147z M193.303,133.558h-0.002h-46.379V76.12
			c0-10.191,6.471-10.707,7.73-10.708c0.033,0.001,0.064,0.001,0.097,0.001h12.56c0.549,3.978,0.834,8.023,0.834,12.1
			c0,0.247,0.027,0.488,0.078,0.72c0.039,1.831,1.531,3.303,3.372,3.303h6.058c1.502,0,2.688,0,2.688,4.654v33.304h-20.451V85.37
			c0-3.113,1.282-3.557,1.704-3.702c1.761-0.609,2.696-2.531,2.087-4.292c-0.609-1.762-2.529-2.696-4.293-2.088
			c-1.879,0.65-6.249,2.932-6.249,10.082v37.499c0,1.864,1.511,3.375,3.375,3.375h27.201c1.864,0,3.375-1.511,3.375-3.375V86.19
			c0-7.461-3.265-11.404-9.438-11.404h-2.8c-0.09-3.15-0.334-6.279-0.731-9.373h10.717c3.574,0,8.467,0,8.467,12.307V133.558z"/>
	</g>
</g>
<g>
</g>
<g>
</g>
<g>
</g>
<g>
</g>
<g>
</g>
<g>
</g>
<g>
</g>
<g>
</g>
<g>
</g>
<g>
</g>
<g>
</g>
<g>
</g>
<g>
</g>
<g>
</g>
<g>
</g>
</svg>
