<?xml version="1.0" encoding="iso-8859-1"?>
<!-- Generator: Adobe Illustrator 19.0.0, SVG Export Plug-In . SVG Version: 6.00 Build 0)  -->
<svg version="1.1" id="Capa_1" xmlns="http://www.w3.org/2000/svg" xmlns:xlink="http://www.w3.org/1999/xlink" x="0px" y="0px"
	 viewBox="0 0 187.001 187.001" style="enable-background:new 0 0 187.001 187.001;" xml:space="preserve">
<g>
	<g>
		<path d="M86.172,57.682C78.353,44.22,67.797,34.508,56.446,30.335c-1.581-0.581-3.065-0.863-4.538-0.863
			c-1.91,0-3.513,0.473-5.037,0.999c-2.364-1.738-7.236-5.143-12.585-7.845c-1.373-0.693-2.866-1.045-4.438-1.045
			c-5.104,0-10.068,3.836-11.299,8.734c-1.26,5.011,1.465,9.87,7.291,12.998c3.683,1.978,7.232,4.647,7.548,4.881
			c-2.534,7.776,2.58,14.287,6.79,19.645c4.694,5.974,6.788,10.397,9.707,18.05c6.738,17.671-5.331,43.689-13.289,53.689
			c-0.829,1.042-8.575,9.55-9.095,10.203c-3.655,4.594-6.531,13.133-2.255,18.732c2.877,3.766,9.786,6.438,17.888,4.749
			c4.951-1.032,9.557-2.987,13.798-5.329c7.954-4.387,15.049-10.035,21.089-16.789c1.014-1.136,2.009-2.317,2.959-3.511
			c11.039-13.873,17.053-31.121,16.931-48.565C97.815,85.45,93.536,70.365,86.172,57.682z M72.989,146.641
			c-5.631,6.097-12.031,11.36-19.318,15.379c-3.718,2.052-8.098,3.969-12.131,4.68c-4.033,0.712-8.871,1.273-10.961-2.327
			c-2.183-3.76-0.245-7.313,2.203-10.392c0.445-0.559,8.185-9.06,9.095-10.203c4.171-5.24,9.915-15.017,13.528-26.732
			c2.771-8.986,5.157-22.104,0.787-33.565c-3.107-8.149-5.502-13.192-10.721-19.836c-4.818-6.132-7.633-10.137-4.936-15.01
			c0.856-1.546,0.374-3.491-1.105-4.459c-1.201-0.786-6.402-4.667-10.397-6.812c-1.743-0.937-4.573-2.883-3.938-5.405
			c0.486-1.934,2.708-3.575,4.753-3.63c2.877-0.078,14.289,8.529,14.349,8.576c0.897,0.705,2.091,0.908,3.172,0.541
			c0.352-0.119,3.481-1.226,4.54-1.226c0.664,0,1.387,0.146,2.209,0.448c9.877,3.632,19.188,12.298,26.218,24.403
			c6.794,11.697,11.028,25.565,10.827,38.042C90.719,126.351,79.47,139.625,72.989,146.641z"/>
	</g>
</g>
<g>
	<g>
		<path d="M154.33,44.358c-9.606-16.541-22.577-28.474-36.523-33.601c-1.941-0.714-3.765-1.06-5.575-1.06
			c-2.347,0-4.316,0.581-6.188,1.227c-2.904-2.136-8.891-6.319-15.463-9.639C88.893,0.433,87.06,0,85.127,0
			c-6.271,0-12.369,4.714-13.883,10.731c-1.548,6.157,1.8,12.126,8.958,15.971c4.525,2.43,8.885,5.709,9.274,5.997
			c-3.113,9.554,3.17,17.553,8.342,24.137c5.769,7.341,8.341,12.774,11.927,22.177c8.278,21.712-6.551,53.678-16.328,65.965
			c-1.019,1.28-10.536,11.734-11.175,12.537c-4.491,5.644-8.024,16.135-2.77,23.016c3.534,4.628,12.023,7.91,21.979,5.835
			c6.083-1.269,11.742-3.673,16.952-6.548c9.773-5.39,18.49-12.33,25.911-20.629c1.247-1.394,2.47-2.844,3.638-4.312
			c13.563-17.045,20.95-38.235,20.801-59.67C168.636,78.474,163.38,59.941,154.33,44.358z M138.132,153.658
			c-6.918,7.49-14.781,13.958-23.735,18.896c-4.567,2.521-9.95,4.875-14.904,5.75c-4.956,0.873-10.9,1.564-13.468-2.859
			c-2.682-4.62-0.301-8.987,2.707-12.768c0.547-0.687,10.057-11.132,11.176-12.535c5.123-6.439,12.182-18.451,16.62-32.846
			c3.405-11.04,6.336-27.158,0.968-41.24c-3.818-10.012-6.761-16.208-13.174-24.372c-5.919-7.533-9.378-12.455-6.063-18.442
			c1.052-1.9,0.459-4.289-1.358-5.479c-1.476-0.965-7.866-5.734-12.774-8.37c-2.142-1.15-5.618-3.542-4.839-6.641
			c0.598-2.376,3.328-4.392,5.84-4.46c3.535-0.096,17.556,10.48,17.63,10.537c1.103,0.866,2.569,1.115,3.896,0.665
			c0.433-0.147,4.278-1.506,5.578-1.506c0.816,0,1.704,0.18,2.713,0.551c12.136,4.462,23.575,15.11,32.214,29.983
			c8.347,14.373,13.549,31.411,13.301,46.742C159.916,128.728,146.094,145.037,138.132,153.658z"/>
	</g>
</g>
<g>
</g>
<g>
</g>
<g>
</g>
<g>
</g>
<g>
</g>
<g>
</g>
<g>
</g>
<g>
</g>
<g>
</g>
<g>
</g>
<g>
</g>
<g>
</g>
<g>
</g>
<g>
</g>
<g>
</g>
</svg>
