<?xml version="1.0" encoding="iso-8859-1"?>
<!-- Generator: Adobe Illustrator 19.0.0, SVG Export Plug-In . SVG Version: 6.00 Build 0)  -->
<svg version="1.1" id="Capa_1" xmlns="http://www.w3.org/2000/svg" xmlns:xlink="http://www.w3.org/1999/xlink" x="0px" y="0px"
	 viewBox="0 0 217.3 217.3" style="enable-background:new 0 0 217.3 217.3;" xml:space="preserve">
<g>
	<g>
		<path d="M170.084,14.593c-1.023-4.661-7.438-8.215-19.525-10.832C139.358,1.336,124.516,0,108.766,0S78.173,1.336,66.972,3.761
			c-10.52,2.278-18.247,7.154-19.42,9.992c-0.593,1.434-14.435,35.475-8.421,64.637c2.906,14.093,7.414,23.247,11.037,30.604
			c3.867,7.852,6.921,14.055,6.921,23.379c0,19.213-0.186,76.909-0.188,77.489c-0.005,1.66,1.198,3.078,2.837,3.344
			c0.254,0.041,25.634,4.093,49.363,4.093c23.736,0,48.235-4.056,48.48-4.097c1.63-0.272,2.823-1.686,2.818-3.34
			c-0.002-0.58-0.188-58.276-0.188-77.489c0-9.324,3.054-15.525,6.921-23.379c3.622-7.356,8.13-16.51,11.037-30.604
			C183.739,51.382,172.278,20.192,170.084,14.593z M70.051,10.015C80.594,7.91,94.342,6.75,108.767,6.75
			c14.424,0,28.172,1.159,38.715,3.265c12.356,2.468,15.301,5.17,15.893,5.901c0.005,0.02,0.008,0.04,0.014,0.059
			c-0.557,0.704-3.446,3.431-15.905,5.919c-10.542,2.105-24.291,3.265-38.715,3.265c-14.423,0-28.174-1.16-38.715-3.265
			c-12.577-2.512-15.404-5.268-15.923-5.94C54.647,15.283,57.475,12.527,70.051,10.015z M171.559,77.027
			c-2.732,13.248-6.85,21.608-10.481,28.985c-4.087,8.299-7.616,15.465-7.616,26.361c0,16.729,0.142,62.603,0.178,74.608
			c-7.024,1.037-26.036,3.566-44.538,3.566c-18.578,0-38.244-2.549-45.441-3.581c0.038-12.028,0.178-57.872,0.178-74.594
			c0-10.896-3.529-18.062-7.616-26.362c-3.282-6.665-6.96-14.135-9.654-25.288c3.489,2.243,9.112,4.101,17.038,5.664
			c12.256,2.417,28.507,3.749,45.756,3.749c0,0,0.003,0,0.005,0c13.595,0,26.616-0.827,37.652-2.391
			c1.845-0.262,3.13-1.97,2.867-3.815c-0.262-1.846-1.97-3.13-3.814-2.868c-10.729,1.521-23.42,2.324-36.705,2.324
			c-0.002,0-0.004,0-0.004,0c-15.771,0-30.837-1.15-42.421-3.238c-12.396-2.234-16.865-4.852-17.852-5.967
			c0.988-1.115,5.456-3.732,17.852-5.967c11.584-2.088,26.65-3.238,42.42-3.238c15.85,0,31.27,1.146,43.417,3.227
			c13.566,2.324,18.326,5.059,19.265,6.146C171.902,75.246,171.741,76.14,171.559,77.027z M172.813,66.848
			c-3.372-1.698-8.572-3.38-16.555-4.879c-12.67-2.379-29.763-3.743-46.895-3.743c-17.25,0-33.5,1.331-45.756,3.748
			c-9.604,1.894-15.832,4.22-18.972,7.141c-1.441-18.001,3.759-37,6.912-46.542c3.247,2.2,8.369,4.047,15.426,5.575
			c11.2,2.425,26.042,3.761,41.793,3.761c15.75,0,30.593-1.336,41.793-3.761c6.923-1.499,11.981-3.306,15.236-5.451
			C168.818,31.878,173.669,49.618,172.813,66.848z"/>
	</g>
</g>
<g>
</g>
<g>
</g>
<g>
</g>
<g>
</g>
<g>
</g>
<g>
</g>
<g>
</g>
<g>
</g>
<g>
</g>
<g>
</g>
<g>
</g>
<g>
</g>
<g>
</g>
<g>
</g>
<g>
</g>
</svg>
