<?xml version="1.0" encoding="iso-8859-1"?>
<!-- Generator: Adobe Illustrator 19.0.0, SVG Export Plug-In . SVG Version: 6.00 Build 0)  -->
<svg version="1.1" id="Capa_1" xmlns="http://www.w3.org/2000/svg" xmlns:xlink="http://www.w3.org/1999/xlink" x="0px" y="0px"
	 viewBox="0 0 200.88 200.88" style="enable-background:new 0 0 200.88 200.88;" xml:space="preserve">
<g>
	<g>
		<path d="M198.902,32.832C191.816,22.503,164.66,3.811,151.46,1.94c-1.064-0.151-2.241-0.227-3.496-0.227
			c-9.07,0-21.605,3.959-30.311,7.665c-5.938,2.527-12.736,5.949-16.679,9.682c-0.811-1.36-1.639-2.742-2.489-4.155
			c-0.935-1.553-2.929-2.09-4.518-1.217c-1.588,0.873-2.203,2.845-1.393,4.467c5.737,11.474,3.89,35.944-4.941,65.457
			c-6.79,22.691-15.843,41.936-21.151,48.324c-7.062-6.875-16.698-11.117-27.307-11.117C17.574,120.817,0,138.392,0,159.993
			c0,21.601,17.574,39.174,39.174,39.174c21.601,0,39.174-17.573,39.174-39.174c0-8.562-2.763-16.489-7.441-22.943
			c7.598-8.451,17.237-31.603,23.192-51.505c3.848-12.859,8.856-33.049,8.572-50.232c20.069,35.11,24.046,50.73,24.228,84.067
			c-17.735,3.734-31.09,19.504-31.09,38.334c0,21.601,17.574,39.174,39.174,39.174s39.173-17.574,39.173-39.174
			c0-21.601-17.573-39.175-39.173-39.175c-0.448,0-0.895,0.01-1.338,0.024c-0.218-28.603-3.406-45.079-16.666-71.044
			c5.741,4.25,17.18,11.956,26.15,13.228c1.062,0.15,2.247,0.227,3.524,0.227c9.17,0,22.606-3.908,32.122-7.565
			c5.539-2.129,10.42-4.388,14.117-6.535c4.857-2.821,7.279-5.184,7.854-7.663C201.176,37.353,200.572,35.267,198.902,32.832z
			 M71.599,159.993c0,17.879-14.546,32.424-32.424,32.424c-17.879,0-32.424-14.546-32.424-32.424
			c0-17.879,14.546-32.425,32.424-32.425C57.053,127.567,71.599,142.114,71.599,159.993z M134.981,125.289
			c17.879,0,32.423,14.546,32.423,32.424c0,17.879-14.545,32.425-32.423,32.425s-32.425-14.547-32.425-32.425
			C102.556,139.835,117.103,125.289,134.981,125.289z M175.323,47.501c-11.053,4.148-22.039,6.724-28.669,6.724
			c-0.963,0-1.83-0.054-2.578-0.16c-5.652-0.801-15.36-5.986-24.729-13.211c-6.013-4.636-9.9-8.505-12.197-11.281
			c-0.131-0.225-0.262-0.452-0.393-0.679c12.404,1.556,40.956,5.302,59.413,9.005c0.225,0.045,0.447,0.067,0.668,0.067
			c1.575,0,2.984-1.108,3.305-2.712c0.367-1.828-0.818-3.606-2.645-3.973c-18.573-3.726-47.155-7.483-59.736-9.063
			c2.642-1.86,6.938-4.304,13.349-6.971c10.056-4.185,20.347-6.784,26.855-6.784c0.938,0,1.796,0.054,2.55,0.161
			c5.609,0.795,15.961,6.062,26.368,13.417c10.532,7.443,16.225,13.534,17.141,15.737C192.757,39.263,187.187,43.05,175.323,47.501z
			"/>
	</g>
</g>
<g>
</g>
<g>
</g>
<g>
</g>
<g>
</g>
<g>
</g>
<g>
</g>
<g>
</g>
<g>
</g>
<g>
</g>
<g>
</g>
<g>
</g>
<g>
</g>
<g>
</g>
<g>
</g>
<g>
</g>
</svg>
