<?xml version="1.0" encoding="iso-8859-1"?>
<!-- Generator: Adobe Illustrator 19.0.0, SVG Export Plug-In . SVG Version: 6.00 Build 0)  -->
<svg version="1.1" id="Capa_1" xmlns="http://www.w3.org/2000/svg" xmlns:xlink="http://www.w3.org/1999/xlink" x="0px" y="0px"
	 viewBox="0 0 211.57 211.57" style="enable-background:new 0 0 211.57 211.57;" xml:space="preserve">
<g>
	<g>
		<path d="M208.421,51.318h-33.033c-1.74,0-3.149,1.41-3.149,3.15c0,1.74,1.409,3.15,3.149,3.15h4.748
			c-1.654,39.579-34.371,71.268-74.351,71.268c-39.979,0-72.696-31.688-74.352-71.268h126.628c1.74,0,3.15-1.41,3.15-3.15
			c0-1.74-1.41-3.15-3.15-3.15H3.15c-1.74,0-3.15,1.41-3.15,3.15c0,28.257,11.004,54.821,30.984,74.8
			c19.981,19.98,46.545,30.984,74.802,30.984s54.821-11.004,74.801-30.984c19.98-19.98,30.984-46.544,30.984-74.8
			C211.571,52.728,210.161,51.318,208.421,51.318z M105.786,153.953c-53.802,0-97.766-42.932-99.437-96.335h18.787
			c1.661,43.052,37.198,77.566,80.65,77.566c43.451,0,78.987-34.515,80.649-77.566h18.787
			C203.552,111.02,159.588,153.953,105.786,153.953z"/>
	</g>
</g>
<g>
	<g>
		<path d="M57.415,82.398c-1.864,0-3.375,1.512-3.375,3.375v7.914c0,1.864,1.511,3.375,3.375,3.375c1.864,0,3.375-1.511,3.375-3.375
			v-7.914C60.79,83.909,59.279,82.398,57.415,82.398z"/>
	</g>
</g>
<g>
	<g>
		<path d="M83.665,100.054c-1.864,0-3.375,1.509-3.375,3.375v7.015c0,1.864,1.511,3.375,3.375,3.375
			c1.864,0,3.375-1.511,3.375-3.375v-7.015C87.04,101.565,85.529,100.054,83.665,100.054z"/>
	</g>
</g>
<g>
	<g>
		<path d="M72.565,63.053c-1.864,0-3.375,1.51-3.375,3.375v7.015c0,1.864,1.511,3.375,3.375,3.375c1.864,0,3.375-1.511,3.375-3.375
			v-7.015C75.94,64.564,74.429,63.053,72.565,63.053z"/>
	</g>
</g>
<g>
	<g>
		<path d="M98.515,73.793c-1.864,0-3.375,1.512-3.375,3.375v7.914c0,1.864,1.511,3.375,3.375,3.375c1.864,0,3.375-1.511,3.375-3.375
			v-7.914C101.89,75.304,100.379,73.793,98.515,73.793z"/>
	</g>
</g>
<g>
	<g>
		<path d="M155.741,68.336c-1.864,0-3.375,1.512-3.375,3.375v7.465c0,1.864,1.511,3.375,3.375,3.375
			c1.864,0,3.375-1.511,3.375-3.375v-7.465C159.116,69.847,157.605,68.336,155.741,68.336z"/>
	</g>
</g>
<g>
	<g>
		<path d="M139.164,90.313c-1.863,0-3.375,1.512-3.375,3.375v7.465c0,1.864,1.512,3.375,3.375,3.375
			c1.864,0,3.375-1.511,3.375-3.375v-7.465C142.539,91.824,141.028,90.313,139.164,90.313z"/>
	</g>
</g>
<g>
	<g>
		<path d="M124.314,66.56c-1.864,0-3.375,1.511-3.375,3.375v7.915c0,1.864,1.511,3.375,3.375,3.375c1.863,0,3.375-1.511,3.375-3.375
			v-7.915C127.689,68.071,126.177,66.56,124.314,66.56z"/>
	</g>
</g>
<g>
	<g>
		<path d="M113.064,100.054c-1.864,0-3.375,1.509-3.375,3.375v7.915c0,1.863,1.511,3.375,3.375,3.375
			c1.863,0,3.375-1.512,3.375-3.375v-7.915C116.439,101.565,114.927,100.054,113.064,100.054z"/>
	</g>
</g>
<g>
</g>
<g>
</g>
<g>
</g>
<g>
</g>
<g>
</g>
<g>
</g>
<g>
</g>
<g>
</g>
<g>
</g>
<g>
</g>
<g>
</g>
<g>
</g>
<g>
</g>
<g>
</g>
<g>
</g>
</svg>
