<?xml version="1.0" encoding="iso-8859-1"?>
<!-- Generator: Adobe Illustrator 19.0.0, SVG Export Plug-In . SVG Version: 6.00 Build 0)  -->
<svg version="1.1" id="Capa_1" xmlns="http://www.w3.org/2000/svg" xmlns:xlink="http://www.w3.org/1999/xlink" x="0px" y="0px"
	 viewBox="0 0 210.369 210.369" style="enable-background:new 0 0 210.369 210.369;" xml:space="preserve">
<g>
	<g>
		<path d="M206.997,113.807h-7.514c0-0.095,0.004-0.19,0.004-0.286c0-11.117-5.237-28.832-12.736-43.08
			c-9.602-18.243-21.248-28.29-32.796-28.29c-11.547,0-23.194,10.047-32.797,28.29c-7.499,14.247-12.736,31.962-12.736,43.08
			c0,0.096,0.003,0.189,0.004,0.286h-6.54c0.043-0.702,0.065-1.409,0.065-2.12c0-11.117-5.237-28.832-12.736-43.081
			c-9.601-18.243-21.248-28.289-32.796-28.289c-11.547,0-23.194,10.047-32.795,28.289c-7.499,14.248-12.736,31.963-12.736,43.081
			c0,0.711,0.023,1.418,0.065,2.12H3.375c-1.864,0-3.375,1.511-3.375,3.375v49.496c0,1.863,1.511,3.375,3.375,3.375h203.619
			c1.864,0,3.375-1.512,3.375-3.375v-49.496C210.372,115.318,208.86,113.807,206.997,113.807z M153.955,48.901
			c20.031,0,38.782,44.434,38.782,64.62c0,18.135-17.397,32.889-38.782,32.889c-21.385,0-38.782-14.754-38.782-32.889
			C115.173,93.334,133.923,48.901,153.955,48.901z M56.42,47.067c20.032,0,38.782,44.434,38.782,64.62
			c0,18.135-17.397,32.889-38.782,32.889c-21.384,0-38.782-14.754-38.782-32.889C17.638,91.5,36.389,47.067,56.42,47.067z
			 M203.622,163.302H6.753v-42.746h5.285c4.639,17.601,22.777,30.769,44.382,30.769s39.743-13.168,44.382-30.769h8.339
			c3.825,18.512,22.465,32.603,44.814,32.603c22.348,0,40.988-14.091,44.814-32.603h4.854V163.302z"/>
	</g>
</g>
<g>
</g>
<g>
</g>
<g>
</g>
<g>
</g>
<g>
</g>
<g>
</g>
<g>
</g>
<g>
</g>
<g>
</g>
<g>
</g>
<g>
</g>
<g>
</g>
<g>
</g>
<g>
</g>
<g>
</g>
</svg>
