<?xml version="1.0" encoding="iso-8859-1"?>
<!-- Generator: Adobe Illustrator 19.0.0, SVG Export Plug-In . SVG Version: 6.00 Build 0)  -->
<svg version="1.1" id="Capa_1" xmlns="http://www.w3.org/2000/svg" xmlns:xlink="http://www.w3.org/1999/xlink" x="0px" y="0px"
	 viewBox="0 0 212.89 212.89" style="enable-background:new 0 0 212.89 212.89;" xml:space="preserve">
<g>
	<g>
		<path d="M160.908,0.046c-18.879-0.739-34.417,7.613-40.467,11.418c-0.429-0.458-0.871-0.904-1.336-1.321
			c-4-3.602-9.181-5.586-14.585-5.586c-4.374,0-8.603,1.304-12.234,3.773c-6.831,4.651-10.348,12.754-9.353,20.734
			c-7.245,1.077-13.626,5.518-17.086,12.007c-10.034,3.766-16.675,13.225-16.675,23.981c0,1.956,0.224,3.897,0.666,5.793
			c-0.703,1.081-1.095,2.354-1.095,3.679c0,35.144,8.051,48.8,15.154,60.85l0.841,1.43c7.26,12.376,16.81,21.013,26.897,24.315
			c0.588,0.193,1.178,0.36,1.768,0.517v25.988c-0.414-0.16-22.542,1.355-29.887,3.08c-5.928,1.392-13.809,3.877-13.809,9.359
			c0,4.628,5.173,7.71,16.772,9.996c9.268,1.825,21.545,2.831,34.571,2.831s25.302-1.006,34.572-2.831
			c11.6-2.286,16.771-5.369,16.771-9.996c0-5.481-7.881-7.967-13.809-9.358c-7.242-1.702-17.201-2.865-28.087-3.288v-25.78
			c0.593-0.156,1.185-0.325,1.774-0.519c10.082-3.303,19.633-11.938,26.892-24.314l0.841-1.429
			c7.104-12.049,15.154-25.706,15.154-60.85c0-1.325-0.393-2.598-1.095-3.679c0.442-1.896,0.666-3.837,0.666-5.793
			c0-9.355-5.017-17.803-13.181-22.353c-2.836-6.526-8.569-11.369-15.472-13.144c0.632-4.241,0-8.586-1.84-12.488
			c5.517-3.407,19.692-10.931,36.403-10.277c1.856,0.065,3.433-1.378,3.506-3.24C164.221,1.688,162.77,0.119,160.908,0.046z
			 M96.081,13.91c2.505-1.703,5.423-2.603,8.437-2.603c3.736,0,7.31,1.368,10.074,3.857c0.896,0.803,1.697,1.718,2.369,2.703
			c0.184,0.273,0.375,0.581,0.596,0.961c2.164,3.74,2.609,8.24,1.219,12.347c-1.055,3.114-3.053,5.741-5.779,7.598
			c-2.505,1.705-5.423,2.606-8.438,2.606c-4.991,0-9.645-2.46-12.448-6.578c-0.771-1.134-1.385-2.372-1.824-3.681
			C88.151,24.766,90.534,17.688,96.081,13.91z M110.498,197.031v-2.858c20.867,0.83,31.531,4.001,34.524,5.872
			c-1.33,0.836-4.739,2.391-12.965,3.81c-8.555,1.476-19.566,2.287-31.007,2.287s-22.452-0.812-31.007-2.287
			c-8.225-1.419-11.634-2.974-12.964-3.81c3.027-1.892,13.893-5.116,35.232-5.9c0.385-0.015,0.751-0.096,1.091-0.228v3.114
			c0,1.864,1.511,3.375,3.375,3.375s3.375-1.511,3.375-3.375v-34.386c0.6,0.019,3.279,0.013,3.595,0.003v34.383
			c0.001,1.865,1.512,3.375,3.376,3.375S110.498,198.895,110.498,197.031z M135.713,46.27c0.297,0.813,0.896,1.48,1.674,1.864
			c6.535,3.228,10.594,9.71,10.594,16.918c0,0.911-0.068,1.817-0.199,2.713h-4.855c-1.864,0-3.375,1.511-3.375,3.375
			c0,1.864,1.511,3.375,3.375,3.375l5.483,0.009c0,33.303-8.237,48.673-14.219,57.422c-5.981,8.75-15.56,19.803-24.017,22.755
			c-4.353,1.52-12.902,1.407-16.44,0.002c-8.33-3.308-19.187-14.682-24.021-22.758c-4.369-7.298-14.219-24.119-14.21-57.43
			l0.003-0.001h69.122c1.863,0,3.375-1.511,3.375-3.375c0-1.864-1.512-3.375-3.375-3.375H56.12
			c-0.131-0.896-0.199-1.802-0.199-2.713c0-8.283,5.363-15.525,13.344-18.022c0.919-0.287,1.671-0.954,2.068-1.832
			c2.439-5.398,7.642-9.028,13.516-9.564c0.485,1.029,1.041,2.023,1.681,2.964c4.062,5.968,10.801,9.531,18.028,9.531
			c4.375,0,8.608-1.306,12.239-3.777c3.145-2.143,5.619-4.997,7.269-8.35C129.418,37.261,133.818,41.106,135.713,46.27z"/>
	</g>
</g>
<g>
</g>
<g>
</g>
<g>
</g>
<g>
</g>
<g>
</g>
<g>
</g>
<g>
</g>
<g>
</g>
<g>
</g>
<g>
</g>
<g>
</g>
<g>
</g>
<g>
</g>
<g>
</g>
<g>
</g>
</svg>
