<?xml version="1.0" encoding="iso-8859-1"?>
<!-- Generator: Adobe Illustrator 19.0.0, SVG Export Plug-In . SVG Version: 6.00 Build 0)  -->
<svg version="1.1" id="Capa_1" xmlns="http://www.w3.org/2000/svg" xmlns:xlink="http://www.w3.org/1999/xlink" x="0px" y="0px"
	 viewBox="0 0 216.578 216.578" style="enable-background:new 0 0 216.578 216.578;" xml:space="preserve">
<g>
	<g>
		<path d="M214.457,83.214c-0.061-0.145-0.126-0.289-0.208-0.429c-1.17-1.998-2.843-3.694-4.868-4.946
			c-0.71-6.235-4.636-11.018-10.184-12.303c-3.76-0.871-7.635-0.222-10.913,1.825c-3.279,2.047-5.563,5.243-6.435,9.002
			c-0.377,1.638-0.471,3.285-0.279,4.911c-2.916,1.768-10.745,6.515-15.043,9.121c-2.322-1.584-5.48-1.718-8.219-0.165
			c-0.83,0.469-3.985,1.574-13.582-0.252c-17.549-32.703-44.268-37.234-58.765-36.993C63.83,53.355,41.617,65.304,34.29,80.779
			c-3.315,7.001-5.823,8.434-6.615,8.434s-1.467-0.788-2.568-3.991c-1.712-4.978-7.186-7.883-13.019-6.909
			C6.512,79.245,0,84.143,0,94.877c0,7.627,1.187,22.338,9.135,35.173c9.594,15.493,25.661,23.35,47.752,23.35h29.971
			c4.534,4.22,10.134,7.289,16.426,8.918c3.317,0.858,6.693,1.284,10.065,1.284c7.529,0,15.045-2.115,21.859-6.239
			c13.105-7.93,16.928-12.625,21.766-18.571c2.172-2.671,4.637-5.697,8.367-9.474c2.832-2.865,5.184-5.15,7.073-6.986
			c4.854-4.718,7.772-7.557,7.853-10.747c2.369-1.569,6.783-4.503,10.283-6.829c1.627-1.081,3.055-2.03,3.983-2.647
			c1.392,0.87,2.919,1.488,4.558,1.844c3.77,0.819,7.635,0.119,10.887-1.971c3.252-2.09,5.494-5.317,6.313-9.086
			C217.027,89.505,216.323,86.104,214.457,83.214z M56.888,146.651C11.635,146.652,6.75,110.445,6.75,94.879
			c0-8.191,4.938-9.654,6.451-9.907c2.2-0.368,4.804,0.354,5.523,2.447c2.336,6.79,5.954,8.389,8.577,8.535
			c4.703,0.263,9.107-3.872,13.09-12.285c2.885-6.095,8.937-11.902,17.041-16.352c8.602-4.724,18.774-7.416,28.642-7.581
			c12.13-0.205,33.854,3.382,49.597,28.122c-0.098-0.023-0.192-0.044-0.278-0.061c-8.647-1.662-24.74-4.755-36.003,1.688
			c-21.188,12.123-29.881,36.922-19.378,55.281c0.368,0.643,0.76,1.269,1.163,1.885H56.888z M209.693,91.464
			c-0.436,2.007-1.631,3.727-3.366,4.842c-1.735,1.115-3.796,1.489-5.802,1.053c-1.11-0.241-2.119-0.705-3.012-1.386
			c-1.629-1.419-3.685-1.489-5.646-0.194c-0.371,0.245-2.459,1.633-5.054,3.357c-3.207,2.131-7.183,4.772-9.645,6.406
			c-1.076-0.555-2.417-0.511-3.48,0.231c-1.527,1.067-1.901,3.171-0.834,4.7c0.354,0.507,0.297,1.43,0.035,1.75
			c-0.985,1.195-2.97,3.124-5.18,5.271c-1.91,1.857-4.29,4.168-7.17,7.082c-3.96,4.008-6.533,7.169-8.803,9.958
			c-4.598,5.65-7.92,9.732-20.024,17.056c-8.298,5.022-17.794,6.513-26.739,4.196c-8.237-2.133-15.022-7.237-19.105-14.371
			c-8.654-15.129-1.086-35.795,16.871-46.069c9.094-5.202,23.589-2.415,31.377-0.919c0.017,0.003,0.034,0.007,0.051,0.009
			c0.136,0.034,0.354,0.093,0.644,0.17c13.477,3.596,22.248,4.086,26.822,1.498c0.336-0.19,0.913-0.36,1.163-0.073l0.456,0.64
			c0.033,0.045,0.062,0.094,0.098,0.137l3.595,5.04c1.084,1.517,3.192,1.867,4.708,0.783s1.867-3.191,0.783-4.708l-1.604-2.244
			c5.323-3.227,14.547-8.82,15.322-9.291c2.005-1.217,2.821-3.099,2.237-5.191c-0.234-1.086-0.224-2.201,0.033-3.313
			c0.463-2.001,1.682-3.704,3.432-4.796c1.75-1.092,3.815-1.439,5.818-0.975c4.324,1.001,4.956,5.631,5.049,7.048
			c0.024,0.446,0.096,0.851,0.201,1.219c0.194,1.18,0.827,2.574,2.572,3.519C206.721,84.576,210.637,87.125,209.693,91.464z"/>
	</g>
</g>
<g>
</g>
<g>
</g>
<g>
</g>
<g>
</g>
<g>
</g>
<g>
</g>
<g>
</g>
<g>
</g>
<g>
</g>
<g>
</g>
<g>
</g>
<g>
</g>
<g>
</g>
<g>
</g>
<g>
</g>
</svg>
