<?xml version="1.0" encoding="iso-8859-1"?>
<!-- Generator: Adobe Illustrator 19.0.0, SVG Export Plug-In . SVG Version: 6.00 Build 0)  -->
<svg version="1.1" id="Capa_1" xmlns="http://www.w3.org/2000/svg" xmlns:xlink="http://www.w3.org/1999/xlink" x="0px" y="0px"
	 viewBox="0 0 212.039 212.039" style="enable-background:new 0 0 212.039 212.039;" xml:space="preserve">
<g>
	<g>
		<path d="M209.451,88.004c-0.417-1.445-1.717-2.4-3.22-2.4c-0.007,0-20.603,0-20.603,0c-2.608-5.476-10.768-21.845-22.704-38.556
			c-19.354-27.096-38.479-41.05-56.859-41.513V5.531c-0.015,0-0.031,0.002-0.047,0.002c-0.015,0-0.031-0.002-0.046-0.002v0.004
			C87.591,5.998,68.467,19.953,49.113,47.048C37.176,63.761,29.017,80.129,26.41,85.605c-12.565,0-20.621,0-20.628,0
			c-1.502,0-2.777,0.955-3.194,2.4c-0.382,1.326-9.173,32.781,7.983,59.297c8.663,13.373,28.333,30.061,40.596,39.782h0.009
			c2.008,1.584,3.799,2.969,5.279,4.098c-2.845,2.562-4.682,6.916-4.682,11.951c0,1.863,1.511,3.375,3.375,3.375h101.433
			c1.863,0,3.375-1.512,3.375-3.375c0-5.104-1.889-9.504-4.798-12.051c1.534-1.174,3.395-2.614,5.478-4.262
			c0.029-0.022,0.062-0.048,0.09-0.072c0.113-0.088,0.224-0.176,0.336-0.266h-0.001c12.294-9.761,31.842-25.961,40.405-39.182
			C218.624,120.783,209.833,89.331,209.451,88.004z M106.019,12.287c33.495,0.987,63.75,56.73,72.049,73.352
			c-10.126,0.063-134.006,0.03-144.131-0.033C42.236,68.982,72.524,13.273,106.019,12.287z M195.8,143.634
			c-9.912,15.303-36.729,35.953-46.235,43.187h0.033c-1.188,0.902-2.071,1.562-2.561,1.924h-11.625
			c-1.864,0-3.375,1.512-3.375,3.375c0,1.864,1.511,3.375,3.375,3.375h13.806c1.321,0,2.796,1.711,3.526,4.265H58.985
			c0.731-2.552,2.205-4.265,3.527-4.265h50.399c1.863,0,3.375-1.511,3.375-3.375c0-1.863-1.512-3.375-3.375-3.375H64.449
			c-0.549-0.406-1.591-1.183-3.007-2.261h-0.036c-10.102-7.728-35.514-27.948-45.167-42.85C3.378,123.755,6.903,99.935,8.497,92.332
			c5.587,0.034,189.459,0.034,195.046,0C205.136,99.935,208.662,123.756,195.8,143.634z"/>
	</g>
</g>
<g>
</g>
<g>
</g>
<g>
</g>
<g>
</g>
<g>
</g>
<g>
</g>
<g>
</g>
<g>
</g>
<g>
</g>
<g>
</g>
<g>
</g>
<g>
</g>
<g>
</g>
<g>
</g>
<g>
</g>
</svg>
