<?xml version="1.0" encoding="iso-8859-1"?>
<!-- Generator: Adobe Illustrator 19.0.0, SVG Export Plug-In . SVG Version: 6.00 Build 0)  -->
<svg version="1.1" id="Capa_1" xmlns="http://www.w3.org/2000/svg" xmlns:xlink="http://www.w3.org/1999/xlink" x="0px" y="0px"
	 viewBox="0 0 176.2 176.2" style="enable-background:new 0 0 176.2 176.2;" xml:space="preserve">
<g>
	<g>
		<path d="M157.894,51.56c-4.556-4.556-10.612-7.065-17.056-7.065c-6.442,0-12.5,2.509-17.056,7.065l-12.335,12.334
			c0,0,0.048-13.088,0.048-13.766C111.496,22.487,89.008,0,61.368,0C33.728,0,11.24,22.487,11.24,50.128v96.596
			c0,1.865,1.511,3.375,3.375,3.375h4.584v22.726c0,1.864,1.511,3.375,3.375,3.375h77.052c1.864,0,3.375-1.511,3.375-3.375v-22.726
			h5.073c1.863,0,3.375-1.51,3.375-3.375v-11.908l46.131-48.843l0.037-0.035c0.094-0.088,0.188-0.175,0.279-0.267
			c4.556-4.556,7.064-10.614,7.064-17.057C164.959,62.172,162.451,56.115,157.894,51.56z M38.549,169.449h-12.6V150.55h12.6V169.449
			z M57.159,169.449h-11.86V150.55h11.86V169.449z M75.769,169.449h-11.86V150.55h11.86V169.449z M96.25,169.449H82.52V150.55h13.73
			V169.449z M153.122,80.898c-0.036,0.036-0.073,0.07-0.11,0.105l-0.154,0.144c-0.041,0.039-0.08,0.079-0.118,0.12l-46.772,49.522
			c-0.771,0.619-1.269,1.568-1.269,2.635v9.926H17.99V50.128c0-23.919,19.459-43.378,43.378-43.378
			c23.919,0,43.378,19.459,43.378,43.378c0,0.601-0.016,1.229-0.045,1.918c-0.002,0.049-0.003,35.649-0.003,35.649
			c0,1.864,1.511,3.375,3.375,3.375c1.864,0,3.375-1.512,3.375-3.375V73.441l17.108-17.108c3.28-3.281,7.643-5.087,12.282-5.087
			c4.639,0,9.003,1.807,12.283,5.088c3.28,3.281,5.087,7.643,5.087,12.282C158.209,73.255,156.403,77.617,153.122,80.898z"/>
	</g>
</g>
<g>
</g>
<g>
</g>
<g>
</g>
<g>
</g>
<g>
</g>
<g>
</g>
<g>
</g>
<g>
</g>
<g>
</g>
<g>
</g>
<g>
</g>
<g>
</g>
<g>
</g>
<g>
</g>
<g>
</g>
</svg>
