<?xml version="1.0" encoding="iso-8859-1"?>
<!-- Generator: Adobe Illustrator 19.0.0, SVG Export Plug-In . SVG Version: 6.00 Build 0)  -->
<svg version="1.1" id="Capa_1" xmlns="http://www.w3.org/2000/svg" xmlns:xlink="http://www.w3.org/1999/xlink" x="0px" y="0px"
	 viewBox="0 0 192.13 192.13" style="enable-background:new 0 0 192.13 192.13;" xml:space="preserve">
<g>
	<g>
		<path d="M96.067,0.002C43.096,0.002,0,43.096,0,96.066c0,52.968,43.096,96.063,96.067,96.063c52.97,0,96.063-43.095,96.063-96.063
			C192.131,43.097,149.036,0.002,96.067,0.002z M96.067,184.577c-48.807,0-88.514-39.706-88.514-88.511
			c0-48.807,39.708-88.512,88.514-88.512c48.806,0,88.511,39.707,88.511,88.512C184.579,144.871,144.872,184.577,96.067,184.577z"/>
	</g>
</g>
<g>
	<g>
		<path d="M152.945,38.529c-14.022-13.996-35.278-23.484-56.694-23.484c-21.418,0-41.554,8.34-56.696,23.484
			C24.411,53.671,16.07,73.805,16.07,95.224s8.34,41.554,23.484,56.696c15.143,15.146,35.278,23.485,56.697,23.485
			c21.416,0,41.552-8.34,56.694-23.484c15.144-15.141,23.484-35.276,23.484-56.697C176.431,82.067,175.112,60.651,152.945,38.529z
			 M147.606,146.579c-13.717,13.719-31.956,21.274-51.354,21.274c-19.401,0-37.64-7.556-51.357-21.274
			c-13.717-13.716-21.272-31.955-21.272-51.356c0-19.4,7.555-37.638,21.273-51.354c13.716-13.718,31.956-21.272,51.356-21.272
			c19.308,0,40.589,9.731,51.16,21.079c13.3,14.276,21.467,30.326,21.467,51.548C168.879,114.626,161.325,132.865,147.606,146.579z"
			/>
	</g>
</g>
<g>
	<g>
		<path d="M84.592,100.688c-0.755-1.824-2.59-2.912-4.909-2.912h-43.32c-1.857,0-3.606,0.781-4.797,2.14
			c-1.173,1.339-1.71,3.138-1.471,4.946c1.533,11.386,6.03,22.233,13.005,31.373c1.203,1.576,3.011,2.479,4.962,2.479
			c1.681,0,3.277-0.67,4.495-1.886l30.627-30.618C84.82,104.572,85.347,102.509,84.592,100.688z M48.229,130.477
			c-5.393-7.445-8.976-16.086-10.432-25.148h35.589L48.229,130.477z"/>
	</g>
</g>
<g>
	<g>
		<path d="M83.181,85.408l-30.625-30.58c-1.225-1.224-2.83-1.898-4.519-1.898c-1.943,0-3.743,0.899-4.938,2.465
			c-6.976,9.14-11.472,19.987-13.006,31.377c-0.237,1.792,0.296,3.582,1.462,4.912c1.191,1.358,2.944,2.137,4.809,2.137h43.32
			c3.44,0,4.628-2.22,4.91-2.901C84.875,90.24,85.605,87.836,83.181,85.408z M37.802,86.267c1.459-9.045,5.036-17.665,10.416-25.099
			l25.136,25.099H37.802z"/>
	</g>
</g>
<g>
	<g>
		<path d="M87.27,29.669c-11.414,1.569-22.283,6.029-31.417,13.002c-1.444,1.102-2.341,2.756-2.461,4.538
			c-0.121,1.81,0.563,3.603,1.879,4.919l30.636,30.625c1.442,1.445,2.886,1.748,3.842,1.748c2.309,0,4.647-1.803,4.647-5.248V35.94
			C94.396,32.391,92.882,28.898,87.27,29.669z M86.845,73.013L61.618,47.795c7.452-5.396,16.118-8.979,25.227-10.431V73.013z"/>
	</g>
</g>
<g>
	<g>
		<path d="M94.396,112.394c0.002-3.447-2.335-5.249-4.643-5.249c-0.955,0-2.396,0.303-3.837,1.744L55.259,139.52
			c-1.308,1.31-1.989,3.096-1.869,4.901c0.119,1.786,1.017,3.444,2.467,4.556c9.144,6.977,20.005,11.473,31.407,13.002
			c0.47,0.063,0.87,0.094,1.258,0.094c1.141,0,4.418-0.357,5.511-4.241C94.821,154.817,94.396,112.394,94.396,112.394z
			 M86.845,154.283c-9.103-1.45-17.771-5.037-25.23-10.438l25.23-25.21V154.283z"/>
	</g>
</g>
<g>
	<g>
		<path d="M161.06,99.915c-1.194-1.358-2.942-2.14-4.798-2.14h-43.32c-2.317,0-4.153,1.088-4.908,2.912
			c-0.756,1.821-0.229,3.885,1.408,5.522l30.628,30.618c1.218,1.217,2.813,1.886,4.494,1.886c1.951,0,3.76-0.903,4.963-2.479
			c6.975-9.14,11.472-19.988,13.004-31.373C162.771,103.052,162.234,101.253,161.06,99.915z M144.395,130.477l-25.156-25.148h35.589
			C153.372,114.391,149.789,123.031,144.395,130.477z"/>
	</g>
</g>
<g>
	<g>
		<path d="M162.532,86.772c-1.534-11.39-6.03-22.236-13.006-31.376c-1.195-1.566-2.996-2.465-4.938-2.465
			c-1.688,0-3.293,0.674-4.519,1.898l-30.625,30.58c-2.423,2.427-1.693,4.831-1.412,5.51c0.283,0.681,1.471,2.901,4.91,2.901h43.32
			c1.865,0,3.618-0.779,4.808-2.136C162.235,90.354,162.768,88.564,162.532,86.772z M119.272,86.267l25.134-25.099
			c5.381,7.433,8.957,16.053,10.416,25.099H119.272z"/>
	</g>
</g>
<g>
	<g>
		<path d="M139.233,47.21c-0.121-1.782-1.018-3.436-2.461-4.538c-9.135-6.974-20.004-11.434-31.419-13.002
			c-5.611-0.771-7.125,2.722-7.125,6.27v43.316c0,3.445,2.337,5.247,4.646,5.247c0.956,0,2.4-0.303,3.842-1.748l30.637-30.625
			C138.669,50.812,139.354,49.02,139.233,47.21z M105.779,73.012c0,0,0-35.649,0-35.649c9.108,1.451,17.775,5.035,25.228,10.431
			L105.779,73.012z"/>
	</g>
</g>
<g>
	<g>
		<path d="M137.363,139.52l-30.654-30.632c-1.439-1.441-2.882-1.744-3.837-1.744c-2.308,0-4.646,1.803-4.646,5.248
			c0,0-0.426,42.423,0.362,45.439c1.093,3.884,4.37,4.24,5.511,4.24c0.389,0,0.788-0.029,1.258-0.092
			c11.403-1.531,22.265-6.027,31.409-13.002c1.45-1.111,2.348-2.771,2.467-4.557C139.351,142.615,138.67,140.829,137.363,139.52z
			 M105.779,154.283v-35.648l25.23,25.21C123.551,149.246,114.883,152.833,105.779,154.283z"/>
	</g>
</g>
<g>
</g>
<g>
</g>
<g>
</g>
<g>
</g>
<g>
</g>
<g>
</g>
<g>
</g>
<g>
</g>
<g>
</g>
<g>
</g>
<g>
</g>
<g>
</g>
<g>
</g>
<g>
</g>
<g>
</g>
</svg>
