<?xml version="1.0" encoding="iso-8859-1"?>
<!-- Generator: Adobe Illustrator 19.0.0, SVG Export Plug-In . SVG Version: 6.00 Build 0)  -->
<svg version="1.1" id="Capa_1" xmlns="http://www.w3.org/2000/svg" xmlns:xlink="http://www.w3.org/1999/xlink" x="0px" y="0px"
	 viewBox="0 0 214.249 214.249" style="enable-background:new 0 0 214.249 214.249;" xml:space="preserve">
<g>
	<g>
		<path d="M208.061,34.942c-0.077-0.104-0.159-0.206-0.249-0.302c-2.628-2.82-6.041-4.901-9.912-6.042
			c-2.945-9.758-10.35-15.848-19.371-15.91c-0.05,0-0.098,0-0.148,0c-12.031,0-21.861,9.747-21.94,21.795
			c-0.021,3.043,0.565,5.971,1.739,8.707c-2.56,2.463-14.209,13.664-21.171,20.359l-2.306,2.217
			c-3.801-2.205-8.771-1.599-12.408,1.699c-2.6,2.353-21.752,5.09-39.958,5.022c-18.205-0.069-41.248,1.322-56.618,15.367
			c-29.26,26.743-34.309,69.025-11.253,94.255c10.947,11.976,26.172,18.872,42.872,19.417c0.712,0.023,1.422,0.035,2.132,0.035
			c17.158,0,33.628-6.775,46.585-19.213c18.229-17.495,22.675-26.417,28.304-37.712c2.596-5.21,5.538-11.114,10.312-18.75
			c3.592-5.743,6.604-10.351,9.025-14.056c4.785-7.318,7.422-11.351,8.321-14.667c0.546-2.012,0.419-3.692-0.093-5.144
			c2.854-2.972,9.461-9.873,14.754-15.402c3.236-3.382,5.98-6.249,7.069-7.383c2.742,1.175,5.684,1.752,8.706,1.739
			c12.099-0.08,21.875-9.989,21.795-22.09C214.208,43.438,211.974,38.585,208.061,34.942z M192.405,64.223c-0.036,0-0.071,0-0.107,0
			c-2.233,0-4.369-0.47-6.361-1.403l-0.03-0.017c-2.254-1.236-4.602-0.769-6.604,1.312c-0.539,0.559-3.677,3.838-7.502,7.834
			c-4.896,5.113-10.915,11.403-14.047,14.667c-1.369-0.987-3.292-0.816-4.46,0.462c-1.257,1.376-1.161,3.511,0.216,4.768
			c2.368,2.165,2.243,2.628,1.993,3.55c-0.62,2.285-3.192,6.221-7.456,12.74c-2.438,3.73-5.472,8.369-9.099,14.171
			c-4.946,7.911-7.966,13.971-10.63,19.317c-5.545,11.129-9.552,19.168-26.936,35.854c-12.171,11.684-27.733,17.824-43.823,17.303
			c-14.867-0.486-28.401-6.604-38.11-17.226c-20.544-22.481-15.688-60.487,10.824-84.719C43.85,80.43,70.882,79.167,84.049,79.268
			c22.725,0.911,36.716-1.314,42.779-6.802c1.334-1.21,3.355-1.858,4.884-0.595l8.956,8.025c1.391,1.242,3.523,1.123,4.766-0.267
			c1.242-1.39,1.123-3.523-0.268-4.766l-5.279-4.719l1.801-1.731c7.522-7.234,20.517-19.728,21.607-20.78
			c2.084-2.005,2.552-4.351,1.315-6.607l-0.017-0.031c-0.946-2.016-1.418-4.193-1.403-6.469c0.055-8.376,6.929-15.153,15.294-15.09
			c7.16,0.049,11.187,5.389,12.881,10.89c0.174,0.572,0.48,2.265,1.288,3.414c0.932,1.326,2.578,1.812,3.571,2.184
			c6.094,1.917,11.222,5.842,11.271,13.002C207.552,57.306,200.782,64.167,192.405,64.223z"/>
	</g>
</g>
<g>
</g>
<g>
</g>
<g>
</g>
<g>
</g>
<g>
</g>
<g>
</g>
<g>
</g>
<g>
</g>
<g>
</g>
<g>
</g>
<g>
</g>
<g>
</g>
<g>
</g>
<g>
</g>
<g>
</g>
</svg>
