<?xml version="1.0" encoding="iso-8859-1"?>
<!-- Generator: Adobe Illustrator 19.0.0, SVG Export Plug-In . SVG Version: 6.00 Build 0)  -->
<svg version="1.1" id="Capa_1" xmlns="http://www.w3.org/2000/svg" xmlns:xlink="http://www.w3.org/1999/xlink" x="0px" y="0px"
	 viewBox="0 0 211.181 211.181" style="enable-background:new 0 0 211.181 211.181;" xml:space="preserve">
<g>
	<g>
		<path d="M114.632,180.88v-7.756c0-0.999,0.863-1.832,3.539-4.15c3.746-3.248,9.41-8.157,15.655-18.746
			c10.515-17.826,10.468-48.741,10.41-84.538c-0.004-2.627-0.008-5.279-0.008-7.953c0-1.864-1.511-3.375-3.375-3.375H67.07
			c-1.864,0-3.375,1.511-3.375,3.375c0,2.854-0.005,5.684-0.01,8.485c-0.065,35.557-0.12,66.265,10.344,84.006
			c6.256,10.605,11.948,15.514,15.715,18.763c2.628,2.268,3.548,3.148,3.548,4.134v7.751c-17.205,1.254-34.597,5.759-34.597,14.962
			c0,4.979,4.948,8.918,14.707,11.708c8.199,2.344,19.041,3.636,30.527,3.636s22.327-1.291,30.527-3.636
			c9.759-2.791,14.708-6.73,14.708-11.708C149.161,186.645,131.815,182.141,114.632,180.88z M132.599,201.055
			c-7.613,2.177-17.795,3.376-28.671,3.376s-21.058-1.199-28.671-3.376c-8.067-2.306-9.813-4.74-9.813-5.218
			c0-0.386,1.333-2.396,7.492-4.494c5.27-1.796,12.413-3.087,20.355-3.698v6.359c0,1.863,1.511,3.375,3.375,3.375
			c1.864,0,3.375-1.512,3.375-3.375v-20.88c0-4.166-2.729-6.521-5.89-9.245c-3.637-3.137-8.618-7.433-14.31-17.08
			c-5.569-9.441-7.861-23.57-8.794-40.582h33.739c1.864,0,3.375-1.511,3.375-3.375c0-1.864-1.511-3.375-3.375-3.375H70.75
			c-0.355-10.3-0.336-21.493-0.315-33.232c0.003-1.697,0.006-3.405,0.008-5.123h67.038c0.002,1.537,0.004,3.067,0.007,4.588
			c0.02,11.936,0.036,23.313-0.334,33.766h-6.04c-1.864,0-3.375,1.511-3.375,3.375c0,1.864,1.511,3.375,3.375,3.375h5.733
			c-0.951,17.012-3.262,31.139-8.834,40.582c-5.686,9.64-10.644,13.937-14.264,17.075c-3.147,2.729-5.867,5.086-5.867,9.251v20.88
			c0,1.863,1.51,3.375,3.375,3.375c1.863,0,3.375-1.512,3.375-3.375v-6.354c7.916,0.614,15.031,1.902,20.287,3.693
			c6.159,2.099,7.492,4.108,7.492,4.494C142.411,196.315,140.666,198.749,132.599,201.055z"/>
	</g>
</g>
<g>
	<g>
		<path d="M117.948,65.571c-1.864,0-3.375,1.511-3.375,3.375v72.849c0,1.863,1.51,3.375,3.375,3.375
			c1.864,0,3.375-1.512,3.375-3.375V68.945C121.323,67.082,119.812,65.571,117.948,65.571z"/>
	</g>
</g>
<g>
	<g>
		<path d="M152.15,1.904c-0.812-1.677-2.832-2.379-4.51-1.566c-5.555,2.691-10.465,4.349-14.797,5.813
			c-10.207,3.448-18.271,6.171-18.271,19.182v21.033c0,1.864,1.511,3.375,3.375,3.375s3.375-1.511,3.375-3.375V25.334
			c0-7.819,3.062-9.201,13.681-12.787c4.297-1.451,9.645-3.257,15.58-6.133C152.261,5.601,152.962,3.583,152.15,1.904z"/>
	</g>
</g>
<g>
</g>
<g>
</g>
<g>
</g>
<g>
</g>
<g>
</g>
<g>
</g>
<g>
</g>
<g>
</g>
<g>
</g>
<g>
</g>
<g>
</g>
<g>
</g>
<g>
</g>
<g>
</g>
<g>
</g>
</svg>
