<?xml version="1.0" encoding="iso-8859-1"?>
<!-- Generator: Adobe Illustrator 19.0.0, SVG Export Plug-In . SVG Version: 6.00 Build 0)  -->
<svg version="1.1" id="Capa_1" xmlns="http://www.w3.org/2000/svg" xmlns:xlink="http://www.w3.org/1999/xlink" x="0px" y="0px"
	 viewBox="0 0 218.98 218.98" style="enable-background:new 0 0 218.98 218.98;" xml:space="preserve">
<g>
	<g>
		<path d="M217.98,27.178l-7.257-7.191c-0.647-0.642-1.521-0.991-2.442-0.977c-0.914,0.018-1.781,0.405-2.402,1.073l-87.886,95.837
			l-6.405-0.021c0,0,91.578-94.301,92.102-94.849c0.672-0.707,1.006-1.671,0.913-2.643c-0.092-0.972-0.599-1.855-1.392-2.425
			l-8.145-5.844c-1.375-0.986-3.268-0.802-4.427,0.431L89.382,115.906c0,0-47.883,0-86.082,0c-1.864,0-3.3,1.034-3.3,2.898
			c0,20.69,0.584,36.275,8.136,48.427c6.314,10.157,16.877,17.812,37.88,27.126c-2.22,2.69-3.596,6.873-3.596,11.742
			c0,1.864,1.511,3.375,3.375,3.375h82.312c1.864,0,3.375-1.511,3.375-3.375c0-4.393-1.119-8.225-2.968-10.908
			c22.076-9.668,35.325-19.464,42.6-31.402c7.773-12.757,8.406-27.655,8.406-44.401c0-1.864-1.511-3.375-3.375-3.375
			c-2.601,0-25.906-0.113-36.37-0.153c49.872-52.175,77.929-83.603,78.241-83.923C219.315,30.61,219.299,28.484,217.98,27.178z
			 M193.532,17.347l2.59,1.858C184.71,31.171,102.13,115.91,102.13,115.91l-3.456-0.005L193.532,17.347z M165.379,122.704
			c0.189,0.033,0.385,0.056,0.585,0.056c2.224,0.002,4.487,0.003,6.795,0.003c-0.097,14.752-1.017,27.023-7.41,37.513
			c-7.034,11.545-20.794,21.07-44.611,30.886h-12.985c-1.864,0-3.375,1.512-3.375,3.375c0,1.864,1.511,3.375,3.375,3.375h13.954
			c0.594,0,2.046,1.643,2.697,4.812H49.498c0.653-3.169,2.105-4.812,2.699-4.812h32.35c1.864,0,3.375-1.511,3.375-3.375
			c0-1.863-1.511-3.375-3.375-3.375H55.686c-24.015-10.012-35.741-17.722-41.818-27.496c-5.746-9.242-6.998-20.962-7.11-41.487
			C36.659,122.191,145.295,122.649,165.379,122.704z M130.43,115.912l-3.197-0.007l81.214-88.673l2.403,2.382
			C202.511,38.16,130.43,115.912,130.43,115.912z"/>
	</g>
</g>
<g>
</g>
<g>
</g>
<g>
</g>
<g>
</g>
<g>
</g>
<g>
</g>
<g>
</g>
<g>
</g>
<g>
</g>
<g>
</g>
<g>
</g>
<g>
</g>
<g>
</g>
<g>
</g>
<g>
</g>
</svg>
