<?xml version="1.0" encoding="iso-8859-1"?>
<!-- Generator: Adobe Illustrator 19.0.0, SVG Export Plug-In . SVG Version: 6.00 Build 0)  -->
<svg version="1.1" id="Capa_1" xmlns="http://www.w3.org/2000/svg" xmlns:xlink="http://www.w3.org/1999/xlink" x="0px" y="0px"
	 viewBox="0 0 198.479 198.479" style="enable-background:new 0 0 198.479 198.479;" xml:space="preserve">
<g>
	<g>
		<path d="M146.205,88.342c10.12-8.688,16.1-20.224,17.295-33.362c2.775-30.532-11.607-52.551-12.222-53.474
			C150.652,0.565,149.598,0,148.469,0H50.011c-1.129,0-2.184,0.565-2.81,1.506C46.587,2.428,32.204,24.447,34.98,54.98
			c1.194,13.139,7.174,24.674,17.294,33.362c8.785,7.542,20.268,12.65,33.318,14.852v66.336c-11.87,0.581-22.657,1.906-30.645,3.783
			c-10.89,2.557-15.962,5.902-15.962,10.525c0,5.077,6.187,8.661,19.471,11.279c10.901,2.148,25.317,3.339,40.633,3.362v0.001
			c0.051,0,0.301-0.001,0.301-0.001c15.317-0.023,29.732-1.214,40.634-3.362c13.284-2.618,19.47-6.202,19.47-11.279
			c0-4.623-5.072-7.969-15.962-10.525c-7.987-1.876-18.774-3.201-30.643-3.782v-66.337C125.939,100.99,137.42,95.883,146.205,88.342
			z M106.138,181.417c0,1.864,1.511,3.375,3.375,3.375c1.863,0,3.375-1.511,3.375-3.375v-5.13
			c10.321,0.52,19.849,1.622,27.125,3.156c8.598,1.812,11.521,3.627,12.435,4.402c-1.256,1.062-5.521,3.216-15.908,5.054
			c-10.237,1.812-23.475,2.813-37.3,2.829c-13.826-0.014-27.062-1.018-37.3-2.829c-10.387-1.838-14.652-3.991-15.908-5.054
			c0.913-0.775,3.837-2.592,12.433-4.402c7.278-1.534,16.808-2.637,27.128-3.156v4.68c0,1.864,1.511,3.375,3.375,3.375
			c1.864,0,3.375-1.511,3.375-3.375l0.008-80.728c0-1.864-1.511-3.375-3.375-3.375c-0.048,0-0.095,0.005-0.142,0.007
			c-0.004-0.001-0.007-0.002-0.011-0.002c-21.184-2.982-44.686-15.713-47.121-42.5C39.542,30.602,48.909,12.02,51.918,6.75h94.644
			c3.009,5.27,12.376,23.854,10.215,47.618c-2.436,26.787-25.938,39.517-47.121,42.5c-0.003,0-0.007,0.001-0.011,0.002
			c-0.047-0.002-0.094-0.007-0.143-0.007c-1.863,0-3.375,1.511-3.375,3.375L106.138,181.417z"/>
	</g>
</g>
<g>
	<g>
		<path d="M145.652,48.874h-7.453c-1.87-0.031-3.393,1.471-3.414,3.336c-0.021,1.864,1.471,3.392,3.335,3.414l3.791,0.064
			c-1.323,8.367-8.095,29.399-42.672,30.147C64.661,85.087,57.89,64.055,56.566,55.688l64.312-0.064c0.012,0,0.022,0,0.034,0
			c1.849,0,3.356-1.49,3.374-3.342c0.018-1.864-1.479-3.39-3.342-3.408l-68.106,0.098c-1.851,0.017-3.343,1.523-3.343,3.375
			c0,0.417,0.075,10.326,6.572,20.268c5.799,8.874,23.521,19.52,43.021,19.52c19.502,0,37.522-10.646,43.321-19.52
			c6.496-9.941,6.572-19.851,6.572-20.268C148.982,50.495,147.503,48.891,145.652,48.874z"/>
	</g>
</g>
<g>
</g>
<g>
</g>
<g>
</g>
<g>
</g>
<g>
</g>
<g>
</g>
<g>
</g>
<g>
</g>
<g>
</g>
<g>
</g>
<g>
</g>
<g>
</g>
<g>
</g>
<g>
</g>
<g>
</g>
</svg>
